<?xml version="1.0" encoding="UTF-8"?><svg id="Layer_2" xmlns="http://www.w3.org/2000/svg" viewBox="0 0 300 66.498"><g id="Components"><g id="_x34_fe4dc8c-f426-45d7-acbb-48c79305eca8_x40_1"><path d="M33.6097,43.7541l-5.7843,3.3383-16.2569,9.3907-5.7842,3.3383-5.7843,3.3383,5.7843,3.3383,5.7842-3.3383,16.2569-9.3861,5.7843-3.3383,5.7842-3.3383-5.7842-3.3429Z" style="fill:#035aa6;"/><path d="M27.8253,25.25l5.7843-2.5061-5.7843-3.3382L11.5685,10.0196v5.8443l16.2568,9.3861Z" style="fill:#035aa6;"/><path d="M33.6096,16.0674l-5.7842-3.343L11.5685,3.3383,5.7842,0v53.9771l5.7843-3.3383V10.0196l16.2569,9.3861,5.7842,3.3383v21.0102l5.7843,3.3429v-27.6913l-5.7843-3.3382Z" style="fill:#2e76bc;"/><path d="M27.8254,25.25v15.998l-16.2569,9.3908-5.7842,3.3383V0L0,3.3383v59.8214l5.7843-3.3383,5.7842-3.3383,16.2569-9.3907,5.7843-3.3383v-21.0102l-5.7843,2.5061Z" style="fill:#35a6de;"/><path d="M72.9805,12.6936c4.1991,0,7.8437.8456,10.9346,2.5368,3.0909,1.6912,5.4624,4.0728,7.1147,7.1443,1.6522,3.0714,2.4783,6.6479,2.4783,10.7301,0,4.0433-.8261,7.6103-2.4783,10.7012-1.6522,3.0909-4.0238,5.4819-7.1147,7.1731-3.0909,1.6912-6.7355,2.5368-10.9346,2.5368h-12.0714V12.6936h12.0714ZM84.2943,44.5932c2.6825-2.8376,4.0238-6.6673,4.0238-11.4884,0-4.86-1.3315-8.6991-3.9946-11.5172-2.6634-2.8189-6.444-4.228-11.343-4.228h-6.9978v31.4911h6.9978c4.86,0,8.6313-1.4192,11.3138-4.2575Z"/><path d="M127.039,53.5159h-2.6244c-1.9051,0-3.2655-.3889-4.0822-1.1667-.8164-.7771-1.2439-1.9242-1.2828-3.4401-2.294,3.3045-5.6179,4.9567-9.9722,4.9567-3.3048,0-5.9581-.7778-7.9603-2.3326-2.0025-1.5555-3.0036-3.6739-3.0036-6.3564,0-2.9942,1.0206-5.2878,3.0617-6.8816s5.0057-2.391,8.8935-2.391h8.7474v-2.0411c0-1.9437-.6512-3.4603-1.9535-4.549-1.3027-1.088-3.1201-1.6327-5.4527-1.6327-2.0606,0-3.7615.4567-5.1028,1.3708-1.3413.9134-2.1674,2.1284-2.4783,3.6443h-4.7821c.3499-2.9156,1.6425-5.1897,3.878-6.8232,2.2356-1.6327,5.1417-2.4488,8.7186-2.4488,3.8099,0,6.755.9228,8.8347,2.7698,2.0801,1.847,3.1201,4.5,3.1201,7.9603v12.8296c0,1.4387.6609,2.158,1.9827,2.158h1.4581v4.3737ZM109.6022,39.928c-4.4322,0-6.6482,1.6522-6.6482,4.9567,0,1.4776.583,2.6638,1.7493,3.5577,1.1667.8939,2.741,1.3413,4.724,1.3413,2.9156,0,5.2096-.7677,6.8813-2.3037,1.6717-1.5353,2.5076-3.5671,2.5076-6.0938v-1.4581h-9.2139Z"/><path d="M127.329,28.1481v-4.3737h5.365v-8.3398h4.7821v8.3398h7.523v4.3737h-7.523v17.5533c0,1.2439.2428,2.1284.7291,2.6537.4859.5245,1.3315.7872,2.5368.7872h5.1901v4.3737h-5.4819c-2.799,0-4.7915-.6219-5.9772-1.8665-1.1858-1.2439-1.7788-3.2071-1.7788-5.8896v-17.6117h-5.365Z"/><path d="M176.6642,53.5159h-2.6244c-1.9051,0-3.2655-.3889-4.0822-1.1667-.8164-.7771-1.2439-1.9242-1.2828-3.4401-2.294,3.3045-5.6179,4.9567-9.9722,4.9567-3.3048,0-5.9581-.7778-7.9603-2.3326-2.0025-1.5555-3.0036-3.6739-3.0036-6.3564,0-2.9942,1.0206-5.2878,3.0617-6.8816s5.0057-2.391,8.8935-2.391h8.7474v-2.0411c0-1.9437-.6512-3.4603-1.9535-4.549-1.3027-1.088-3.1201-1.6327-5.4527-1.6327-2.0606,0-3.7615.4567-5.1028,1.3708-1.3413.9134-2.1674,2.1284-2.4783,3.6443h-4.7821c.3499-2.9156,1.6425-5.1897,3.878-6.8232,2.2356-1.6327,5.1417-2.4488,8.7186-2.4488,3.8099,0,6.755.9228,8.8347,2.7698,2.0801,1.847,3.1201,4.5,3.1201,7.9603v12.8296c0,1.4387.6609,2.158,1.9827,2.158h1.4581v4.3737ZM159.2274,39.928c-4.4322,0-6.6482,1.6522-6.6482,4.9567,0,1.4776.583,2.6638,1.7493,3.5577,1.1667.8939,2.741,1.3413,4.724,1.3413,2.9156,0,5.2096-.7677,6.8813-2.3037,1.6717-1.5353,2.5076-3.5671,2.5076-6.0938v-1.4581h-9.2139Z"/><path d="M208.5619,52.0578c0,8.9812-4.9177,13.4718-14.7539,13.4718-3.8492,0-6.9884-.8752-9.4184-2.6248-2.43-1.7496-3.8391-4.2373-4.228-7.4646h4.8982c.3889,1.8665,1.3802,3.3052,2.9747,4.316,1.5938,1.0108,3.6349,1.5159,6.1233,1.5159,6.4148,0,9.6219-3.1299,9.6219-9.3888v-3.4993c-2.1378,3.6544-5.5396,5.4819-10.2056,5.4819-2.7597,0-5.2193-.6024-7.3766-1.8081-2.158-1.2049-3.8492-2.9545-5.0736-5.2482-1.2251-2.2936-1.8373-5.0151-1.8373-8.1645,0-2.9935.6122-5.6378,1.8373-7.9314,1.2244-2.2936,2.9249-4.0822,5.1024-5.365s4.6262-1.9242,7.3477-1.9242c2.4105,0,4.4711.4762,6.1818,1.4286,1.7107.9524,3.0519,2.3037,4.0238,4.0534l.6414-5.132h4.1407v28.2834ZM202.6139,44.389c.816-1.6522,1.2244-3.5281,1.2244-5.6277,0-2.1378-.4084-4.0526-1.2244-5.7438-.8167-1.6912-1.9733-3.0036-3.4704-3.9365-1.4964-.9329-3.1977-1.3997-5.1024-1.3997-2.9545,0-5.3362,1.0209-7.1435,3.062-1.8081,2.0411-2.7121,4.6746-2.7121,7.9018s.904,5.8607,2.7121,7.9018c1.8073,2.0411,4.189,3.062,7.1435,3.062,1.9047,0,3.606-.4574,5.1024-1.3708,1.4971-.9134,2.6537-2.1962,3.4704-3.8492Z"/><path d="M242.9087,53.5159h-2.6241c-1.9047,0-3.2655-.3889-4.0822-1.1667-.816-.7771-1.2439-1.9242-1.2828-3.4401-2.2936,3.3045-5.6176,4.9567-9.9725,4.9567-3.3045,0-5.9581-.7778-7.9603-2.3326-2.0022-1.5555-3.0029-3.6739-3.0029-6.3564,0-2.9942,1.0202-5.2878,3.0613-6.8816,2.0411-1.5938,5.0057-2.391,8.8932-2.391h8.7481v-2.0411c0-1.9437-.6515-3.4603-1.9538-4.549-1.3023-1.088-3.1197-1.6327-5.4531-1.6327-2.0599,0-3.7612.4567-5.1024,1.3708-1.3413.9134-2.1674,2.1284-2.4783,3.6443h-4.7821c.3499-2.9156,1.6428-5.1897,3.878-6.8232,2.2352-1.6327,5.1414-2.4488,8.7186-2.4488,3.8102,0,6.7546.9228,8.8347,2.7698s3.1205,4.5,3.1205,7.9603v12.8296c0,1.4387.6609,2.158,1.9827,2.158h1.4574v4.3737ZM225.4723,39.928c-4.4322,0-6.6486,1.6522-6.6486,4.9567,0,1.4776.5837,2.6638,1.7496,3.5577,1.1667.8939,2.741,1.3413,4.7236,1.3413,2.9163,0,5.2099-.7677,6.8816-2.3037,1.6717-1.5353,2.5079-3.5671,2.5079-6.0938v-1.4581h-9.2142Z"/><path d="M269.0341,23.7744v3.6154l-18.0785,21.7524h18.8368v4.3737h-25.1932v-3.6154l18.0201-21.7524h-17.2618v-4.3737h23.6766Z"/><path d="M278.5398,25.3198c2.1378-1.2641,4.5873-1.8954,7.3477-1.8954,2.7215,0,5.132.5635,7.2316,1.6912,2.0988,1.127,3.7511,2.7604,4.9567,4.8982,1.2049,2.1385,1.847,4.6464,1.9242,7.523,0,.4278-.039,1.1082-.1162,2.0411h-23.0936v.4084c.0772,2.9156.9719,5.2482,2.6825,6.9978,1.7107,1.7496,3.9459,2.6248,6.7063,2.6248,2.1385,0,3.956-.5346,5.4523-1.6039,1.4971-1.0693,2.4985-2.5563,3.0036-4.4617h4.8405c-.583,3.0324-2.0411,5.5115-4.3737,7.4357-2.3326,1.9242-5.1904,2.8867-8.5728,2.8867-2.9545,0-5.5404-.632-7.7561-1.8954-2.2164-1.2633-3.9365-3.0519-5.1609-5.365-1.2251-2.3131-1.8377-4.9668-1.8377-7.9603,0-3.0324.5931-5.6955,1.7792-7.9898,1.1854-2.2936,2.8477-4.0721,4.9863-5.3355ZM292.2151,29.7224c-1.6522-1.3997-3.7424-2.0996-6.2691-2.0996-2.2554,0-4.2381.7388-5.9487,2.2164-1.7107,1.4769-2.6825,3.4019-2.9156,5.7734h17.9616c-.233-2.5274-1.176-4.4906-2.8283-5.8903Z"/></g></g></svg>