<svg version="1.1" id="Layer_1" xmlns="http://www.w3.org/2000/svg" xmlns:xlink="http://www.w3.org/1999/xlink" x="0px" y="0px"
	 width="100%" viewBox="0 0 600 600" enable-background="new 0 0 600 600" xml:space="preserve">
<path fill="#FEFEFF" opacity="1.000000" stroke="none" 
	d="
M392.000000,601.000000 
	C261.333344,601.000000 131.166672,601.000000 1.000000,601.000000 
	C1.000000,401.000000 1.000000,201.000000 1.000000,1.000000 
	C201.000000,1.000000 401.000000,1.000000 601.000000,1.000000 
	C601.000000,201.000000 601.000000,401.000000 601.000000,601.000000 
	C531.500000,601.000000 462.000000,601.000000 392.000000,601.000000 
M528.903076,428.253601 
	C538.127380,428.253601 547.351746,428.253601 556.885986,428.253601 
	C556.747498,426.499390 556.623657,424.930176 556.458679,422.840088 
	C550.354187,422.840088 544.666565,422.840088 538.065063,422.840088 
	C543.667786,415.828583 548.791016,409.729065 553.511780,403.332550 
	C555.068481,401.223236 555.585327,398.346466 556.822083,395.198303 
	C547.586304,395.198303 539.823425,395.198303 531.867188,395.198303 
	C531.867188,397.127808 531.867188,398.832336 531.867188,401.056335 
	C536.772949,401.056335 541.305786,401.056335 546.702393,401.056335 
	C542.165283,406.716034 538.133301,411.545441 534.337952,416.554138 
	C532.022034,419.610474 530.070129,422.942688 527.900024,425.392273 
	C524.228943,416.171112 520.695007,406.890350 516.739868,397.792725 
	C516.143738,396.421539 513.607788,395.255432 511.922302,395.189423 
	C510.461731,395.132172 508.100800,396.426208 507.569763,397.713593 
	C503.537445,407.490051 499.857452,417.411835 495.317108,427.451904 
	C490.966522,421.075195 486.615967,414.698456 482.307190,408.382965 
	C486.591309,403.771759 490.346588,399.729736 494.194244,395.588287 
	C488.201447,393.681854 484.359772,395.647400 481.103241,399.945740 
	C478.680847,403.143097 475.674500,405.898010 471.951538,409.899811 
	C471.951538,404.010101 471.951538,399.626312 471.951538,395.310913 
	C469.522308,395.310913 467.618622,395.310913 465.638611,395.310913 
	C465.638611,406.518890 465.638611,417.396759 465.638611,428.239807 
	C468.049347,428.239807 470.084900,428.239807 472.353790,428.239807 
	C472.442871,422.513031 471.199005,416.590973 477.646942,413.641144 
	C477.817780,413.772217 478.169983,413.919250 478.328369,414.182800 
	C480.210754,417.314941 482.087402,420.451050 483.920319,423.612366 
	C487.294586,429.431946 489.251495,430.092834 496.406952,428.377686 
	C500.401031,429.239655 503.448029,428.766449 504.486603,423.887512 
	C504.730377,422.742310 506.818695,421.497955 508.242828,421.209351 
	C510.459686,420.760101 512.846680,421.238434 515.138977,421.049316 
	C517.623901,420.844330 519.315430,421.552094 519.847961,424.129425 
	C520.843445,428.947754 523.945496,429.454071 528.903076,428.253601 
M84.020927,358.424103 
	C95.242615,356.947662 106.595139,356.120148 117.664558,353.888428 
	C184.446228,340.424438 225.415451,299.283813 238.582947,232.868744 
	C239.799850,226.730896 240.575882,220.505646 241.549637,214.365036 
	C251.975357,214.365036 261.933929,214.365036 272.546021,214.365036 
	C264.173035,261.788940 255.856216,308.894928 247.374374,356.935486 
	C263.061279,356.935486 277.844696,356.935486 293.113770,356.935486 
	C301.553650,310.301178 310.087402,263.147888 318.667328,215.739700 
	C331.300323,215.739700 343.555969,215.739700 355.951385,215.739700 
	C357.894958,201.829025 359.795258,188.228149 361.731689,174.368469 
	C319.857635,174.368469 278.645569,174.368469 237.320816,174.368469 
	C237.206757,176.245743 237.133820,177.731140 237.023834,179.213791 
	C234.953125,207.127014 228.158524,233.746582 214.895981,258.512939 
	C185.307907,313.765442 131.963150,332.918091 77.228127,329.459412 
	C82.731842,290.396820 88.229759,251.375290 93.814995,211.734085 
	C105.967308,211.734085 117.819473,211.118378 129.582458,211.880051 
	C146.728104,212.990265 161.252365,224.941452 165.382568,240.089844 
	C171.995911,264.345734 159.174774,293.907532 136.796997,305.102905 
	C129.931839,308.537476 122.539299,310.917847 115.234634,313.842468 
	C115.554077,314.095612 115.907387,314.584015 116.337593,314.665283 
	C116.911201,314.773590 117.554893,314.613525 118.150810,314.486115 
	C134.193375,311.056671 149.557999,305.710663 164.088913,298.067017 
	C176.123123,291.736725 187.174957,284.080933 196.080521,273.651001 
	C219.538086,246.178131 213.447876,205.610886 182.849579,186.355850 
	C168.377792,177.248962 152.281921,173.271820 135.334442,172.954941 
	C112.173096,172.521912 89.004837,172.457642 65.839500,172.239349 
	C64.026833,172.222260 62.213871,172.237106 60.026237,172.237106 
	C50.367119,233.684128 40.753551,294.841400 31.078508,356.389740 
	C48.538437,359.074554 65.780128,359.507263 84.020927,358.424103 
M452.535828,194.882126 
	C451.004578,187.284790 449.473358,179.687454 447.955078,172.154404 
	C432.044281,172.154404 416.732117,172.154404 401.108490,172.154404 
	C380.640900,233.158066 360.181519,294.137268 339.539581,355.660522 
	C354.217621,355.660522 368.031982,355.486633 381.836853,355.772491 
	C385.693634,355.852356 386.936646,354.336365 387.909546,351.015442 
	C392.496216,335.359436 397.301880,319.767548 402.041687,304.156494 
	C407.404602,286.493011 412.780609,268.833496 418.150940,251.172256 
	C418.662811,251.103836 419.174683,251.035400 419.686554,250.966980 
	C427.611115,284.991425 435.535645,319.015869 443.480927,353.129303 
	C448.184784,353.129303 452.363068,352.867554 456.492157,353.206116 
	C460.296234,353.517944 462.378845,352.205475 464.351624,348.838348 
	C482.453674,317.942505 500.774658,287.174957 519.043457,256.376923 
	C519.925415,254.890152 520.915649,253.467636 522.640015,250.802567 
	C521.577515,286.512421 520.561340,320.665405 519.547974,354.722351 
	C535.534241,354.722351 550.780273,354.722351 566.357666,354.722351 
	C567.893372,294.023102 569.421143,233.635101 570.978882,172.062592 
	C556.406799,172.062592 542.438477,172.197861 528.476074,171.972580 
	C524.733032,171.912201 522.638062,172.853455 520.680908,176.308929 
	C504.101532,205.581238 487.262085,234.706299 470.494476,263.871979 
	C469.614227,265.403076 468.678070,266.902039 467.236206,269.300476 
	C462.256989,244.032379 457.496155,219.872635 452.535828,194.882126 
M370.927673,424.652802 
	C371.268982,427.203796 372.102081,428.750763 375.295349,428.778320 
	C378.721100,428.807922 378.915009,426.708038 379.489990,424.427673 
	C381.004303,418.421967 382.586182,412.433289 384.141144,406.437866 
	C384.528442,406.502472 384.915771,406.567108 385.303101,406.631744 
	C385.303101,413.875336 385.303101,421.118896 385.303101,428.370728 
	C387.550842,428.370728 389.310547,428.370728 391.310944,428.370728 
	C391.310944,417.190491 391.310944,406.289093 391.310944,395.305725 
	C387.771362,395.305725 384.534058,395.305725 381.256134,395.305725 
	C379.397308,402.333313 377.614471,409.073547 375.757202,416.095184 
	C375.304993,415.572205 374.997681,415.371460 374.920471,415.104187 
	C373.766876,411.109924 372.620422,407.113251 371.518005,403.104584 
	C369.189850,394.638733 369.200623,394.631866 360.310516,395.123901 
	C360.025177,395.139709 359.753967,395.411346 359.357086,395.628998 
	C359.357086,406.467865 359.357086,417.352783 359.357086,428.340271 
	C361.418640,428.340271 363.154419,428.340271 365.462036,428.340271 
	C365.462036,421.686768 365.462036,415.326813 365.462036,408.966827 
	C365.890289,408.904724 366.318573,408.842621 366.746826,408.780487 
	C368.082367,413.808655 369.417908,418.836792 370.927673,424.652802 
M437.659637,394.996552 
	C435.842926,394.996552 434.026184,394.996552 432.039124,394.996552 
	C432.039124,406.348785 432.039124,417.378082 432.039124,428.467346 
	C434.148682,428.467346 435.872803,428.467346 437.989746,428.467346 
	C437.989746,423.844238 437.989746,419.565247 437.989746,415.317871 
	C441.891541,414.365936 444.512482,415.530914 446.412811,418.577606 
	C447.645752,420.554260 449.248535,422.343353 450.215698,424.433868 
	C452.463715,429.292816 456.127167,429.232361 461.021698,428.037140 
	C457.605927,422.991211 454.506714,418.412964 451.404297,413.829987 
	C457.488678,410.757965 459.629120,407.220184 458.592529,402.135803 
	C457.570374,397.122192 454.635559,395.194031 447.611603,395.023773 
	C444.615631,394.951141 441.616638,395.001862 437.659637,394.996552 
M32.327347,423.293304 
	C32.327347,425.059326 32.327347,426.825378 32.327347,429.354462 
	C41.611237,427.525085 52.041504,432.686981 57.843727,422.216003 
	C61.767509,415.135010 61.878338,407.304260 57.147820,400.439758 
	C50.819767,391.257080 41.126133,396.383209 32.327465,394.697571 
	C32.327465,404.468689 32.327465,413.404907 32.327347,423.293304 
M300.184631,423.238983 
	C297.668640,422.312775 293.839264,422.083099 292.903656,420.318817 
	C290.803680,416.358917 288.434692,416.846039 285.304535,417.822601 
	C286.717163,427.517334 292.808563,431.683838 302.360443,429.712036 
	C308.155518,428.515747 311.752625,424.798462 311.984283,419.766632 
	C312.218597,414.677643 309.578796,411.227051 303.779388,409.303375 
	C300.937988,408.360840 297.933899,407.868500 295.159241,406.776520 
	C292.511536,405.734436 291.087494,403.103058 294.155945,401.770081 
	C296.548615,400.730621 301.427338,400.885254 302.582031,402.446442 
	C305.161896,405.934570 307.673340,405.138672 310.702820,404.647766 
	C309.820404,396.521393 302.656128,392.698517 293.282532,395.242401 
	C288.994965,396.405975 286.328949,399.149139 286.017731,403.708771 
	C285.718323,408.094940 287.964966,411.094482 291.877533,412.645233 
	C294.644348,413.741852 297.730103,414.043243 300.477997,415.174530 
	C302.141022,415.859131 303.430908,417.450226 304.888428,418.634003 
	C303.591766,420.119659 302.295105,421.605316 300.184631,423.238983 
M280.966736,424.516052 
	C279.611328,423.980530 278.272217,423.038269 276.897583,422.983185 
	C272.131073,422.792175 267.352234,422.909454 262.401703,422.909454 
	C262.401703,419.660706 262.401703,417.031525 262.401703,413.824280 
	C267.968506,413.824280 273.386200,413.824280 279.124542,413.824280 
	C279.010498,411.641022 278.927490,410.051971 278.822754,408.047241 
	C273.210327,408.047241 267.931946,408.047241 262.439453,408.047241 
	C262.439453,405.518738 262.439453,403.425323 262.439453,400.735077 
	C268.330475,400.735077 274.084106,400.735077 280.158661,400.735077 
	C280.056030,398.538666 279.981995,396.953827 279.903687,395.277893 
	C271.640045,395.277893 263.740234,395.277893 255.720734,395.277893 
	C255.720734,406.478241 255.720734,417.371002 255.720734,428.657623 
	C263.540375,428.657623 271.013824,428.764069 278.475403,428.514832 
	C279.348358,428.485657 280.155792,426.494568 280.966736,424.516052 
M178.955994,411.434875 
	C177.134537,406.797791 175.459167,402.093872 173.390335,397.569885 
	C172.863617,396.418091 171.119431,395.208832 169.878418,395.146576 
	C168.161148,395.060425 165.271713,395.559265 164.816589,396.629456 
	C160.421509,406.963531 156.431839,417.470062 152.252792,428.114441 
	C156.668259,429.184814 160.085953,429.356018 160.954422,424.238525 
	C161.409546,421.556732 163.061630,420.821991 165.591629,421.052826 
	C167.569702,421.233307 169.595276,421.256195 171.567749,421.047150 
	C174.281784,420.759583 176.097092,421.534424 176.678421,424.373901 
	C177.713898,429.431610 181.126740,429.072266 185.433273,428.117676 
	C183.275650,422.590149 181.241028,417.377716 178.955994,411.434875 
M395.103882,426.734924 
	C397.431793,429.806152 401.613800,429.576660 402.534760,425.991119 
	C403.636932,421.700073 406.031677,420.527802 410.015472,421.057312 
	C411.485748,421.252747 413.135345,420.716156 414.466034,421.185577 
	C416.060364,421.747986 418.333405,422.770264 418.687531,424.044830 
	C420.093719,429.105865 423.264893,429.231445 427.793243,428.126343 
	C423.868164,418.115387 419.963684,408.450012 416.324188,398.685852 
	C415.304749,395.950806 414.002625,394.882965 410.978729,394.865479 
	C408.005371,394.848267 406.981781,396.169678 406.062805,398.598694 
	C402.595581,407.763397 398.958649,416.863922 395.103882,426.734924 
M87.643051,407.734863 
	C86.464172,404.812744 85.183670,401.926453 84.137543,398.957550 
	C83.250885,396.441193 82.278534,394.854095 78.996399,394.836060 
	C75.645714,394.817719 74.809029,396.551086 73.914261,399.020996 
	C72.502785,402.917328 70.889580,406.740173 69.389305,410.604828 
	C67.137260,416.405975 64.909004,422.216339 62.638634,428.105835 
	C67.211273,429.253204 70.322517,429.093842 71.464058,424.071869 
	C71.746475,422.829376 74.038742,421.555695 75.608009,421.210968 
	C77.824951,420.724060 80.310577,420.719727 82.524933,421.212250 
	C84.100822,421.562805 86.339020,422.820862 86.690346,424.108185 
	C88.089287,429.234039 91.318008,429.140991 95.720833,428.124969 
	C93.032173,421.334961 90.480553,414.891022 87.643051,407.734863 
M114.802681,400.100769 
	C112.763245,406.123749 110.723801,412.146759 108.208717,419.574463 
	C105.617203,412.160797 103.119484,406.215393 101.509178,400.038605 
	C100.160263,394.864410 97.363022,394.168030 92.549133,395.542328 
	C96.348511,406.093750 99.970200,416.406708 103.878334,426.609924 
	C104.268372,427.628235 106.402977,428.507751 107.723564,428.501709 
	C109.258171,428.494690 111.765808,427.819092 112.168510,426.780975 
	C116.172195,416.459900 119.827858,406.003815 123.654739,395.383606 
	C119.431480,394.660217 115.788033,394.014343 114.802681,400.100769 
M228.034454,400.776337 
	C230.128082,400.776337 232.221710,400.776337 234.728516,400.776337 
	C234.728516,410.393219 234.728516,419.303131 234.728516,428.343323 
	C237.058136,428.343323 238.964203,428.343323 241.264069,428.343323 
	C241.264069,419.162842 241.264069,410.256622 241.264069,401.003967 
	C244.705933,400.847260 247.780670,400.707275 250.884460,400.565948 
	C250.884460,398.573975 250.884460,396.993378 250.884460,395.324493 
	C242.079681,395.324493 233.561462,395.324493 225.043243,395.324493 
	C224.658539,395.689514 224.273834,396.054504 223.889130,396.419525 
	C224.980453,397.870819 226.071762,399.322113 228.034454,400.776337 
M332.102539,403.731415 
	C333.027435,402.757538 333.826385,401.157837 334.903595,400.941162 
	C337.089508,400.501343 339.425934,400.809753 342.050171,400.809753 
	C341.948151,398.557892 341.876495,396.975952 341.799927,395.286011 
	C332.890045,395.286011 324.338654,395.286011 315.642822,395.286011 
	C315.642822,397.169464 315.642822,398.742249 315.642822,400.942291 
	C318.955414,400.942291 322.000671,400.942291 325.480042,400.942291 
	C325.480042,410.469879 325.480042,419.374542 325.480042,428.350281 
	C327.858917,428.350281 329.769440,428.350281 332.100983,428.350281 
	C332.100983,420.262878 332.100983,412.478394 332.102539,403.731415 
M191.385849,400.838562 
	C191.928146,402.347260 192.906906,403.846680 192.939072,405.366180 
	C193.099976,412.966919 193.012726,420.572968 193.012726,428.218414 
	C195.643387,428.218414 197.666199,428.218414 200.135834,428.218414 
	C200.135834,418.858643 200.135834,409.935272 200.135834,400.604492 
	C203.524231,400.604492 206.458023,400.604492 209.522232,400.604492 
	C209.522232,398.601410 209.522232,397.026703 209.522232,395.257202 
	C200.669464,395.257202 192.099503,395.257202 183.340454,395.257202 
	C183.340454,397.113373 183.340454,398.689514 183.340454,400.809113 
	C185.874710,400.809113 188.162933,400.809113 191.385849,400.838562 
M133.998444,402.600372 
	C133.998444,400.191284 133.998444,397.782227 133.998444,395.524658 
	C131.277145,395.524658 129.373138,395.524658 127.344337,395.524658 
	C127.344337,406.614227 127.344337,417.333923 127.344337,428.285828 
	C135.255463,428.285828 142.925537,428.285828 150.945480,428.285828 
	C150.814178,426.320068 150.709976,424.760193 150.579071,422.800323 
	C144.930984,422.800323 139.685318,422.800323 133.998444,422.800323 
	C133.998444,416.106567 133.998444,409.839783 133.998444,402.600372 
M560.768127,421.394531 
	C560.768127,423.658325 560.768127,425.922089 560.768127,428.269043 
	C563.267151,428.269043 565.145569,428.269043 567.135376,428.269043 
	C567.135376,417.068848 567.135376,406.204468 567.135376,395.327515 
	C564.942322,395.327515 563.041687,395.327515 560.768066,395.327515 
	C560.768066,403.895508 560.768066,412.159973 560.768127,421.394531 
z"/>
<path fill="#191997" opacity="1.000000" stroke="none" 
	d="
M83.555573,358.463806 
	C65.780128,359.507263 48.538437,359.074554 31.078508,356.389740 
	C40.753551,294.841400 50.367119,233.684128 60.026237,172.237106 
	C62.213871,172.237106 64.026833,172.222260 65.839500,172.239349 
	C89.004837,172.457642 112.173096,172.521912 135.334442,172.954941 
	C152.281921,173.271820 168.377792,177.248962 182.849579,186.355850 
	C213.447876,205.610886 219.538086,246.178131 196.080521,273.651001 
	C187.174957,284.080933 176.123123,291.736725 164.088913,298.067017 
	C149.557999,305.710663 134.193375,311.056671 118.150810,314.486115 
	C117.554893,314.613525 116.911201,314.773590 116.337593,314.665283 
	C115.907387,314.584015 115.554077,314.095612 115.234634,313.842468 
	C122.539299,310.917847 129.931839,308.537476 136.796997,305.102905 
	C159.174774,293.907532 171.995911,264.345734 165.382568,240.089844 
	C161.252365,224.941452 146.728104,212.990265 129.582458,211.880051 
	C117.819473,211.118378 105.967308,211.734085 93.814995,211.734085 
	C88.229759,251.375290 82.731842,290.396820 77.228127,329.459412 
	C131.963150,332.918091 185.307907,313.765442 214.895981,258.512939 
	C228.158524,233.746582 234.953125,207.127014 237.023834,179.213791 
	C237.133820,177.731140 237.206757,176.245743 237.320816,174.368469 
	C278.645569,174.368469 319.857635,174.368469 361.731689,174.368469 
	C359.795258,188.228149 357.894958,201.829025 355.951385,215.739700 
	C343.555969,215.739700 331.300323,215.739700 318.667328,215.739700 
	C310.087402,263.147888 301.553650,310.301178 293.113770,356.935486 
	C277.844696,356.935486 263.061279,356.935486 247.374374,356.935486 
	C255.856216,308.894928 264.173035,261.788940 272.546021,214.365036 
	C261.933929,214.365036 251.975357,214.365036 241.549637,214.365036 
	C240.575882,220.505646 239.799850,226.730896 238.582947,232.868744 
	C225.415451,299.283813 184.446228,340.424438 117.664558,353.888428 
	C106.595139,356.120148 95.242615,356.947662 83.555573,358.463806 
z"/>
<path fill="#191997" opacity="1.000000" stroke="none" 
	d="
M452.635590,195.297516 
	C457.496155,219.872635 462.256989,244.032379 467.236206,269.300476 
	C468.678070,266.902039 469.614227,265.403076 470.494476,263.871979 
	C487.262085,234.706299 504.101532,205.581238 520.680908,176.308929 
	C522.638062,172.853455 524.733032,171.912201 528.476074,171.972580 
	C542.438477,172.197861 556.406799,172.062592 570.978882,172.062592 
	C569.421143,233.635101 567.893372,294.023102 566.357666,354.722351 
	C550.780273,354.722351 535.534241,354.722351 519.547974,354.722351 
	C520.561340,320.665405 521.577515,286.512421 522.640015,250.802567 
	C520.915649,253.467636 519.925415,254.890152 519.043457,256.376923 
	C500.774658,287.174957 482.453674,317.942505 464.351624,348.838348 
	C462.378845,352.205475 460.296234,353.517944 456.492157,353.206116 
	C452.363068,352.867554 448.184784,353.129303 443.480927,353.129303 
	C435.535645,319.015869 427.611115,284.991425 419.686554,250.966980 
	C419.174683,251.035400 418.662811,251.103836 418.150940,251.172256 
	C412.780609,268.833496 407.404602,286.493011 402.041687,304.156494 
	C397.301880,319.767548 392.496216,335.359436 387.909546,351.015442 
	C386.936646,354.336365 385.693634,355.852356 381.836853,355.772491 
	C368.031982,355.486633 354.217621,355.660522 339.539581,355.660522 
	C360.181519,294.137268 380.640900,233.158066 401.108490,172.154404 
	C416.732117,172.154404 432.044281,172.154404 447.955078,172.154404 
	C449.473358,179.687454 451.004578,187.284790 452.635590,195.297516 
z"/>
<path fill="#27279D" opacity="1.000000" stroke="none" 
	d="
M370.840576,424.258850 
	C369.417908,418.836792 368.082367,413.808655 366.746826,408.780487 
	C366.318573,408.842621 365.890289,408.904724 365.462036,408.966827 
	C365.462036,415.326813 365.462036,421.686768 365.462036,428.340271 
	C363.154419,428.340271 361.418640,428.340271 359.357086,428.340271 
	C359.357086,417.352783 359.357086,406.467865 359.357086,395.628998 
	C359.753967,395.411346 360.025177,395.139709 360.310516,395.123901 
	C369.200623,394.631866 369.189850,394.638733 371.518005,403.104584 
	C372.620422,407.113251 373.766876,411.109924 374.920471,415.104187 
	C374.997681,415.371460 375.304993,415.572205 375.757202,416.095184 
	C377.614471,409.073547 379.397308,402.333313 381.256134,395.305725 
	C384.534058,395.305725 387.771362,395.305725 391.310944,395.305725 
	C391.310944,406.289093 391.310944,417.190491 391.310944,428.370728 
	C389.310547,428.370728 387.550842,428.370728 385.303101,428.370728 
	C385.303101,421.118896 385.303101,413.875336 385.303101,406.631744 
	C384.915771,406.567108 384.528442,406.502472 384.141144,406.437866 
	C382.586182,412.433289 381.004303,418.421967 379.489990,424.427673 
	C378.915009,426.708038 378.721100,428.807922 375.295349,428.778320 
	C372.102081,428.750763 371.268982,427.203796 370.840576,424.258850 
z"/>
<path fill="#23239B" opacity="1.000000" stroke="none" 
	d="
M438.139343,394.996552 
	C441.616638,395.001862 444.615631,394.951141 447.611603,395.023773 
	C454.635559,395.194031 457.570374,397.122192 458.592529,402.135803 
	C459.629120,407.220184 457.488678,410.757965 451.404297,413.829987 
	C454.506714,418.412964 457.605927,422.991211 461.021698,428.037140 
	C456.127167,429.232361 452.463715,429.292816 450.215698,424.433868 
	C449.248535,422.343353 447.645752,420.554260 446.412811,418.577606 
	C444.512482,415.530914 441.891541,414.365936 437.989746,415.317871 
	C437.989746,419.565247 437.989746,423.844238 437.989746,428.467346 
	C435.872803,428.467346 434.148682,428.467346 432.039124,428.467346 
	C432.039124,417.378082 432.039124,406.348785 432.039124,394.996552 
	C434.026184,394.996552 435.842926,394.996552 438.139343,394.996552 
M438.940247,405.498657 
	C439.260284,406.675720 439.602783,408.879852 439.896973,408.873413 
	C443.449921,408.795746 447.050568,408.641144 450.501526,407.882324 
	C451.281860,407.710724 452.081085,405.050232 451.854797,403.706696 
	C451.680115,402.669403 450.019043,401.355499 448.834290,401.128815 
	C446.609009,400.703003 444.236053,401.128967 441.950775,400.917267 
	C438.971130,400.641235 438.751709,402.368652 438.940247,405.498657 
z"/>
<path fill="#27279D" opacity="1.000000" stroke="none" 
	d="
M32.327408,422.817200 
	C32.327465,413.404907 32.327465,404.468689 32.327465,394.697571 
	C41.126133,396.383209 50.819767,391.257080 57.147820,400.439758 
	C61.878338,407.304260 61.767509,415.135010 57.843727,422.216003 
	C52.041504,432.686981 41.611237,427.525085 32.327347,429.354462 
	C32.327347,426.825378 32.327347,425.059326 32.327408,422.817200 
M48.457516,422.409515 
	C52.979931,419.451508 54.740803,412.157776 52.415398,406.015411 
	C50.657936,401.373230 48.068451,400.436646 39.341164,401.326538 
	C39.341164,408.475708 39.341164,415.627441 39.341164,422.700317 
	C42.388577,422.700317 45.028919,422.700317 48.457516,422.409515 
z"/>
<path fill="#27279D" opacity="1.000000" stroke="none" 
	d="
M496.018097,427.622498 
	C489.251495,430.092834 487.294586,429.431946 483.920319,423.612366 
	C482.087402,420.451050 480.210754,417.314941 478.328369,414.182800 
	C478.169983,413.919250 477.817780,413.772217 477.646942,413.641144 
	C471.199005,416.590973 472.442871,422.513031 472.353790,428.239807 
	C470.084900,428.239807 468.049347,428.239807 465.638611,428.239807 
	C465.638611,417.396759 465.638611,406.518890 465.638611,395.310913 
	C467.618622,395.310913 469.522308,395.310913 471.951538,395.310913 
	C471.951538,399.626312 471.951538,404.010101 471.951538,409.899811 
	C475.674500,405.898010 478.680847,403.143097 481.103241,399.945740 
	C484.359772,395.647400 488.201447,393.681854 494.194244,395.588287 
	C490.346588,399.729736 486.591309,403.771759 482.307190,408.382965 
	C486.615967,414.698456 490.966522,421.075195 495.689240,427.427185 
	C496.061371,427.402435 496.018097,427.622498 496.018097,427.622498 
z"/>
<path fill="#23239B" opacity="1.000000" stroke="none" 
	d="
M300.591553,423.164978 
	C302.295105,421.605316 303.591766,420.119659 304.888428,418.634033 
	C303.430908,417.450226 302.141022,415.859131 300.477997,415.174530 
	C297.730103,414.043243 294.644348,413.741852 291.877533,412.645233 
	C287.964966,411.094482 285.718323,408.094940 286.017731,403.708771 
	C286.328949,399.149139 288.994965,396.405975 293.282532,395.242401 
	C302.656128,392.698517 309.820404,396.521393 310.702820,404.647766 
	C307.673340,405.138672 305.161896,405.934570 302.582031,402.446442 
	C301.427338,400.885254 296.548615,400.730621 294.155945,401.770081 
	C291.087494,403.103058 292.511536,405.734436 295.159241,406.776520 
	C297.933899,407.868500 300.937988,408.360840 303.779388,409.303375 
	C309.578796,411.227051 312.218597,414.677643 311.984283,419.766632 
	C311.752625,424.798462 308.155518,428.515747 302.360443,429.712036 
	C292.808563,431.683838 286.717163,427.517334 285.304535,417.822601 
	C288.434692,416.846039 290.803680,416.358917 292.903656,420.318817 
	C293.839264,422.083099 297.668640,422.312775 300.591553,423.164978 
z"/>
<path fill="#2B2B9F" opacity="1.000000" stroke="none" 
	d="
M280.980164,424.964539 
	C280.155792,426.494568 279.348358,428.485657 278.475403,428.514832 
	C271.013824,428.764069 263.540375,428.657623 255.720734,428.657623 
	C255.720734,417.371002 255.720734,406.478241 255.720734,395.277893 
	C263.740234,395.277893 271.640045,395.277893 279.903687,395.277893 
	C279.981995,396.953827 280.056030,398.538666 280.158661,400.735077 
	C274.084106,400.735077 268.330475,400.735077 262.439453,400.735077 
	C262.439453,403.425323 262.439453,405.518738 262.439453,408.047241 
	C267.931946,408.047241 273.210327,408.047241 278.822754,408.047241 
	C278.927490,410.051971 279.010498,411.641022 279.124542,413.824280 
	C273.386200,413.824280 267.968506,413.824280 262.401703,413.824280 
	C262.401703,417.031525 262.401703,419.660706 262.401703,422.909454 
	C267.352234,422.909454 272.131073,422.792175 276.897583,422.983185 
	C278.272217,423.038269 279.611328,423.980530 280.980164,424.964539 
z"/>
<path fill="#24249C" opacity="1.000000" stroke="none" 
	d="
M179.081192,411.800110 
	C181.241028,417.377716 183.275650,422.590149 185.433273,428.117676 
	C181.126740,429.072266 177.713898,429.431610 176.678421,424.373901 
	C176.097092,421.534424 174.281784,420.759583 171.567749,421.047150 
	C169.595276,421.256195 167.569702,421.233307 165.591629,421.052826 
	C163.061630,420.821991 161.409546,421.556732 160.954422,424.238525 
	C160.085953,429.356018 156.668259,429.184814 152.252792,428.114441 
	C156.431839,417.470062 160.421509,406.963531 164.816589,396.629456 
	C165.271713,395.559265 168.161148,395.060425 169.878418,395.146576 
	C171.119431,395.208832 172.863617,396.418091 173.390335,397.569885 
	C175.459167,402.093872 177.134537,406.797791 179.081192,411.800110 
M169.869476,405.805145 
	C169.443344,405.251923 169.017197,404.698730 168.285400,403.748688 
	C166.916290,407.717896 165.728287,411.162079 164.482971,414.772400 
	C167.715332,414.772400 170.207565,414.772400 173.120270,414.772400 
	C172.001297,411.717102 171.049881,409.119324 169.869476,405.805145 
z"/>
<path fill="#24249C" opacity="1.000000" stroke="none" 
	d="
M395.244568,426.361694 
	C398.958649,416.863922 402.595581,407.763397 406.062805,398.598694 
	C406.981781,396.169678 408.005371,394.848267 410.978729,394.865479 
	C414.002625,394.882965 415.304749,395.950806 416.324188,398.685852 
	C419.963684,408.450012 423.868164,418.115387 427.793243,428.126343 
	C423.264893,429.231445 420.093719,429.105865 418.687531,424.044830 
	C418.333405,422.770264 416.060364,421.747986 414.466034,421.185577 
	C413.135345,420.716156 411.485748,421.252747 410.015472,421.057312 
	C406.031677,420.527802 403.636932,421.700073 402.534760,425.991119 
	C401.613800,429.576660 397.431793,429.806152 395.244568,426.361694 
M414.860077,414.722626 
	C413.821991,411.201569 412.783875,407.680511 411.745789,404.159454 
	C411.335693,404.163208 410.925598,404.166962 410.515503,404.170715 
	C409.273468,407.632599 408.031433,411.094482 406.603973,415.073181 
	C409.490875,415.073181 411.782166,415.073181 414.860077,414.722626 
z"/>
<path fill="#23239B" opacity="1.000000" stroke="none" 
	d="
M87.785995,408.091003 
	C90.480553,414.891022 93.032173,421.334961 95.720833,428.124969 
	C91.318008,429.140991 88.089287,429.234039 86.690346,424.108185 
	C86.339020,422.820862 84.100822,421.562805 82.524933,421.212250 
	C80.310577,420.719727 77.824951,420.724060 75.608009,421.210968 
	C74.038742,421.555695 71.746475,422.829376 71.464058,424.071869 
	C70.322517,429.093842 67.211273,429.253204 62.638634,428.105835 
	C64.909004,422.216339 67.137260,416.405975 69.389305,410.604828 
	C70.889580,406.740173 72.502785,402.917328 73.914261,399.020996 
	C74.809029,396.551086 75.645714,394.817719 78.996399,394.836060 
	C82.278534,394.854095 83.250885,396.441193 84.137543,398.957550 
	C85.183670,401.926453 86.464172,404.812744 87.785995,408.091003 
M76.661316,415.129883 
	C78.697166,415.129883 80.733025,415.129883 83.384476,415.129883 
	C81.682716,410.810059 80.350121,407.427338 79.017525,404.044617 
	C78.526169,404.080292 78.034821,404.115936 77.543465,404.151611 
	C76.955429,407.791901 76.367386,411.432190 76.661316,415.129883 
z"/>
<path fill="#24249C" opacity="1.000000" stroke="none" 
	d="
M496.212524,428.000092 
	C496.018097,427.622498 496.061371,427.402435 496.064514,427.345398 
	C499.857452,417.411835 503.537445,407.490051 507.569763,397.713593 
	C508.100800,396.426208 510.461731,395.132172 511.922302,395.189423 
	C513.607788,395.255432 516.143738,396.421539 516.739868,397.792725 
	C520.695007,406.890350 524.228943,416.171112 527.934204,426.021301 
	C527.965515,427.149475 527.962585,427.648621 527.959595,428.147766 
	C523.945496,429.454071 520.843445,428.947754 519.847961,424.129425 
	C519.315430,421.552094 517.623901,420.844330 515.138977,421.049316 
	C512.846680,421.238434 510.459686,420.760101 508.242828,421.209351 
	C506.818695,421.497955 504.730377,422.742310 504.486603,423.887512 
	C503.448029,428.766449 500.401031,429.239655 496.212524,428.000092 
M512.434814,415.130280 
	C513.567078,415.050140 514.699341,414.970032 516.345581,414.853546 
	C515.002319,411.101410 513.766968,407.650757 511.998444,402.710571 
	C510.228973,407.652313 508.993164,411.103638 507.649902,414.855042 
	C509.299255,414.970947 510.432861,415.050629 512.434814,415.130280 
z"/>
<path fill="#27279D" opacity="1.000000" stroke="none" 
	d="
M528.431396,428.200684 
	C527.962585,427.648621 527.965515,427.149475 527.961609,426.400635 
	C530.070129,422.942688 532.022034,419.610474 534.337952,416.554138 
	C538.133301,411.545441 542.165283,406.716034 546.702393,401.056335 
	C541.305786,401.056335 536.772949,401.056335 531.867188,401.056335 
	C531.867188,398.832336 531.867188,397.127808 531.867188,395.198303 
	C539.823425,395.198303 547.586304,395.198303 556.822083,395.198303 
	C555.585327,398.346466 555.068481,401.223236 553.511780,403.332550 
	C548.791016,409.729065 543.667786,415.828583 538.065063,422.840088 
	C544.666565,422.840088 550.354187,422.840088 556.458679,422.840088 
	C556.623657,424.930176 556.747498,426.499390 556.885986,428.253601 
	C547.351746,428.253601 538.127380,428.253601 528.431396,428.200684 
z"/>
<path fill="#24249C" opacity="1.000000" stroke="none" 
	d="
M114.910156,399.719116 
	C115.788033,394.014343 119.431480,394.660217 123.654739,395.383606 
	C119.827858,406.003815 116.172195,416.459900 112.168510,426.780975 
	C111.765808,427.819092 109.258171,428.494690 107.723564,428.501709 
	C106.402977,428.507751 104.268372,427.628235 103.878334,426.609924 
	C99.970200,416.406708 96.348511,406.093750 92.549133,395.542328 
	C97.363022,394.168030 100.160263,394.864410 101.509178,400.038605 
	C103.119484,406.215393 105.617203,412.160797 108.208717,419.574463 
	C110.723801,412.146759 112.763245,406.123749 114.910156,399.719116 
z"/>
<path fill="#21219A" opacity="1.000000" stroke="none" 
	d="
M227.598770,400.774872 
	C226.071762,399.322113 224.980453,397.870819 223.889130,396.419525 
	C224.273834,396.054504 224.658539,395.689514 225.043243,395.324493 
	C233.561462,395.324493 242.079681,395.324493 250.884460,395.324493 
	C250.884460,396.993378 250.884460,398.573975 250.884460,400.565948 
	C247.780670,400.707275 244.705933,400.847260 241.264069,401.003967 
	C241.264069,410.256622 241.264069,419.162842 241.264069,428.343323 
	C238.964203,428.343323 237.058136,428.343323 234.728516,428.343323 
	C234.728516,419.303131 234.728516,410.393219 234.728516,400.776337 
	C232.221710,400.776337 230.128082,400.776337 227.598770,400.774872 
z"/>
<path fill="#2A2A9E" opacity="1.000000" stroke="none" 
	d="
M332.101746,404.212646 
	C332.100983,412.478394 332.100983,420.262878 332.100983,428.350281 
	C329.769440,428.350281 327.858917,428.350281 325.480042,428.350281 
	C325.480042,419.374542 325.480042,410.469879 325.480042,400.942291 
	C322.000671,400.942291 318.955414,400.942291 315.642822,400.942291 
	C315.642822,398.742249 315.642822,397.169464 315.642822,395.286011 
	C324.338654,395.286011 332.890045,395.286011 341.799927,395.286011 
	C341.876495,396.975952 341.948151,398.557892 342.050171,400.809753 
	C339.425934,400.809753 337.089508,400.501343 334.903595,400.941162 
	C333.826385,401.157837 333.027435,402.757538 332.101746,404.212646 
z"/>
<path fill="#29299E" opacity="1.000000" stroke="none" 
	d="
M190.918518,400.823853 
	C188.162933,400.809113 185.874710,400.809113 183.340454,400.809113 
	C183.340454,398.689514 183.340454,397.113373 183.340454,395.257202 
	C192.099503,395.257202 200.669464,395.257202 209.522232,395.257202 
	C209.522232,397.026703 209.522232,398.601410 209.522232,400.604492 
	C206.458023,400.604492 203.524231,400.604492 200.135834,400.604492 
	C200.135834,409.935272 200.135834,418.858643 200.135834,428.218414 
	C197.666199,428.218414 195.643387,428.218414 193.012726,428.218414 
	C193.012726,420.572968 193.099976,412.966919 192.939072,405.366180 
	C192.906906,403.846680 191.928146,402.347260 190.918518,400.823853 
z"/>
<path fill="#2B2B9F" opacity="1.000000" stroke="none" 
	d="
M133.998444,403.086670 
	C133.998444,409.839783 133.998444,416.106567 133.998444,422.800323 
	C139.685318,422.800323 144.930984,422.800323 150.579071,422.800323 
	C150.709976,424.760193 150.814178,426.320068 150.945480,428.285828 
	C142.925537,428.285828 135.255463,428.285828 127.344337,428.285828 
	C127.344337,417.333923 127.344337,406.614227 127.344337,395.524658 
	C129.373138,395.524658 131.277145,395.524658 133.998444,395.524658 
	C133.998444,397.782227 133.998444,400.191284 133.998444,403.086670 
z"/>
<path fill="#1C1C98" opacity="1.000000" stroke="none" 
	d="
M560.768066,420.909485 
	C560.768066,412.159973 560.768066,403.895508 560.768066,395.327515 
	C563.041687,395.327515 564.942322,395.327515 567.135376,395.327515 
	C567.135376,406.204468 567.135376,417.068848 567.135376,428.269043 
	C565.145569,428.269043 563.267151,428.269043 560.768127,428.269043 
	C560.768127,425.922089 560.768127,423.658325 560.768066,420.909485 
z"/>
<path fill="#F6F6FB" opacity="1.000000" stroke="none" 
	d="
M438.940216,405.031219 
	C438.751709,402.368652 438.971130,400.641235 441.950775,400.917267 
	C444.236053,401.128967 446.609009,400.703003 448.834290,401.128815 
	C450.019043,401.355499 451.680115,402.669403 451.854797,403.706696 
	C452.081085,405.050232 451.281860,407.710724 450.501526,407.882324 
	C447.050568,408.641144 443.449921,408.795746 439.896973,408.873413 
	C439.602783,408.879852 439.260284,406.675720 438.940216,405.031219 
z"/>
<path fill="#FAFAFD" opacity="1.000000" stroke="none" 
	d="
M48.063385,422.554932 
	C45.028919,422.700317 42.388577,422.700317 39.341164,422.700317 
	C39.341164,415.627441 39.341164,408.475708 39.341164,401.326538 
	C48.068451,400.436646 50.657936,401.373230 52.415398,406.015411 
	C54.740803,412.157776 52.979931,419.451508 48.063385,422.554932 
z"/>
<path fill="#EBEBF6" opacity="1.000000" stroke="none" 
	d="
M169.983978,406.163330 
	C171.049881,409.119324 172.001297,411.717102 173.120270,414.772400 
	C170.207565,414.772400 167.715332,414.772400 164.482971,414.772400 
	C165.728287,411.162079 166.916290,407.717896 168.285400,403.748688 
	C169.017197,404.698730 169.443344,405.251923 169.983978,406.163330 
z"/>
<path fill="#EBEBF6" opacity="1.000000" stroke="none" 
	d="
M414.466766,414.897888 
	C411.782166,415.073181 409.490875,415.073181 406.603973,415.073181 
	C408.031433,411.094482 409.273468,407.632599 410.515503,404.170715 
	C410.925598,404.166962 411.335693,404.163208 411.745789,404.159454 
	C412.783875,407.680511 413.821991,411.201569 414.466766,414.897888 
z"/>
<path fill="#EBEBF6" opacity="1.000000" stroke="none" 
	d="
M76.220329,415.101196 
	C76.367386,411.432190 76.955429,407.791901 77.543465,404.151611 
	C78.034821,404.115936 78.526169,404.080292 79.017525,404.044617 
	C80.350121,407.427338 81.682716,410.810059 83.384476,415.129883 
	C80.733025,415.129883 78.697166,415.129883 76.220329,415.101196 
z"/>
<path fill="#EDEDF7" opacity="1.000000" stroke="none" 
	d="
M512.000610,415.130280 
	C510.432861,415.050629 509.299255,414.970947 507.649902,414.855042 
	C508.993164,411.103638 510.228973,407.652313 511.998444,402.710571 
	C513.766968,407.650757 515.002319,411.101410 516.345581,414.853546 
	C514.699341,414.970032 513.567078,415.050140 512.000610,415.130280 
z"/>
</svg>