<svg xmlns="http://www.w3.org/2000/svg" width="250" height="203" viewBox="0 0 250 203">
<g>
<path d="M 171.00 121.00 L 171.00 140.00 L 145.67 140.00 C131.73,140.00 120.03,139.70 119.67,139.33 C119.30,138.97 119.00,117.82 119.00,92.33 L 119.00 46.00 L 171.00 46.00 L 171.00 65.00 L 139.00 65.00 L 139.00 83.00 L 171.00 83.00 L 171.00 102.00 L 139.00 102.00 L 139.00 121.00 ZM 250.00 0.00 L 250.00 203.00 L 249.96 159.25 C249.92,122.24 249.71,116.06 248.62,119.12 C242.45,136.38 223.18,144.94 206.00,138.05 C200.57,135.87 190.00,128.67 190.00,127.15 C190.00,126.72 192.70,123.16 196.00,119.24 L 202.01 112.11 L 208.09 116.30 C213.02,119.71 215.02,120.50 218.67,120.50 C222.48,120.50 223.61,120.01 226.08,117.23 C232.51,110.04 229.20,104.86 213.47,97.46 C197.41,89.92 194.03,85.88 193.21,73.28 C192.80,66.91 193.06,65.40 195.43,60.55 C198.61,54.04 204.47,48.71 210.79,46.55 C216.89,44.48 228.21,44.62 234.68,46.85 C240.08,48.72 246.98,52.91 246.99,54.32 C247.00,54.77 244.44,58.00 241.32,61.49 L 235.63 67.85 L 230.58 65.29 C223.54,61.72 218.49,61.73 215.40,65.32 C209.86,71.76 212.83,76.22 227.73,83.83 C240.44,90.33 244.75,93.99 247.92,101.00 L 249.96 105.50 L 249.98 52.75 L 250.00 0.00 ZM 131.54 200.47 C127.63,201.47 121.44,201.96 113.54,201.88 C100.81,201.76 95.77,201.13 92.50,199.22 C90.59,198.11 90.62,198.06 93.00,198.02 C94.99,197.98 95.19,197.77 94.00,197.00 C92.89,196.28 92.85,196.03 93.82,196.02 C94.81,196.00 94.75,195.61 93.57,194.43 C92.86,193.71 92.41,193.30 92.22,192.78 C91.92,191.98 92.23,190.96 93.05,188.22 C93.09,188.10 93.12,187.99 93.16,187.87 L 94.32 184.00 L 105.00 184.00 C130.79,184.00 151.33,172.60 161.61,152.59 L 165.50 145.01 L 172.25 145.00 L 172.29 145.00 C175.82,145.00 177.76,145.00 178.55,145.95 C179.51,147.13 178.71,149.75 176.92,155.59 L 176.90 155.64 C169.87,178.61 153.45,194.84 131.54,200.47 ZM 90.62 139.23 C89.22,140.15 74.57,140.24 73.67,139.33 C73.30,138.97 73.00,117.82 73.00,92.33 L 73.00 46.00 L 93.19 46.00 L 92.46 92.25 C91.95,124.46 91.39,138.72 90.62,139.23 ZM 90.00 198.00 C90.00,198.55 89.66,198.95 89.25,198.88 C86.55,198.47 85.00,197.71 85.00,196.82 C85.00,196.25 85.71,196.06 86.58,196.39 C87.45,196.73 88.58,197.00 89.08,197.00 C89.59,197.00 90.00,197.45 90.00,198.00 Z" fill="rgb(38,44,103)"/>
<path d="M 108.30 183.94 C107.21,183.98 106.11,184.00 105.00,184.00 L 94.32 184.00 L 93.16 187.87 C93.12,187.99 93.09,188.10 93.05,188.22 C92.23,190.96 91.92,191.98 92.22,192.78 C92.41,193.30 92.86,193.71 93.57,194.43 C94.75,195.61 94.81,196.00 93.82,196.02 C92.85,196.03 92.89,196.28 94.00,197.00 C95.19,197.77 94.99,197.98 93.00,198.02 C90.62,198.06 90.59,198.11 92.50,199.22 C93.77,199.97 95.31,200.51 97.47,200.92 C96.77,200.81 96.11,200.69 95.50,200.57 C74.42,196.22 52.26,184.03 34.77,167.17 C26.79,159.48 15.00,145.44 15.00,143.63 C15.00,143.23 18.06,145.54 21.80,148.76 C47.71,171.06 81.38,184.37 108.30,183.94 ZM 90.00 198.00 C90.00,197.45 89.59,197.00 89.08,197.00 C88.58,197.00 87.45,196.73 86.58,196.39 C85.71,196.06 85.00,196.25 85.00,196.82 C85.00,197.71 86.55,198.47 89.25,198.88 C89.66,198.95 90.00,198.55 90.00,198.00 ZM 133.63 178.49 C145.89,173.06 155.74,164.02 161.61,152.59 C155.53,164.43 145.86,173.26 133.63,178.49 ZM 107.09 201.76 C108.99,201.82 111.13,201.86 113.54,201.88 C113.80,201.89 114.05,201.89 114.30,201.89 C111.88,201.90 109.44,201.86 107.09,201.76 Z" fill="rgb(90,108,159)"/>
<path d="M 0.00 0.00 L 250.00 0.00 L 155.75 0.10 C73.78,0.19 62.31,0.38 67.70,1.56 C73.83,2.91 90.36,8.98 89.69,9.64 C89.50,9.83 85.59,9.52 80.99,8.94 C46.29,4.59 23.07,25.31 23.01,60.68 C22.99,77.77 27.62,93.40 38.12,111.66 C53.09,137.70 72.43,154.99 100.86,167.73 L 108.50 171.15 L 99.00 170.64 C87.78,170.03 78.80,167.23 66.09,160.38 C34.31,143.24 8.96,109.29 1.98,74.50 L 0.17 65.50 L 0.00 203.00 ZM 128.90 40.25 C129.93,41.87 129.36,42.00 121.26,41.97 C114.08,41.94 112.01,41.57 109.81,39.93 C105.35,36.60 93.07,32.83 84.81,32.26 C79.43,31.88 74.53,32.26 68.55,33.52 C63.84,34.51 59.70,35.04 59.36,34.69 C58.22,33.55 64.44,27.24 69.50,24.39 C76.59,20.41 89.74,19.78 99.66,22.96 C110.41,26.39 125.92,35.57 128.90,40.25 ZM 0.00 0.00 L 0.14 47.50 L 2.08 39.63 C6.82,20.33 19.82,6.51 38.00,1.43 C42.00,0.32 40.12,0.17 21.25,0.09 Z" fill="rgb(234,71,58)"/>
<path d="M 0.08 134.25 L 0.17 65.50 L 1.98 74.50 C8.96,109.29 34.31,143.24 66.09,160.38 C78.80,167.23 87.78,170.03 99.00,170.64 L 108.50 171.15 L 100.86 167.73 C72.43,154.99 53.09,137.70 38.12,111.66 C27.62,93.40 22.99,77.77 23.01,60.68 C23.07,25.31 46.29,4.59 80.99,8.94 C85.59,9.52 89.50,9.83 89.69,9.64 C90.36,8.98 73.83,2.91 67.70,1.56 C62.31,0.38 73.78,0.19 155.75,0.10 L 250.00 0.00 L 249.98 52.75 L 249.96 105.50 L 247.92 101.00 C244.75,93.99 240.44,90.33 227.73,83.83 C212.83,76.22 209.86,71.76 215.40,65.32 C218.49,61.73 223.54,61.72 230.58,65.29 L 235.63 67.85 L 241.32 61.49 C244.44,58.00 247.00,54.77 246.99,54.32 C246.98,52.91 240.08,48.72 234.68,46.85 C228.21,44.62 216.89,44.48 210.79,46.55 C204.47,48.71 198.61,54.04 195.43,60.55 C193.06,65.40 192.80,66.91 193.21,73.28 C194.03,85.88 197.41,89.92 213.47,97.46 C229.20,104.86 232.51,110.04 226.08,117.23 C223.61,120.01 222.48,120.50 218.67,120.50 C215.02,120.50 213.02,119.71 208.09,116.30 L 202.01 112.11 L 196.00 119.24 C192.70,123.16 190.00,126.72 190.00,127.15 C190.00,128.67 200.57,135.87 206.00,138.05 C223.18,144.94 242.45,136.38 248.62,119.12 C249.71,116.06 249.92,122.24 249.96,159.25 L 250.00 203.00 L 125.00 203.00 L 0.00 203.00 L 0.08 134.25 ZM 131.54 200.47 C153.45,194.84 169.87,178.61 176.90,155.64 C180.17,144.98 180.17,145.00 172.25,145.00 L 165.50 145.01 L 161.61 152.59 C154.18,167.05 140.38,177.68 123.39,182.03 C95.01,189.29 52.84,175.47 21.80,148.76 C18.06,145.54 15.00,143.23 15.00,143.63 C15.00,145.44 26.79,159.48 34.77,167.17 C52.26,184.03 74.42,196.22 95.50,200.57 C104.27,202.38 124.33,202.32 131.54,200.47 ZM 90.62 139.23 C91.39,138.72 91.95,124.46 92.46,92.25 L 93.19 46.00 L 83.10 46.00 L 73.00 46.00 L 73.00 92.33 C73.00,117.82 73.30,138.97 73.67,139.33 C74.57,140.24 89.22,140.15 90.62,139.23 ZM 171.00 130.50 L 171.00 121.00 L 155.00 121.00 L 139.00 121.00 L 139.00 111.50 L 139.00 102.00 L 155.00 102.00 L 171.00 102.00 L 171.00 92.50 L 171.00 83.00 L 155.00 83.00 L 139.00 83.00 L 139.00 74.00 L 139.00 65.00 L 155.00 65.00 L 171.00 65.00 L 171.00 55.50 L 171.00 46.00 L 145.00 46.00 L 119.00 46.00 L 119.00 92.33 C119.00,117.82 119.30,138.97 119.67,139.33 C120.03,139.70 131.73,140.00 145.67,140.00 L 171.00 140.00 L 171.00 130.50 ZM 128.90 40.25 C125.92,35.57 110.41,26.39 99.66,22.96 C89.74,19.78 76.59,20.41 69.50,24.39 C64.44,27.24 58.22,33.55 59.36,34.69 C59.70,35.04 63.84,34.51 68.55,33.52 C74.53,32.26 79.43,31.88 84.81,32.26 C93.07,32.83 105.35,36.60 109.81,39.93 C112.01,41.57 114.08,41.94 121.26,41.97 C129.36,42.00 129.93,41.87 128.90,40.25 ZM 0.07 23.75 L 0.00 0.00 L 21.25 0.09 C40.12,0.17 42.00,0.32 38.00,1.43 C19.82,6.51 6.82,20.33 2.08,39.63 L 0.14 47.50 L 0.07 23.75 Z" fill="rgb(253,252,252)"/>
</g>
</svg>