<?xml version="1.0" encoding="UTF-8"?>
<svg version="1.1" xmlns="http://www.w3.org/2000/svg" width="230" height="181">
<path d="M0 0 C8.05024233 4.02512117 14.43939173 11.00439605 20 18 C20.66 18.33 21.32 18.66 22 19 C22 21.97 22 24.94 22 28 C22.66 28 23.32 28 24 28 C24 26.35 24 24.7 24 23 C27.45201639 24.47721422 29.64961936 26.43794001 32.25 29.125 C32.95640625 29.84945312 33.6628125 30.57390625 34.390625 31.3203125 C34.92171875 31.87460937 35.4528125 32.42890625 36 33 C35.690625 33.598125 35.38125 34.19625 35.0625 34.8125 C32.2073957 40.69065592 32.44139543 46.76558171 34 53 C35.45792884 53.05399736 36.91642712 53.09279177 38.375 53.125 C39.18710938 53.14820313 39.99921875 53.17140625 40.8359375 53.1953125 C43.21342243 53.21370051 43.21342243 53.21370051 45 51 C45.39764263 49.01178687 45.73775349 47.01055661 46 45 C51.54102646 47.33110822 55.4851068 51.96073492 59.70117188 56.11083984 C60.73205594 57.11864926 61.77182246 58.11745372 62.8203125 59.10693359 C71.55786517 67.35327335 71.55786517 67.35327335 72.66992188 71.49511719 C72.671875 73.7109375 72.671875 73.7109375 72 77 C71.01 77 70.02 77 69 77 C69 77.66 69 78.32 69 79 C71.31 79 73.62 79 76 79 C76 78.34 76 77.68 76 77 C75.34 77 74.68 77 74 77 C73.67 75.35 73.34 73.7 73 72 C77.71491925 74.42889779 81.71682013 77.83689008 85 82 C85 82.99 85 83.98 85 85 C86.485 85.495 86.485 85.495 88 86 C88 91.28 88 96.56 88 102 C84.7 102 81.4 102 78 102 C78.02320313 100.94039063 78.04640625 99.88078125 78.0703125 98.7890625 C78.08906944 97.4010487 78.10726972 96.0130273 78.125 94.625 C78.15013672 93.57699219 78.15013672 93.57699219 78.17578125 92.5078125 C78.19344267 90.67102514 78.10303261 88.83398037 78 87 C76.05765911 84.61214724 76.05765911 84.61214724 72.5 84.8125 C69.15035297 84.75868763 69.15035297 84.75868763 67 86 C66.06750386 88.79748841 65.86523848 90.54320881 65.875 93.4375 C65.87242187 94.19933594 65.86984375 94.96117188 65.8671875 95.74609375 C65.94915575 98.32092715 65.94915575 98.32092715 67 102 C63.7 102 60.4 102 57 102 C57 96.06 57 90.12 57 84 C54.525 84.495 54.525 84.495 52 85 C52.99 85.33 53.98 85.66 55 86 C55 91.28 55 96.56 55 102 C51.7 102 48.4 102 45 102 C45.02320313 100.94039063 45.04640625 99.88078125 45.0703125 98.7890625 C45.08906944 97.4010487 45.10726972 96.0130273 45.125 94.625 C45.14175781 93.92632812 45.15851563 93.22765625 45.17578125 92.5078125 C45.19344267 90.67102514 45.10303261 88.83398037 45 87 C43.21342243 84.78629949 43.21342243 84.78629949 40.8359375 84.8046875 C40.02382812 84.82789062 39.21171875 84.85109375 38.375 84.875 C37.55773437 84.89304687 36.74046875 84.91109375 35.8984375 84.9296875 C35.27195313 84.95289062 34.64546875 84.97609375 34 85 C32.55478666 90.78085337 32.55156726 96.20626905 34 102 C30.7 102 27.4 102 24 102 C24 96.06 24 90.12 24 84 C22.35 84 20.7 84 19 84 C19 84.66 19 85.32 19 86 C19.99 86 20.98 86 22 86 C22 91.28 22 96.56 22 102 C17.38 102 12.76 102 8 102 C8 96.06 8 90.12 8 84 C6.02 84 4.04 84 2 84 C2 84.66 2 85.32 2 86 C3.32 86 4.64 86 6 86 C6 91.28 6 96.56 6 102 C4.35 102 2.7 102 1 102 C0 101 0 101 -0.12025452 98.07041931 C-0.11803391 96.75803787 -0.11581329 95.44565643 -0.11352539 94.09350586 C-0.11367142 93.37159561 -0.11381744 92.64968536 -0.1139679 91.90589905 C-0.11326869 89.50885053 -0.10547595 87.11187877 -0.09765625 84.71484375 C-0.0957921 83.05717511 -0.09436818 81.39950593 -0.09336853 79.74183655 C-0.08954312 75.37045786 -0.07971265 70.99911219 -0.06866455 66.62774658 C-0.05845092 62.17045539 -0.05387101 57.71315889 -0.04882812 53.25585938 C-0.0380904 44.50389107 -0.02101371 35.75194964 0 27 C1.09505859 27.34998047 2.19011719 27.69996094 3.31835938 28.06054688 C6.89395223 29.32649694 6.89395223 29.32649694 9.90625 28.03125 C12.27604055 26.11865661 12.27604055 26.11865661 12.59375 22.96875 C12.5628125 21.8240625 12.531875 20.679375 12.5 19.5 C12.4896875 18.3553125 12.479375 17.210625 12.46875 16.03125 C12.22849771 13.03959767 12.22849771 13.03959767 10.69140625 11.078125 C7.81384282 9.24392752 5.18481498 10.30513128 2 11 C1.01 11.495 1.01 11.495 0 12 C0 8.04 0 4.08 0 0 Z M2 34 C2 34.66 2 35.32 2 36 C3.32 36 4.64 36 6 36 C6 41.28 6 46.56 6 52 C5.01 52 4.02 52 3 52 C3 52.66 3 53.32 3 54 C5.31 54 7.62 54 10 54 C10 53.34 10 52.68 10 52 C9.34 52 8.68 52 8 52 C8 46.06 8 40.12 8 34 C6.02 34 4.04 34 2 34 Z M19 34 C19 34.66 19 35.32 19 36 C19.99 36 20.98 36 22 36 C22 41.28 22 46.56 22 52 C21.34 52 20.68 52 20 52 C20 52.66 20 53.32 20 54 C22.31 54 24.62 54 27 54 C27 53.34 27 52.68 27 52 C26.01 52 25.02 52 24 52 C24 46.06 24 40.12 24 34 C22.35 34 20.7 34 19 34 Z M2 59 C2 59.66 2 60.32 2 61 C3.32 61 4.64 61 6 61 C6 66.28 6 71.56 6 77 C5.01 77 4.02 77 3 77 C3 77.66 3 78.32 3 79 C5.31 79 7.62 79 10 79 C10 78.34 10 77.68 10 77 C9.34 77 8.68 77 8 77 C8 71.06 8 65.12 8 59 C6.02 59 4.04 59 2 59 Z M17.3046875 60.64453125 C15.67248578 63.59129064 15.56669635 65.64292262 15.5625 69 C15.54316406 70.03125 15.52382812 71.0625 15.50390625 72.125 C16.11602168 75.6723776 17.17761884 76.83090055 20 79 C23 79.75 23 79.75 26 79 C28.7938136 76.79435768 29.85405186 75.12927371 30.3125 71.58203125 C30.41618548 67.19483917 30.38754109 63.80143954 28 60 C24.45128575 58.22564288 20.26571056 57.77220243 17.3046875 60.64453125 Z M35 59 C35 59.66 35 60.32 35 61 C36.32 61 37.64 61 39 61 C39 66.28 39 71.56 39 77 C38.01 77 37.02 77 36 77 C36 77.66 36 78.32 36 79 C38.31 79 40.62 79 43 79 C43 78.34 43 77.68 43 77 C42.34 77 41.68 77 41 77 C41 71.06 41 65.12 41 59 C39.02 59 37.04 59 35 59 Z M50.3125 60.66015625 C48.66418934 63.59866245 48.56669634 65.6429275 48.5625 69 C48.54316406 70.03125 48.52382812 71.0625 48.50390625 72.125 C49.11602168 75.6723776 50.17761884 76.83090055 53 79 C56 79.75 56 79.75 59 79 C61.77413573 76.80989285 62.820636 75.1164494 63.3828125 71.6171875 C63.57024232 67.43125475 63.32840305 64.6568061 61.4375 60.875 C59.02981532 58.71343612 59.02981532 58.71343612 55.4375 58.4375 C52.02448069 58.65657872 52.02448069 58.65657872 50.3125 60.66015625 Z " fill="#1776BB" transform="translate(86,6)"/>
<path d="M0 0 C0.99 0.495 0.99 0.495 2 1 C1.67 24.1 1.34 47.2 1 71 C-22.43 71 -45.86 71 -70 71 C-70 70.34 -70 69.68 -70 69 C-68.75427246 67.77427673 -68.75427246 67.77427673 -66.89648438 66.26538086 C-60.10973167 60.4876681 -53.94156159 54.06439263 -47.65625 47.75390625 C-46.27784813 46.3736363 -44.89922309 44.9935892 -43.52038574 43.61375427 C-39.91464527 40.0042193 -36.31191967 36.39169001 -32.70983887 32.77850342 C-29.02454066 29.08292473 -25.33636419 25.39022095 -21.6484375 21.69726562 C-14.42949074 14.46763572 -7.21372951 7.23483544 0 0 Z " fill="#1676BB" transform="translate(79,37)"/>
<path d="M0 0 C19.8 0 39.6 0 60 0 C60 19.8 60 39.6 60 60 C59.34 60 58.68 60 58 60 C56.67182922 58.65306091 56.67182922 58.65306091 55.08325195 56.71655273 C50.2428203 51.02946061 44.95026397 45.8057962 39.66796875 40.53515625 C38.5840268 39.45053933 37.50023322 38.36577412 36.4165802 37.28086853 C34.1615814 35.02440563 31.9048093 32.76973599 29.64672852 30.51635742 C26.75034593 27.62571268 23.8585318 24.73054545 20.96799755 21.83405399 C18.7385217 19.60097263 16.50667972 17.37026838 14.27410316 15.1402874 C13.20602307 14.07287448 12.13868557 13.00471796 11.0721035 11.93580818 C9.58847546 10.44964937 8.10169552 8.96671846 6.61401367 7.48461914 C5.76908859 6.64048965 4.92416351 5.79636017 4.05363464 4.926651 C2.14798033 2.95490001 2.14798033 2.95490001 0 2 C0 1.34 0 0.68 0 0 Z " fill="#46B272" transform="translate(20,114)"/>
<path d="M0 0 C3.08283443 -0.14554346 6.16478439 -0.23413821 9.25 -0.3125 C10.12269531 -0.35439453 10.99539062 -0.39628906 11.89453125 -0.43945312 C14.3584165 -0.48647384 16.57963262 -0.47025244 19 0 C21.484375 2.45703125 21.484375 2.45703125 23 5 C23.66 5.33 24.32 5.66 25 6 C25.433125 5.071875 25.433125 5.071875 25.875 4.125 C27 2 27 2 29 0 C30.32 0 31.64 0 33 0 C31.8862187 2.50600794 30.80977678 4.20751624 28.9375 6.25 C26.34685059 9.92705078 26.30169766 12.54995953 26 17 C24.68 17 23.36 17 22 17 C21.938125 15.80375 21.87625 14.6075 21.8125 13.375 C21.25087713 8.59269617 19.31005449 6.39492769 16 3 C15.67 3.33 15.34 3.66 15 4 C13.02 4 11.04 4 9 4 C9 8.29 9 12.58 9 17 C7.68 16.67 6.36 16.34 5 16 C5 12.04 5 8.08 5 4 C3.35 4 1.7 4 0 4 C0 2.68 0 1.36 0 0 Z " fill="#343535" transform="translate(185,135)"/>
<path d="M0 0 C12.625 -0.25 12.625 -0.25 16 2 C16.1875 5.625 16.1875 5.625 16 9 C14.35 9.66 12.7 10.32 11 11 C11.825 11.61875 12.65 12.2375 13.5 12.875 C14.325 13.57625 15.15 14.2775 16 15 C16 15.66 16 16.32 16 17 C11.12637153 16.54663921 8.60957611 15.2910841 5 12 C4.67 13.65 4.34 15.3 4 17 C2.68 17 1.36 17 0 17 C0 11.39 0 5.78 0 0 Z M4 4 C4.33 4.99 4.66 5.98 5 7 C7.31 7 9.62 7 12 7 C12 6.01 12 5.02 12 4 C9.36 4 6.72 4 4 4 Z " fill="#343535" transform="translate(176,156)"/>
<path d="M0 0 C10.7421875 -0.1953125 10.7421875 -0.1953125 14 0 C16 2 16 2 16.23046875 5.00390625 C16.20919922 6.76541016 16.20919922 6.76541016 16.1875 8.5625 C16.18105469 9.73941406 16.17460937 10.91632813 16.16796875 12.12890625 C16 15 16 15 15 16 C12.4672235 16.07320163 9.96896082 16.09227569 7.4375 16.0625 C4.983125 16.041875 2.52875 16.02125 0 16 C0 10.72 0 5.44 0 0 Z M5 3 C5 4.32 5 5.64 5 7 C7.31 7 9.62 7 12 7 C11.67 5.68 11.34 4.36 11 3 C9.02 3 7.04 3 5 3 Z M4 10 C4 10.99 4 11.98 4 13 C6.64 13 9.28 13 12 13 C12 12.01 12 11.02 12 10 C9.36 10 6.72 10 4 10 Z " fill="#343535" transform="translate(121,114)"/>
<path d="M0 0 C12.625 -0.25 12.625 -0.25 16 2 C16.3125 5 16.3125 5 16 8 C13.8614515 10.1385485 12.86724686 10.42655063 10 11 C10.99 11.61875 11.98 12.2375 13 12.875 C13.99 13.57625 14.98 14.2775 16 15 C16 15.66 16 16.32 16 17 C11.12637153 16.54663921 8.60957611 15.2910841 5 12 C4.67 13.65 4.34 15.3 4 17 C2.68 17 1.36 17 0 17 C0 11.39 0 5.78 0 0 Z M4 4 C4.33 5.32 4.66 6.64 5 8 C8.465 7.505 8.465 7.505 12 7 C12 6.01 12 5.02 12 4 C9.36 4 6.72 4 4 4 Z " fill="#343535" transform="translate(159,135)"/>
<path d="M0 0 C12.625 -0.25 12.625 -0.25 16 2 C16.3125 5 16.3125 5 16 8 C13.8614515 10.1385485 12.86724686 10.42655063 10 11 C10.99 11.61875 11.98 12.2375 13 12.875 C13.99 13.57625 14.98 14.2775 16 15 C16 15.66 16 16.32 16 17 C11.69159287 15.92289822 8.36423277 14.96052484 5 12 C4.67 13.32 4.34 14.64 4 16 C2.68 16 1.36 16 0 16 C0 10.72 0 5.44 0 0 Z M4 4 C4.33 5.32 4.66 6.64 5 8 C8.465 7.505 8.465 7.505 12 7 C12 6.01 12 5.02 12 4 C9.36 4 6.72 4 4 4 Z " fill="#343535" transform="translate(159,114)"/>
<path d="M0 0 C1.859375 0.15234375 1.859375 0.15234375 4 1 C5.703125 3.06640625 5.703125 3.06640625 7.25 5.5625 C7.77078125 6.38878906 8.2915625 7.21507812 8.828125 8.06640625 C9.21484375 8.70449219 9.6015625 9.34257812 10 10 C10.33 6.7 10.66 3.4 11 0 C12.32 0 13.64 0 15 0 C15.05383848 2.45862401 15.09359038 4.9160755 15.125 7.375 C15.14175781 8.07367188 15.15851563 8.77234375 15.17578125 9.4921875 C15.19344267 11.32897486 15.10303261 13.16601963 15 15 C14.34 15.66 13.68 16.32 13 17 C10.37424814 16.79519136 9.29868104 16.32776314 7.515625 14.37109375 C7.09796875 13.73300781 6.6803125 13.09492188 6.25 12.4375 C5.82203125 11.79683594 5.3940625 11.15617188 4.953125 10.49609375 C4.63859375 10.00238281 4.3240625 9.50867188 4 9 C3.67 11.64 3.34 14.28 3 17 C1.68 17 0.36 17 -1 17 C-1.02684679 14.35409986 -1.04676357 11.70846904 -1.0625 9.0625 C-1.07087891 8.30775391 -1.07925781 7.55300781 -1.08789062 6.77539062 C-1.09652441 4.85005687 -1.05224333 2.92464419 -1 1 C-0.67 0.67 -0.34 0.34 0 0 Z " fill="#343535" transform="translate(124,156)"/>
<path d="M0 0 C0.98484375 0.02707031 1.9696875 0.05414063 2.984375 0.08203125 C3.73203125 0.11683594 4.4796875 0.15164062 5.25 0.1875 C5.25 1.5075 5.25 2.8275 5.25 4.1875 C1.95 4.1875 -1.35 4.1875 -4.75 4.1875 C-4.75 4.8475 -4.75 5.5075 -4.75 6.1875 C-1.78 6.5175 1.19 6.8475 4.25 7.1875 C4.25 8.1775 4.25 9.1675 4.25 10.1875 C-0.205 10.6825 -0.205 10.6825 -4.75 11.1875 C-4.75 11.8475 -4.75 12.5075 -4.75 13.1875 C-1.45 13.1875 1.85 13.1875 5.25 13.1875 C5.25 14.5075 5.25 15.8275 5.25 17.1875 C0.72558922 17.42470212 -3.46907028 17.52054173 -7.875 16.375 C-10.69004369 13.09078236 -10.31075307 9.98721342 -10.31640625 5.78125 C-9.75 3.1875 -9.75 3.1875 -8.07421875 1.35546875 C-5.19286103 -0.09247404 -3.20863887 -0.11459425 0 0 Z " fill="#343535" transform="translate(166.75,155.8125)"/>
<path d="M0 0 C0.98484375 0.02707031 1.9696875 0.05414063 2.984375 0.08203125 C3.73203125 0.11683594 4.4796875 0.15164062 5.25 0.1875 C5.25 1.5075 5.25 2.8275 5.25 4.1875 C1.62 4.1875 -2.01 4.1875 -5.75 4.1875 C-5.75 5.1775 -5.75 6.1675 -5.75 7.1875 C-2.45 7.1875 0.85 7.1875 4.25 7.1875 C4.25 8.1775 4.25 9.1675 4.25 10.1875 C0.95 10.1875 -2.35 10.1875 -5.75 10.1875 C-5.75 11.1775 -5.75 12.1675 -5.75 13.1875 C-2.12 13.1875 1.51 13.1875 5.25 13.1875 C5.25 14.5075 5.25 15.8275 5.25 17.1875 C3.5007786 17.26892927 1.75045458 17.32688541 0 17.375 C-0.97453125 17.40980469 -1.9490625 17.44460937 -2.953125 17.48046875 C-6.23046862 17.13717158 -7.53095417 16.61911798 -9.75 14.1875 C-10.28125 11.59375 -10.28125 11.59375 -10.25 8.6875 C-10.26546875 7.24890625 -10.26546875 7.24890625 -10.28125 5.78125 C-9.75 3.1875 -9.75 3.1875 -8.078125 1.35546875 C-5.19465009 -0.09110675 -3.20997953 -0.11464213 0 0 Z " fill="#343535" transform="translate(113.75,155.8125)"/>
<path d="M0 0 C1.49080078 0.02707031 1.49080078 0.02707031 3.01171875 0.0546875 C3.77097656 0.07789063 4.53023437 0.10109375 5.3125 0.125 C5.3125 1.445 5.3125 2.765 5.3125 4.125 C2.0125 4.125 -1.2875 4.125 -4.6875 4.125 C-4.6875 5.115 -4.6875 6.105 -4.6875 7.125 C-1.3875 7.125 1.9125 7.125 5.3125 7.125 C5.3125 8.115 5.3125 9.105 5.3125 10.125 C2.0125 10.125 -1.2875 10.125 -4.6875 10.125 C-4.6875 11.115 -4.6875 12.105 -4.6875 13.125 C-1.3875 13.125 1.9125 13.125 5.3125 13.125 C5.3125 14.445 5.3125 15.765 5.3125 17.125 C3.91711746 17.17972088 2.52109103 17.21811538 1.125 17.25 C-0.04095703 17.28480469 -0.04095703 17.28480469 -1.23046875 17.3203125 C-4.02964116 17.09780277 -6.14012765 16.27425857 -8.6875 15.125 C-8.76828641 13.00061661 -8.82659141 10.8753677 -8.875 8.75 C-8.90980469 7.56664062 -8.94460937 6.38328125 -8.98046875 5.1640625 C-8.88378906 4.16117188 -8.78710938 3.15828125 -8.6875 2.125 C-5.26655758 -0.15562828 -4.00562778 -0.09425007 0 0 Z " fill="#343535" transform="translate(112.6875,134.875)"/>
<path d="M0 0 C1.09054688 0.02320313 2.18109375 0.04640625 3.3046875 0.0703125 C4.40039062 0.08835938 5.49609375 0.10640625 6.625 0.125 C7.46804687 0.14820313 8.31109375 0.17140625 9.1796875 0.1953125 C9.1796875 1.5153125 9.1796875 2.8353125 9.1796875 4.1953125 C5.8796875 4.5253125 2.5796875 4.8553125 -0.8203125 5.1953125 C-0.8203125 5.5253125 -0.8203125 5.8553125 -0.8203125 6.1953125 C1.0978125 6.3809375 1.0978125 6.3809375 3.0546875 6.5703125 C6.9296875 6.9453125 6.9296875 6.9453125 9.1796875 9.1953125 C9.6171875 11.6328125 9.6171875 11.6328125 9.1796875 14.1953125 C6.09702421 17.07909428 3.42746137 17.37000407 -0.6328125 17.3828125 C-2.02922522 17.33497454 -3.42549171 17.27736078 -4.8203125 17.1953125 C-4.8203125 15.8753125 -4.8203125 14.5553125 -4.8203125 13.1953125 C-1.5203125 13.1953125 1.7796875 13.1953125 5.1796875 13.1953125 C5.1796875 12.2053125 5.1796875 11.2153125 5.1796875 10.1953125 C3.9215625 10.2571875 2.6634375 10.3190625 1.3671875 10.3828125 C-1.30734651 10.37332834 -2.53484248 10.35967403 -4.8828125 9.0078125 C-5.8203125 7.1953125 -5.8203125 7.1953125 -5.6328125 4.6328125 C-4.47267417 1.15239752 -3.70907812 0.25686137 0 0 Z " fill="#343535" transform="translate(91.8203125,134.8046875)"/>
<path d="M0 0 C1.49080078 0.02707031 1.49080078 0.02707031 3.01171875 0.0546875 C3.77097656 0.07789062 4.53023437 0.10109375 5.3125 0.125 C5.3125 1.445 5.3125 2.765 5.3125 4.125 C2.0125 4.125 -1.2875 4.125 -4.6875 4.125 C-4.6875 5.115 -4.6875 6.105 -4.6875 7.125 C-1.3875 7.125 1.9125 7.125 5.3125 7.125 C5.3125 8.115 5.3125 9.105 5.3125 10.125 C2.0125 10.125 -1.2875 10.125 -4.6875 10.125 C-4.6875 11.115 -4.6875 12.105 -4.6875 13.125 C-1.3875 13.125 1.9125 13.125 5.3125 13.125 C5.3125 14.115 5.3125 15.105 5.3125 16.125 C3.16673363 16.15185938 1.02087355 16.17133088 -1.125 16.1875 C-2.31996094 16.19910156 -3.51492187 16.21070313 -4.74609375 16.22265625 C-7.6875 16.125 -7.6875 16.125 -8.6875 15.125 C-8.83904969 12.9829034 -8.90927745 10.83476538 -8.9375 8.6875 C-8.96328125 7.51316406 -8.9890625 6.33882813 -9.015625 5.12890625 C-8.90734375 4.13761719 -8.7990625 3.14632812 -8.6875 2.125 C-5.26655758 -0.15562828 -4.00562778 -0.09425007 0 0 Z " fill="#343535" transform="translate(149.6875,113.875)"/>
<path d="M0 0 C1.32 0 2.64 0 4 0 C4 4.29 4 8.58 4 13 C6.64 13 9.28 13 12 13 C12 8.71 12 4.42 12 0 C13.32 0 14.64 0 16 0 C16.13489391 2.26921536 16.23193995 4.5407067 16.3125 6.8125 C16.37050781 8.07707031 16.42851562 9.34164062 16.48828125 10.64453125 C16 14 16 14 13.7734375 15.96484375 C10.87465096 17.04678521 9.33503017 17.22210998 6.3125 16.75 C5.16201172 16.58757812 5.16201172 16.58757812 3.98828125 16.421875 C2 16 2 16 0 15 C0 10.05 0 5.1 0 0 Z " fill="#343535" transform="translate(140,135)"/>
<path d="M0 0 C1.08667969 0.02707031 2.17335938 0.05414063 3.29296875 0.08203125 C4.54013672 0.13423828 4.54013672 0.13423828 5.8125 0.1875 C5.8125 1.5075 5.8125 2.8275 5.8125 4.1875 C2.1825 4.1875 -1.4475 4.1875 -5.1875 4.1875 C-5.1875 7.1575 -5.1875 10.1275 -5.1875 13.1875 C-1.5575 13.1875 2.0725 13.1875 5.8125 13.1875 C5.8125 14.5075 5.8125 15.8275 5.8125 17.1875 C4.0632786 17.26892927 2.31295458 17.32688541 0.5625 17.375 C-0.41203125 17.40980469 -1.3865625 17.44460937 -2.390625 17.48046875 C-5.66719399 17.13725272 -6.97146667 16.62150382 -9.1875 14.1875 C-9.68359375 11.59375 -9.68359375 11.59375 -9.625 8.6875 C-9.62371094 7.7284375 -9.62242188 6.769375 -9.62109375 5.78125 C-9.1875 3.1875 -9.1875 3.1875 -8.046875 1.35546875 C-5.33398678 -0.3486354 -3.16824877 -0.10220157 0 0 Z " fill="#343535" transform="translate(95.1875,155.8125)"/>
<path d="M0 0 C1.08667969 0.01804688 2.17335937 0.03609375 3.29296875 0.0546875 C4.54013672 0.08949219 4.54013672 0.08949219 5.8125 0.125 C5.8125 1.445 5.8125 2.765 5.8125 4.125 C2.1825 4.125 -1.4475 4.125 -5.1875 4.125 C-5.1875 7.095 -5.1875 10.065 -5.1875 13.125 C-1.5575 13.125 2.0725 13.125 5.8125 13.125 C5.4825 14.445 5.1525 15.765 4.8125 17.125 C3.41767921 17.20704828 2.02141272 17.26466204 0.625 17.3125 C-0.15230469 17.34730469 -0.92960938 17.38210937 -1.73046875 17.41796875 C-4.96362041 17.03245782 -6.68793237 16.21745767 -9.1875 14.125 C-9.78125 11.27734375 -9.78125 11.27734375 -9.6875 8.0625 C-9.6771875 6.99902344 -9.666875 5.93554688 -9.65625 4.83984375 C-9.5015625 3.94394531 -9.346875 3.04804688 -9.1875 2.125 C-5.66070901 -0.22619399 -4.15870515 -0.08943452 0 0 Z " fill="#343535" transform="translate(131.1875,134.875)"/>
<path d="M0 0 C1.08667969 0.02707031 2.17335938 0.05414063 3.29296875 0.08203125 C4.54013672 0.13423828 4.54013672 0.13423828 5.8125 0.1875 C5.8125 1.5075 5.8125 2.8275 5.8125 4.1875 C2.1825 4.1875 -1.4475 4.1875 -5.1875 4.1875 C-4.8575 6.8275 -4.5275 9.4675 -4.1875 12.1875 C-0.8875 12.5175 2.4125 12.8475 5.8125 13.1875 C5.8125 14.1775 5.8125 15.1675 5.8125 16.1875 C3.68777424 16.24136629 1.56266348 16.28023071 -0.5625 16.3125 C-1.74585937 16.33570313 -2.92921875 16.35890625 -4.1484375 16.3828125 C-7.1875 16.1875 -7.1875 16.1875 -9.1875 14.1875 C-9.48828125 11.69140625 -9.48828125 11.69140625 -9.5 8.75 C-9.51675781 7.78191406 -9.53351563 6.81382813 -9.55078125 5.81640625 C-9.1875 3.1875 -9.1875 3.1875 -8.0546875 1.3515625 C-5.33570424 -0.34353585 -3.16951135 -0.1022423 0 0 Z " fill="#343535" transform="translate(95.1875,113.8125)"/>
<path d="M0 0 C3.0625 0.25 3.0625 0.25 6 1 C7.96504425 4.9300885 7.60864748 9.72651769 7 14 C4.5 16.1875 4.5 16.1875 2 17 C0.0234375 15.87890625 0.0234375 15.87890625 -2 14 C-2.4609375 11.15234375 -2.4609375 11.15234375 -2.375 7.9375 C-2.36210938 6.87402344 -2.34921875 5.81054688 -2.3359375 4.71484375 C-2 2 -2 2 0 0 Z " fill="#1776BB" transform="translate(90,17)"/>
<path d="M0 0 C2.5 0.25 2.5 0.25 4.5 2.25 C4.80078125 4.74609375 4.80078125 4.74609375 4.8125 7.6875 C4.83763672 9.13962891 4.83763672 9.13962891 4.86328125 10.62109375 C4.5 13.25 4.5 13.25 3.14453125 15.11328125 C1.5 16.25 1.5 16.25 -1.125 16 C-3.5 15.25 -3.5 15.25 -4.5 14.25 C-4.62514928 12.27380553 -4.6757276 10.29261827 -4.6875 8.3125 C-4.70167969 7.23097656 -4.71585938 6.14945312 -4.73046875 5.03515625 C-4.42800042 1.37990336 -3.69383829 0.36938383 0 0 Z " fill="#1776BA" transform="translate(158.5,91.75)"/>
<path d="M0 0 C2.5 0.25 2.5 0.25 4.5 2.25 C4.80078125 4.74609375 4.80078125 4.74609375 4.8125 7.6875 C4.83763672 9.13962891 4.83763672 9.13962891 4.86328125 10.62109375 C4.5 13.25 4.5 13.25 3.14453125 15.11328125 C1.5 16.25 1.5 16.25 -1.125 16 C-3.5 15.25 -3.5 15.25 -4.5 14.25 C-4.62514928 12.27380553 -4.6757276 10.29261827 -4.6875 8.3125 C-4.70167969 7.23097656 -4.71585937 6.14945312 -4.73046875 5.03515625 C-4.42800042 1.37990336 -3.69383829 0.36938383 0 0 Z " fill="#1776BB" transform="translate(125.5,91.75)"/>
<path d="M0 0 C2.5 -0.3125 2.5 -0.3125 5 0 C7 2 7 2 7.265625 4.75 C7.26046875 5.8225 7.2553125 6.895 7.25 8 C7.25515625 9.0725 7.2603125 10.145 7.265625 11.25 C7 14 7 14 5 16 C2.5 16.3125 2.5 16.3125 0 16 C-2.15942819 12.76085771 -2.27232978 11.75140267 -2.25 8 C-2.25515625 7.13375 -2.2603125 6.2675 -2.265625 5.375 C-2 3 -2 3 0 0 Z " fill="#1776BB" transform="translate(139,67)"/>
<path d="M0 0 C2.5 -0.3125 2.5 -0.3125 5 0 C7 2 7 2 7.265625 4.75 C7.26046875 5.8225 7.2553125 6.895 7.25 8 C7.25515625 9.0725 7.2603125 10.145 7.265625 11.25 C7 14 7 14 5 16 C2.5 16.3125 2.5 16.3125 0 16 C-2.15942819 12.76085771 -2.27232978 11.75140267 -2.25 8 C-2.25515625 7.13375 -2.2603125 6.2675 -2.265625 5.375 C-2 3 -2 3 0 0 Z " fill="#1776BB" transform="translate(106,67)"/>
<path d="M0 0 C2.89091049 1.29592539 4.99810382 2.52307761 7 5 C7.36328125 7.19140625 7.36328125 7.19140625 7.3125 9.5625 C7.30863281 10.34753906 7.30476562 11.13257813 7.30078125 11.94140625 C7 14 7 14 5 16 C2.5 16.25 2.5 16.25 0 16 C-2 14 -2 14 -2.265625 11.25 C-2.26046875 10.1775 -2.2553125 9.105 -2.25 8 C-2.25515625 6.9275 -2.2603125 5.855 -2.265625 4.75 C-2 2 -2 2 0 0 Z " fill="#1776BB" transform="translate(123,42)"/>
<path d="M0 0 C4.62 0 9.24 0 14 0 C14 1.32 14 2.64 14 4 C12.35 4 10.7 4 9 4 C9 8.29 9 12.58 9 17 C7.68 17 6.36 17 5 17 C5 12.71 5 8.42 5 4 C3.35 4 1.7 4 0 4 C0 2.68 0 1.36 0 0 Z " fill="#343535" transform="translate(141,156)"/>
<path d="M0 0 C2.3125 -0.25 2.3125 -0.25 5 0 C6.97610386 2.04424538 8 3.1176825 8 6 C8.721875 5.195625 9.44375 4.39125 10.1875 3.5625 C13.02515689 0.97707928 14.27166147 0.31957187 18 0 C16.83623751 2.5214854 15.56703966 4.60352047 13.9375 6.875 C11.95454582 10.07331319 11.35304682 12.29300838 11 16 C9.68 16 8.36 16 7 16 C6.89042969 15.38511719 6.78085938 14.77023438 6.66796875 14.13671875 C6.43013672 12.92435547 6.43013672 12.92435547 6.1875 11.6875 C5.96126953 10.48673828 5.96126953 10.48673828 5.73046875 9.26171875 C4.91786593 6.74569185 3.89891233 5.77405234 2 4 C2 3.34 2 2.68 2 2 C1.34 2 0.68 2 0 2 C0 1.34 0 0.68 0 0 Z " fill="#343535" transform="translate(102,114)"/>
<path d="M0 0 C3.57728446 1.78864223 5.48079178 3.18367627 8.25 5.9375 C8.95640625 6.62714844 9.6628125 7.31679687 10.390625 8.02734375 C12 10 12 10 12 13 C8.04 13 4.08 13 0 13 C0 8.71 0 4.42 0 0 Z " fill="#1676BB" transform="translate(176,95)"/>
<path d="M0 0 C1.32 0 2.64 0 4 0 C4 5.61 4 11.22 4 17 C2.68 17 1.36 17 0 17 C0 11.39 0 5.78 0 0 Z " fill="#343535" transform="translate(179,135)"/>
</svg>
