<svg version="1.1" id="Layer_1" xmlns="http://www.w3.org/2000/svg" xmlns:xlink="http://www.w3.org/1999/xlink" x="0px" y="0px"
	 width="100%" viewBox="0 0 2250 2250" enable-background="new 0 0 2250 2250" xml:space="preserve">
<path fill="#FFFFFF" opacity="1.000000" stroke="none" 
	d="
M1086.000000,2252.000000 
	C724.039978,2252.000000 363.079987,2252.000000 2.060001,2252.000000 
	C2.060001,1502.123169 2.060001,752.246216 2.060001,2.184657 
	C751.793762,2.184657 1501.587524,2.184657 2251.690674,2.184657 
	C2251.690674,751.999878 2251.690674,1501.999878 2251.690674,2252.000000 
	C1863.578735,2252.000000 1475.289429,2252.000000 1086.000000,2252.000000 
M1311.998413,1694.134644 
	C1321.546509,1694.134644 1331.094727,1694.134644 1341.829102,1694.134644 
	C1341.829102,1749.369995 1341.829102,1803.130249 1341.829102,1856.713989 
	C1357.161133,1858.671875 1388.535889,1858.122681 1396.039795,1855.698730 
	C1396.039795,1802.424927 1396.039795,1748.889038 1396.039795,1694.059082 
	C1406.887085,1694.059082 1416.981079,1694.059082 1427.095581,1694.059082 
	C1427.095581,1679.583984 1427.095581,1666.422241 1427.095581,1652.322144 
	C1387.919678,1652.322144 1349.347168,1652.322144 1309.173828,1652.169189 
	C1308.637695,1652.174194 1308.101685,1652.179077 1305.747437,1652.272583 
	C1276.588989,1652.272583 1247.430542,1652.272583 1218.395874,1652.272583 
	C1218.395874,1721.472046 1218.395874,1789.197510 1218.395874,1856.831177 
	C1233.960205,1858.698975 1264.604736,1858.117065 1272.125000,1855.636963 
	C1272.125000,1828.114258 1272.125000,1800.291870 1272.125000,1771.490967 
	C1283.138550,1771.490967 1293.297607,1771.490967 1303.656128,1771.490967 
	C1303.656128,1758.036011 1303.656128,1745.595093 1303.656128,1732.138672 
	C1292.873535,1732.138672 1282.716675,1732.138672 1271.904175,1732.138672 
	C1271.790405,1719.042114 1271.157349,1706.976440 1272.324951,1694.044556 
	C1284.917725,1694.044556 1296.520142,1694.044556 1309.143677,1694.022583 
	C1309.482788,1693.992920 1309.821899,1693.963135 1311.998413,1694.134644 
M1163.715576,749.713379 
	C1163.715576,749.713379 1163.078857,749.091553 1163.670044,747.856750 
	C1170.278931,737.463074 1176.619629,726.886719 1183.551636,716.713135 
	C1198.660645,694.538696 1208.324219,670.471497 1209.641968,643.475464 
	C1211.417847,607.092163 1205.357788,572.030151 1192.169312,538.030579 
	C1172.630737,487.660339 1141.153564,444.857788 1107.664551,403.307495 
	C1104.781006,399.729767 1101.849243,395.356293 1096.099854,394.313599 
	C1095.265869,400.719391 1094.765747,406.671021 1093.686523,412.515778 
	C1085.104248,458.998718 1074.056763,504.831116 1056.453125,548.839233 
	C1037.701172,595.718140 1012.608582,639.227356 984.577820,681.032471 
	C954.172546,726.378967 922.860046,771.116333 892.350525,816.393860 
	C867.766846,852.877258 845.670715,890.837769 827.737305,931.088806 
	C798.069641,997.677429 782.624512,1066.933228 787.461243,1140.285522 
	C788.909424,1162.247070 791.475403,1183.923340 796.188477,1205.351562 
	C811.800293,1276.330811 844.902954,1338.087036 895.666138,1390.000488 
	C925.676636,1420.691040 960.458191,1444.980835 999.556091,1463.134888 
	C1044.265137,1483.894165 1091.311646,1494.074341 1140.335449,1495.602783 
	C1163.291748,1496.318604 1186.127319,1493.971924 1208.739136,1490.081055 
	C1236.012451,1485.387939 1262.959229,1478.831787 1288.028442,1467.046753 
	C1363.034546,1431.786377 1417.511597,1375.991211 1450.969360,1300.115356 
	C1461.756470,1275.652100 1468.143433,1249.872192 1469.820801,1223.035522 
	C1471.195312,1201.045776 1470.368896,1179.110962 1467.482910,1157.328369 
	C1465.214233,1140.206055 1461.652344,1123.279541 1455.379639,1107.048462 
	C1445.009888,1080.216919 1430.719116,1055.451294 1415.351318,1031.282349 
	C1411.264771,1024.855225 1406.529907,1018.753906 1401.476562,1013.048645 
	C1394.150269,1004.777100 1393.505737,1004.767395 1398.791870,995.074707 
	C1407.604004,978.916199 1411.012939,961.558838 1412.314697,943.453003 
	C1414.012817,919.834839 1409.463013,897.915894 1397.086914,877.517700 
	C1387.317993,861.416870 1374.714355,847.791199 1361.538818,834.604614 
	C1359.207275,832.271179 1355.980957,830.831726 1352.342896,828.436340 
	C1351.483032,833.725464 1350.612915,837.286377 1350.365967,840.889954 
	C1348.870728,862.706482 1341.144775,882.167419 1328.834351,900.081299 
	C1315.794922,919.055725 1297.797852,931.863647 1277.586670,941.907532 
	C1262.095581,949.605774 1246.146240,956.407959 1230.835327,964.437500 
	C1198.527954,981.380554 1179.306274,1007.647949 1175.726318,1044.528809 
	C1175.503174,1046.827393 1175.056519,1049.108276 1174.635376,1051.382935 
	C1171.850586,1066.420166 1168.369385,1081.402832 1169.721436,1096.859863 
	C1170.824585,1109.470703 1175.169189,1120.501831 1186.319702,1128.868042 
	C1187.816650,1126.272827 1188.974731,1124.351929 1190.050781,1122.385986 
	C1199.666016,1104.816895 1212.338257,1090.174072 1229.941040,1080.105103 
	C1250.491455,1068.349976 1277.505737,1068.138184 1293.156982,1081.100708 
	C1313.985718,1098.351440 1321.816406,1121.411743 1318.765259,1147.865845 
	C1316.327881,1168.999390 1303.810425,1184.554443 1287.540039,1197.048706 
	C1262.788208,1216.055908 1234.659424,1225.595093 1203.330322,1226.429688 
	C1178.716064,1227.085205 1155.694702,1221.956177 1134.448120,1209.693115 
	C1077.520142,1176.835083 1053.328247,1107.452881 1071.725464,1045.364014 
	C1081.567017,1012.149658 1101.211426,985.179810 1125.418457,961.322571 
	C1147.768921,939.294983 1173.036621,920.870117 1199.459106,903.966309 
	C1219.322876,891.258362 1240.090332,879.956482 1257.454834,863.464355 
	C1286.084351,836.273621 1298.625977,803.281799 1293.426636,764.398193 
	C1288.328369,726.270569 1272.158936,692.587585 1247.903198,662.825745 
	C1245.108765,659.396973 1241.340088,656.762146 1238.561768,654.247009 
	C1231.826416,668.113892 1226.312378,681.339844 1219.223145,693.659363 
	C1205.755981,717.062439 1187.408447,736.077820 1163.715576,749.713379 
M704.824524,1845.584351 
	C709.643127,1838.863281 711.821838,1831.110962 712.062866,1823.094849 
	C712.502991,1808.453735 712.699219,1793.769287 712.071838,1779.142578 
	C711.490417,1765.587524 705.839783,1754.741943 692.104797,1749.725830 
	C690.263733,1749.053589 688.538696,1748.063843 686.100464,1746.908691 
	C689.070435,1745.565063 691.467957,1744.505859 693.844116,1743.400879 
	C702.440247,1739.403564 707.567078,1732.578369 708.014648,1723.239014 
	C708.507446,1712.955688 708.775635,1702.512695 707.564148,1692.327026 
	C704.923157,1670.122070 692.136230,1657.402954 670.384338,1654.412231 
	C661.854187,1653.239380 653.208252,1652.549561 644.600464,1652.378906 
	C628.616455,1652.062012 612.621643,1652.255615 596.631653,1652.322266 
	C594.088928,1652.332886 591.548035,1652.789185 589.027222,1653.037231 
	C589.027222,1721.469849 589.027222,1789.219116 589.027222,1857.712158 
	C606.354675,1857.712158 622.966187,1857.947144 639.567749,1857.640381 
	C653.838257,1857.376831 668.101562,1856.577637 682.359863,1855.853882 
	C690.582275,1855.436646 697.972717,1852.792480 704.824524,1845.584351 
M414.296173,1753.000000 
	C414.296082,1772.321533 414.355988,1791.643311 414.242523,1810.964111 
	C414.221252,1814.583008 414.124451,1818.432129 412.876129,1821.725220 
	C412.144592,1823.654907 408.993713,1825.904907 407.067230,1825.786987 
	C405.238403,1825.674927 402.482849,1822.893555 402.069611,1820.887329 
	C400.941467,1815.410400 400.404510,1809.724243 400.390320,1804.119141 
	C400.271362,1757.148315 400.333710,1710.177002 400.299927,1663.205933 
	C400.297424,1659.720703 399.972198,1656.235840 399.808411,1652.977783 
	C381.412170,1652.977783 364.259094,1652.977783 346.750488,1652.977783 
	C346.569183,1655.573730 346.300140,1657.522461 346.316559,1659.468994 
	C346.755096,1711.386475 347.031036,1763.306763 347.802399,1815.219604 
	C348.035339,1830.898926 355.402985,1843.139648 368.916534,1851.545410 
	C377.878448,1857.119995 387.763550,1859.955322 398.035522,1861.156250 
	C413.438477,1862.957031 428.839813,1862.163696 442.759094,1854.713745 
	C460.943756,1844.980957 468.476837,1828.922119 468.390167,1808.529053 
	C468.179260,1758.893799 468.330261,1709.257080 468.290863,1659.620972 
	C468.289093,1657.415283 467.847351,1655.209839 467.592041,1652.831787 
	C449.731232,1652.831787 432.572418,1652.831787 414.296356,1652.831787 
	C414.296356,1685.908691 414.296356,1718.454346 414.296173,1753.000000 
M979.525879,1857.697754 
	C992.094788,1857.697754 1004.663696,1857.697754 1018.417480,1857.697754 
	C1018.417480,1829.180908 1018.417480,1801.689087 1018.417480,1774.197266 
	C1019.027222,1774.141724 1019.636902,1774.086182 1020.246643,1774.030762 
	C1028.616211,1801.884521 1036.985718,1829.738281 1045.230225,1857.176270 
	C1061.467163,1857.176270 1076.344238,1857.176270 1091.762207,1857.176270 
	C1091.762207,1788.890381 1091.762207,1721.132446 1091.762207,1652.834961 
	C1077.101685,1652.834961 1062.965576,1652.834961 1047.650269,1652.834961 
	C1047.650269,1680.830566 1047.650269,1708.371460 1047.650269,1735.912354 
	C1046.983765,1735.995361 1046.317261,1736.078247 1045.650757,1736.161133 
	C1036.550903,1708.221558 1027.451050,1680.281860 1018.525452,1652.877197 
	C1003.060059,1652.877197 988.851501,1652.877197 974.150940,1652.877197 
	C973.977173,1656.354614 973.704346,1659.280518 973.703186,1662.206543 
	C973.678589,1724.169922 973.681580,1786.133423 973.696289,1848.096802 
	C973.696838,1850.420166 973.485657,1852.855835 974.119141,1855.020752 
	C974.448547,1856.146362 976.411194,1856.793945 979.525879,1857.697754 
M940.865112,1721.972534 
	C948.387817,1699.061768 955.910522,1676.151001 963.612793,1652.693237 
	C945.896423,1652.693237 929.644531,1652.693237 913.212952,1652.693237 
	C905.347046,1675.272827 900.128601,1698.409790 891.070129,1720.278198 
	C890.324768,1708.774780 890.382141,1697.483032 890.308594,1686.192261 
	C890.235901,1675.044434 890.642090,1663.865356 890.049500,1652.985596 
	C871.399719,1652.985596 854.241455,1652.985596 837.036621,1652.985596 
	C837.036621,1721.456787 837.036621,1789.225220 837.036621,1857.147705 
	C854.962463,1857.147705 872.139465,1857.147705 890.369507,1857.147705 
	C890.369507,1832.387695 890.369507,1808.165771 890.369507,1783.943848 
	C890.975098,1783.884399 891.580688,1783.824951 892.186279,1783.765381 
	C898.402161,1808.348877 904.618103,1832.932251 910.725647,1857.086914 
	C929.795959,1857.086914 947.595154,1857.086914 966.030396,1857.086914 
	C965.475037,1854.780762 965.166321,1853.196899 964.711792,1851.656128 
	C956.433899,1823.597046 948.844727,1795.306641 939.567383,1767.581421 
	C934.457947,1752.312256 933.188599,1738.062012 940.865112,1721.972534 
M1553.726685,1843.121948 
	C1559.564087,1849.695557 1566.447510,1854.753906 1574.626221,1858.124634 
	C1591.843506,1865.220581 1614.223755,1862.397095 1624.462036,1847.471680 
	C1624.909180,1846.819946 1626.151855,1846.713989 1627.245361,1846.262329 
	C1628.245850,1848.941406 1628.789062,1851.668335 1630.214722,1853.806763 
	C1631.326416,1855.473877 1633.498291,1857.436523 1635.262329,1857.499756 
	C1645.119751,1857.853760 1654.996582,1857.669922 1665.207764,1857.669922 
	C1665.207764,1820.531738 1665.207764,1784.698364 1665.207764,1748.269653 
	C1644.267212,1748.269653 1623.822144,1748.269653 1603.006592,1748.269653 
	C1603.006592,1758.869141 1603.006592,1768.967041 1603.006592,1778.971680 
	C1606.865234,1779.583740 1610.013062,1780.083008 1613.641846,1780.658569 
	C1613.641846,1789.241089 1613.823486,1797.207153 1613.568970,1805.159302 
	C1613.431763,1809.444946 1612.711670,1813.736206 1611.953735,1817.971069 
	C1611.205566,1822.151733 1609.340698,1825.652222 1604.450195,1826.013794 
	C1599.123413,1826.407593 1597.819214,1822.420776 1596.814697,1818.454956 
	C1596.332397,1816.551025 1596.325317,1814.495483 1596.316040,1812.507446 
	C1596.143555,1775.530151 1595.990479,1738.552612 1595.880005,1701.575073 
	C1595.870972,1698.586182 1596.008545,1695.569580 1596.417603,1692.612915 
	C1596.998291,1688.416870 1598.551880,1684.732422 1603.582275,1684.476074 
	C1608.300293,1684.235352 1609.956665,1687.461670 1610.473633,1691.414307 
	C1611.030151,1695.669067 1611.490723,1699.956177 1611.632202,1704.241211 
	C1611.890869,1712.082642 1611.884033,1719.932983 1611.987183,1727.731445 
	C1630.370605,1727.731445 1647.547729,1727.731445 1665.140625,1727.731445 
	C1666.655518,1714.215820 1665.331177,1701.432983 1663.121582,1688.682861 
	C1660.736572,1674.920410 1652.815308,1665.093628 1641.021118,1658.277344 
	C1621.840820,1647.192261 1601.248657,1645.533569 1580.386475,1651.577148 
	C1559.158203,1657.726562 1544.973877,1670.890015 1543.587280,1694.527588 
	C1542.965576,1705.128540 1541.811890,1715.726074 1541.775146,1726.328247 
	C1541.682617,1752.974487 1542.127808,1779.622437 1542.278198,1806.270142 
	C1542.351318,1819.215210 1545.170654,1831.300659 1553.726685,1843.121948 
M1709.520386,1652.287598 
	C1706.300781,1652.453491 1703.081055,1652.619263 1699.219727,1652.818237 
	C1690.204956,1721.247437 1681.280396,1788.991577 1672.354980,1856.741943 
	C1687.308716,1858.602173 1720.940552,1858.091187 1728.096191,1855.973267 
	C1729.078857,1844.625854 1730.072632,1833.148438 1731.121704,1821.034424 
	C1737.302734,1821.034424 1743.020508,1821.034424 1749.012573,1821.034424 
	C1750.106567,1833.450317 1751.141968,1845.202148 1752.203491,1857.249512 
	C1770.806763,1857.249512 1788.652222,1857.249512 1807.161743,1857.249512 
	C1797.020264,1788.667725 1787.069702,1720.621460 1776.617554,1652.287598 
	C1753.980835,1652.287598 1732.698975,1652.287598 1709.520386,1652.287598 
M743.199585,1652.292358 
	C738.973328,1652.292358 734.747070,1652.292358 730.365845,1652.292358 
	C730.365845,1721.315918 730.365845,1789.090576 730.365845,1857.077148 
	C761.192505,1857.077148 791.330872,1857.077148 822.266602,1857.077148 
	C822.275391,1843.003540 822.518555,1829.571045 822.094604,1815.205688 
	C808.886292,1815.205688 797.043762,1815.205688 784.866516,1815.205688 
	C784.866516,1800.406006 784.866516,1786.580322 784.866516,1771.506836 
	C795.501770,1771.506836 805.624023,1771.506836 816.325806,1771.506836 
	C816.054871,1757.786865 816.935547,1745.304321 815.693665,1731.947510 
	C804.844421,1731.947510 795.000427,1731.947510 785.338074,1731.947510 
	C783.447266,1717.881592 783.889038,1701.479004 786.485901,1693.955200 
	C797.044739,1693.955200 807.915100,1693.955200 819.581665,1693.955200 
	C819.684143,1679.651001 819.940125,1666.237305 819.431274,1652.292603 
	C793.761719,1652.292603 769.460327,1652.292603 743.199585,1652.292358 
M1166.996826,1652.288940 
	C1148.789551,1652.288940 1130.582397,1652.288940 1112.422363,1652.288940 
	C1112.422363,1721.425293 1112.422363,1789.195435 1112.422363,1857.037354 
	C1143.307495,1857.037354 1173.443726,1857.037354 1204.284668,1857.037354 
	C1204.172607,1842.916504 1204.673096,1829.471802 1203.985229,1815.056274 
	C1190.492432,1815.056274 1178.342163,1815.056274 1166.348022,1815.056274 
	C1166.348022,1800.174072 1166.348022,1786.330688 1166.348022,1771.492188 
	C1177.133301,1771.492188 1187.299438,1771.492188 1197.634766,1771.492188 
	C1197.634766,1758.016846 1197.634766,1745.569336 1197.634766,1732.090332 
	C1186.820679,1732.090332 1176.657837,1732.090332 1165.656006,1732.090332 
	C1166.056274,1718.976318 1165.018311,1706.890137 1166.397583,1693.915405 
	C1178.572754,1693.915405 1189.743164,1693.915405 1200.737549,1693.915405 
	C1202.581299,1679.412720 1202.124756,1659.480225 1199.788574,1652.289062 
	C1189.627808,1652.289062 1179.311401,1652.289062 1166.996826,1652.288940 
M1514.694336,1771.709229 
	C1517.596802,1771.535156 1520.499146,1771.361206 1523.681519,1771.170288 
	C1523.681519,1758.085938 1523.681519,1745.645264 1523.681519,1732.184204 
	C1512.924805,1732.184204 1502.764160,1732.184204 1491.750366,1732.184204 
	C1491.738037,1719.086182 1491.571289,1707.027466 1491.849365,1693.956421 
	C1504.062256,1693.956421 1514.865967,1693.956421 1525.795654,1693.956421 
	C1525.795654,1679.734253 1525.795654,1666.561646 1525.795654,1653.489624 
	C1514.372681,1651.453247 1445.110718,1651.876831 1438.237671,1653.928345 
	C1436.315430,1675.591309 1437.229492,1849.841797 1439.284790,1857.003906 
	C1469.426025,1857.003906 1499.543335,1857.003906 1529.804688,1857.003906 
	C1529.804688,1843.107788 1529.804688,1829.922974 1529.804688,1815.720459 
	C1517.177124,1815.720459 1505.023193,1815.720459 1492.346436,1815.720459 
	C1492.346436,1800.630981 1492.346436,1786.567261 1492.346436,1771.709106 
	C1499.569336,1771.709106 1506.167969,1771.709106 1514.694336,1771.709229 
M1844.138184,1720.975342 
	C1833.687256,1754.936401 1822.911255,1788.802734 1812.971069,1822.912598 
	C1809.734131,1834.020386 1811.697021,1845.714600 1812.099121,1856.996094 
	C1845.463501,1856.996094 1877.575806,1856.996094 1909.798706,1856.996094 
	C1909.798706,1843.088989 1909.798706,1829.904297 1909.798706,1815.815552 
	C1897.155273,1815.815552 1884.996826,1815.815552 1872.131104,1815.815552 
	C1872.761597,1812.923218 1873.020874,1811.006104 1873.598877,1809.190552 
	C1882.567627,1781.021362 1891.053467,1752.683105 1900.756226,1724.768188 
	C1907.606934,1705.058594 1912.313354,1685.321045 1910.353027,1664.343994 
	C1909.996216,1660.525391 1910.037476,1656.669556 1909.897217,1652.893066 
	C1878.220581,1652.893066 1847.754883,1652.893066 1817.045898,1652.893066 
	C1817.045898,1666.918579 1817.045898,1680.329468 1817.045898,1694.648438 
	C1828.911011,1694.648438 1840.035278,1694.648438 1851.963745,1694.648438 
	C1849.274170,1703.618164 1846.904663,1711.520386 1844.138184,1720.975342 
M483.678162,1678.917969 
	C483.678162,1683.795654 483.678162,1688.673340 483.678162,1694.426270 
	C495.754730,1694.426270 506.580719,1694.426270 518.158936,1694.426270 
	C517.517029,1697.325195 517.227966,1699.225342 516.673950,1701.044800 
	C504.578766,1740.765015 492.469910,1780.481201 480.322876,1820.185669 
	C477.668457,1828.862061 477.453094,1849.277832 480.008942,1857.046753 
	C511.906158,1857.046753 543.733093,1857.046753 576.286194,1857.046753 
	C576.231873,1842.943115 576.600220,1829.510620 576.055115,1816.087769 
	C562.995911,1814.956787 551.125671,1816.640259 538.873352,1814.888428 
	C539.723267,1811.488037 540.152893,1809.233398 540.849243,1807.064331 
	C550.192322,1777.962036 558.724487,1748.561279 569.218384,1719.878662 
	C577.255676,1697.910767 576.838074,1675.825806 575.772949,1652.806396 
	C545.066956,1652.806396 514.949158,1652.806396 483.678009,1652.806396 
	C483.678009,1661.167847 483.678009,1669.060669 483.678162,1678.917969 
z"/>
<path fill="#019EDA" opacity="1.000000" stroke="none" 
	d="
M1164.336548,750.350830 
	C1187.408447,736.077820 1205.755981,717.062439 1219.223145,693.659363 
	C1226.312378,681.339844 1231.826416,668.113892 1238.561768,654.247009 
	C1241.340088,656.762146 1245.108765,659.396973 1247.903198,662.825745 
	C1272.158936,692.587585 1288.328369,726.270569 1293.426636,764.398193 
	C1298.625977,803.281799 1286.084351,836.273621 1257.454834,863.464355 
	C1240.090332,879.956482 1219.322876,891.258362 1199.459106,903.966309 
	C1173.036621,920.870117 1147.768921,939.294983 1125.418457,961.322571 
	C1101.211426,985.179810 1081.567017,1012.149658 1071.725464,1045.364014 
	C1053.328247,1107.452881 1077.520142,1176.835083 1134.448120,1209.693115 
	C1155.694702,1221.956177 1178.716064,1227.085205 1203.330322,1226.429688 
	C1234.659424,1225.595093 1262.788208,1216.055908 1287.540039,1197.048706 
	C1303.810425,1184.554443 1316.327881,1168.999390 1318.765259,1147.865845 
	C1321.816406,1121.411743 1313.985718,1098.351440 1293.156982,1081.100708 
	C1277.505737,1068.138184 1250.491455,1068.349976 1229.941040,1080.105103 
	C1212.338257,1090.174072 1199.666016,1104.816895 1190.050781,1122.385986 
	C1188.974731,1124.351929 1187.816650,1126.272827 1186.319702,1128.868042 
	C1175.169189,1120.501831 1170.824585,1109.470703 1169.721436,1096.859863 
	C1168.369385,1081.402832 1171.850586,1066.420166 1174.635376,1051.382935 
	C1175.056519,1049.108276 1175.503174,1046.827393 1175.726318,1044.528809 
	C1179.306274,1007.647949 1198.527954,981.380554 1230.835327,964.437500 
	C1246.146240,956.407959 1262.095581,949.605774 1277.586670,941.907532 
	C1297.797852,931.863647 1315.794922,919.055725 1328.834351,900.081299 
	C1341.144775,882.167419 1348.870728,862.706482 1350.365967,840.889954 
	C1350.612915,837.286377 1351.483032,833.725464 1352.342896,828.436340 
	C1355.980957,830.831726 1359.207275,832.271179 1361.538818,834.604614 
	C1374.714355,847.791199 1387.317993,861.416870 1397.086914,877.517700 
	C1409.463013,897.915894 1414.012817,919.834839 1412.314697,943.453003 
	C1411.012939,961.558838 1407.604004,978.916199 1398.791870,995.074707 
	C1393.505737,1004.767395 1394.150269,1004.777100 1401.476562,1013.048645 
	C1406.529907,1018.753906 1411.264771,1024.855225 1415.351318,1031.282349 
	C1430.719116,1055.451294 1445.009888,1080.216919 1455.379639,1107.048462 
	C1461.652344,1123.279541 1465.214233,1140.206055 1467.482910,1157.328369 
	C1470.368896,1179.110962 1471.195312,1201.045776 1469.820801,1223.035522 
	C1468.143433,1249.872192 1461.756470,1275.652100 1450.969360,1300.115356 
	C1417.511597,1375.991211 1363.034546,1431.786377 1288.028442,1467.046753 
	C1262.959229,1478.831787 1236.012451,1485.387939 1208.739136,1490.081055 
	C1186.127319,1493.971924 1163.291748,1496.318604 1140.335449,1495.602783 
	C1091.311646,1494.074341 1044.265137,1483.894165 999.556091,1463.134888 
	C960.458191,1444.980835 925.676636,1420.691040 895.666138,1390.000488 
	C844.902954,1338.087036 811.800293,1276.330811 796.188477,1205.351562 
	C791.475403,1183.923340 788.909424,1162.247070 787.461243,1140.285522 
	C782.624512,1066.933228 798.069641,997.677429 827.737305,931.088806 
	C845.670715,890.837769 867.766846,852.877258 892.350525,816.393860 
	C922.860046,771.116333 954.172546,726.378967 984.577820,681.032471 
	C1012.608582,639.227356 1037.701172,595.718140 1056.453125,548.839233 
	C1074.056763,504.831116 1085.104248,458.998718 1093.686523,412.515778 
	C1094.765747,406.671021 1095.265869,400.719391 1096.099854,394.313599 
	C1101.849243,395.356293 1104.781006,399.729767 1107.664551,403.307495 
	C1141.153564,444.857788 1172.630737,487.660339 1192.169312,538.030579 
	C1205.357788,572.030151 1211.417847,607.092163 1209.641968,643.475464 
	C1208.324219,670.471497 1198.660645,694.538696 1183.551636,716.713135 
	C1176.619629,726.886719 1170.278931,737.463074 1162.973511,748.875305 
	C1162.331787,750.412048 1162.386597,750.930176 1162.441406,751.448364 
	C1163.073120,751.082520 1163.704834,750.716675 1164.336548,750.350830 
z"/>
<path fill="#F48323" opacity="1.000000" stroke="none" 
	d="
M704.330200,1846.143799 
	C697.972717,1852.792480 690.582275,1855.436646 682.359863,1855.853882 
	C668.101562,1856.577637 653.838257,1857.376831 639.567749,1857.640381 
	C622.966187,1857.947144 606.354675,1857.712158 589.027222,1857.712158 
	C589.027222,1789.219116 589.027222,1721.469849 589.027222,1653.037231 
	C591.548035,1652.789185 594.088928,1652.332886 596.631653,1652.322266 
	C612.621643,1652.255615 628.616455,1652.062012 644.600464,1652.378906 
	C653.208252,1652.549561 661.854187,1653.239380 670.384338,1654.412231 
	C692.136230,1657.402954 704.923157,1670.122070 707.564148,1692.327026 
	C708.775635,1702.512695 708.507446,1712.955688 708.014648,1723.239014 
	C707.567078,1732.578369 702.440247,1739.403564 693.844116,1743.400879 
	C691.467957,1744.505859 689.070435,1745.565063 686.100464,1746.908691 
	C688.538696,1748.063843 690.263733,1749.053589 692.104797,1749.725830 
	C705.839783,1754.741943 711.490417,1765.587524 712.071838,1779.142578 
	C712.699219,1793.769287 712.502991,1808.453735 712.062866,1823.094849 
	C711.821838,1831.110962 709.643127,1838.863281 704.330200,1846.143799 
M649.552185,1820.694946 
	C655.964539,1819.630981 658.311768,1815.407227 658.320496,1809.385864 
	C658.335388,1799.113281 658.488464,1788.838013 658.304077,1778.568848 
	C658.106262,1767.550781 655.351746,1765.480347 642.762329,1766.651367 
	C642.762329,1784.695068 642.762329,1802.785400 642.762329,1821.265991 
	C644.834961,1821.265991 646.427734,1821.265991 649.552185,1820.694946 
M642.263794,1712.945190 
	C642.263794,1719.152466 642.263794,1725.359741 642.263794,1731.415161 
	C655.352783,1732.952759 657.915955,1730.972778 658.299927,1719.597046 
	C658.500916,1713.643188 658.521973,1707.670410 658.302185,1701.718018 
	C657.917847,1691.311890 654.038330,1688.232300 642.263977,1689.413818 
	C642.263977,1696.526733 642.263977,1703.762329 642.263794,1712.945190 
z"/>
<path fill="#F48323" opacity="1.000000" stroke="none" 
	d="
M414.296265,1752.000000 
	C414.296356,1718.454346 414.296356,1685.908691 414.296356,1652.831787 
	C432.572418,1652.831787 449.731232,1652.831787 467.592041,1652.831787 
	C467.847351,1655.209839 468.289093,1657.415283 468.290863,1659.620972 
	C468.330261,1709.257080 468.179260,1758.893799 468.390167,1808.529053 
	C468.476837,1828.922119 460.943756,1844.980957 442.759094,1854.713745 
	C428.839813,1862.163696 413.438477,1862.957031 398.035522,1861.156250 
	C387.763550,1859.955322 377.878448,1857.119995 368.916534,1851.545410 
	C355.402985,1843.139648 348.035339,1830.898926 347.802399,1815.219604 
	C347.031036,1763.306763 346.755096,1711.386475 346.316559,1659.468994 
	C346.300140,1657.522461 346.569183,1655.573730 346.750488,1652.977783 
	C364.259094,1652.977783 381.412170,1652.977783 399.808411,1652.977783 
	C399.972198,1656.235840 400.297424,1659.720703 400.299927,1663.205933 
	C400.333710,1710.177002 400.271362,1757.148315 400.390320,1804.119141 
	C400.404510,1809.724243 400.941467,1815.410400 402.069611,1820.887329 
	C402.482849,1822.893555 405.238403,1825.674927 407.067230,1825.786987 
	C408.993713,1825.904907 412.144592,1823.654907 412.876129,1821.725220 
	C414.124451,1818.432129 414.221252,1814.583008 414.242523,1810.964111 
	C414.355988,1791.643311 414.296082,1772.321533 414.296265,1752.000000 
z"/>
<path fill="#F48221" opacity="1.000000" stroke="none" 
	d="
M978.580994,1857.677612 
	C976.411194,1856.793945 974.448547,1856.146362 974.119141,1855.020752 
	C973.485657,1852.855835 973.696838,1850.420166 973.696289,1848.096802 
	C973.681580,1786.133423 973.678589,1724.169922 973.703186,1662.206543 
	C973.704346,1659.280518 973.977173,1656.354614 974.150940,1652.877197 
	C988.851501,1652.877197 1003.060059,1652.877197 1018.525452,1652.877197 
	C1027.451050,1680.281860 1036.550903,1708.221558 1045.650757,1736.161133 
	C1046.317261,1736.078247 1046.983765,1735.995361 1047.650269,1735.912354 
	C1047.650269,1708.371460 1047.650269,1680.830566 1047.650269,1652.834961 
	C1062.965576,1652.834961 1077.101685,1652.834961 1091.762207,1652.834961 
	C1091.762207,1721.132446 1091.762207,1788.890381 1091.762207,1857.176270 
	C1076.344238,1857.176270 1061.467163,1857.176270 1045.230225,1857.176270 
	C1036.985718,1829.738281 1028.616211,1801.884521 1020.246643,1774.030762 
	C1019.636902,1774.086182 1019.027222,1774.141724 1018.417480,1774.197266 
	C1018.417480,1801.689087 1018.417480,1829.180908 1018.417480,1857.697754 
	C1004.663696,1857.697754 992.094788,1857.697754 978.580994,1857.677612 
z"/>
<path fill="#F48323" opacity="1.000000" stroke="none" 
	d="
M940.578613,1722.713623 
	C933.188599,1738.062012 934.457947,1752.312256 939.567383,1767.581421 
	C948.844727,1795.306641 956.433899,1823.597046 964.711792,1851.656128 
	C965.166321,1853.196899 965.475037,1854.780762 966.030396,1857.086914 
	C947.595154,1857.086914 929.795959,1857.086914 910.725647,1857.086914 
	C904.618103,1832.932251 898.402161,1808.348877 892.186279,1783.765381 
	C891.580688,1783.824951 890.975098,1783.884399 890.369507,1783.943848 
	C890.369507,1808.165771 890.369507,1832.387695 890.369507,1857.147705 
	C872.139465,1857.147705 854.962463,1857.147705 837.036621,1857.147705 
	C837.036621,1789.225220 837.036621,1721.456787 837.036621,1652.985596 
	C854.241455,1652.985596 871.399719,1652.985596 890.049500,1652.985596 
	C890.642090,1663.865356 890.235901,1675.044434 890.308594,1686.192261 
	C890.382141,1697.483032 890.324768,1708.774780 891.070129,1720.278198 
	C900.128601,1698.409790 905.347046,1675.272827 913.212952,1652.693237 
	C929.644531,1652.693237 945.896423,1652.693237 963.612793,1652.693237 
	C955.910522,1676.151001 948.387817,1699.061768 940.578613,1722.713623 
z"/>
<path fill="#F48323" opacity="1.000000" stroke="none" 
	d="
M1553.268555,1842.556152 
	C1545.170654,1831.300659 1542.351318,1819.215210 1542.278198,1806.270142 
	C1542.127808,1779.622437 1541.682617,1752.974487 1541.775146,1726.328247 
	C1541.811890,1715.726074 1542.965576,1705.128540 1543.587280,1694.527588 
	C1544.973877,1670.890015 1559.158203,1657.726562 1580.386475,1651.577148 
	C1601.248657,1645.533569 1621.840820,1647.192261 1641.021118,1658.277344 
	C1652.815308,1665.093628 1660.736572,1674.920410 1663.121582,1688.682861 
	C1665.331177,1701.432983 1666.655518,1714.215820 1665.140625,1727.731445 
	C1647.547729,1727.731445 1630.370605,1727.731445 1611.987183,1727.731445 
	C1611.884033,1719.932983 1611.890869,1712.082642 1611.632202,1704.241211 
	C1611.490723,1699.956177 1611.030151,1695.669067 1610.473633,1691.414307 
	C1609.956665,1687.461670 1608.300293,1684.235352 1603.582275,1684.476074 
	C1598.551880,1684.732422 1596.998291,1688.416870 1596.417603,1692.612915 
	C1596.008545,1695.569580 1595.870972,1698.586182 1595.880005,1701.575073 
	C1595.990479,1738.552612 1596.143555,1775.530151 1596.316040,1812.507446 
	C1596.325317,1814.495483 1596.332397,1816.551025 1596.814697,1818.454956 
	C1597.819214,1822.420776 1599.123413,1826.407593 1604.450195,1826.013794 
	C1609.340698,1825.652222 1611.205566,1822.151733 1611.953735,1817.971069 
	C1612.711670,1813.736206 1613.431763,1809.444946 1613.568970,1805.159302 
	C1613.823486,1797.207153 1613.641846,1789.241089 1613.641846,1780.658569 
	C1610.013062,1780.083008 1606.865234,1779.583740 1603.006592,1778.971680 
	C1603.006592,1768.967041 1603.006592,1758.869141 1603.006592,1748.269653 
	C1623.822144,1748.269653 1644.267212,1748.269653 1665.207764,1748.269653 
	C1665.207764,1784.698364 1665.207764,1820.531738 1665.207764,1857.669922 
	C1654.996582,1857.669922 1645.119751,1857.853760 1635.262329,1857.499756 
	C1633.498291,1857.436523 1631.326416,1855.473877 1630.214722,1853.806763 
	C1628.789062,1851.668335 1628.245850,1848.941406 1627.245361,1846.262329 
	C1626.151855,1846.713989 1624.909180,1846.819946 1624.462036,1847.471680 
	C1614.223755,1862.397095 1591.843506,1865.220581 1574.626221,1858.124634 
	C1566.447510,1854.753906 1559.564087,1849.695557 1553.268555,1842.556152 
z"/>
<path fill="#F48323" opacity="1.000000" stroke="none" 
	d="
M1710.468750,1652.287598 
	C1732.698975,1652.287598 1753.980835,1652.287598 1776.617554,1652.287598 
	C1787.069702,1720.621460 1797.020264,1788.667725 1807.161743,1857.249512 
	C1788.652222,1857.249512 1770.806763,1857.249512 1752.203491,1857.249512 
	C1751.141968,1845.202148 1750.106567,1833.450317 1749.012573,1821.034424 
	C1743.020508,1821.034424 1737.302734,1821.034424 1731.121704,1821.034424 
	C1730.072632,1833.148438 1729.078857,1844.625854 1728.096191,1855.973267 
	C1720.940552,1858.091187 1687.308716,1858.602173 1672.354980,1856.741943 
	C1681.280396,1788.991577 1690.204956,1721.247437 1699.219727,1652.818237 
	C1703.081055,1652.619263 1706.300781,1652.453491 1710.468750,1652.287598 
M1746.307617,1770.537720 
	C1745.645386,1763.968506 1744.978027,1757.399780 1744.322266,1750.829956 
	C1743.666504,1744.259521 1742.870361,1737.698730 1742.404785,1731.114746 
	C1741.390747,1716.779175 1741.460693,1716.774170 1738.414673,1713.313232 
	C1735.824829,1736.722168 1733.264404,1759.866333 1730.714600,1782.913818 
	C1737.152100,1782.913818 1742.207764,1782.913818 1747.547119,1782.913818 
	C1747.087891,1778.800049 1746.725952,1775.556641 1746.307617,1770.537720 
z"/>
<path fill="#F48222" opacity="1.000000" stroke="none" 
	d="
M744.179199,1652.292480 
	C769.460327,1652.292603 793.761719,1652.292603 819.431274,1652.292603 
	C819.940125,1666.237305 819.684143,1679.651001 819.581665,1693.955200 
	C807.915100,1693.955200 797.044739,1693.955200 786.485901,1693.955200 
	C783.889038,1701.479004 783.447266,1717.881592 785.338074,1731.947510 
	C795.000427,1731.947510 804.844421,1731.947510 815.693665,1731.947510 
	C816.935547,1745.304321 816.054871,1757.786865 816.325806,1771.506836 
	C805.624023,1771.506836 795.501770,1771.506836 784.866516,1771.506836 
	C784.866516,1786.580322 784.866516,1800.406006 784.866516,1815.205688 
	C797.043762,1815.205688 808.886292,1815.205688 822.094604,1815.205688 
	C822.518555,1829.571045 822.275391,1843.003540 822.266602,1857.077148 
	C791.330872,1857.077148 761.192505,1857.077148 730.365845,1857.077148 
	C730.365845,1789.090576 730.365845,1721.315918 730.365845,1652.292358 
	C734.747070,1652.292358 738.973328,1652.292358 744.179199,1652.292480 
z"/>
<path fill="#F48223" opacity="1.000000" stroke="none" 
	d="
M1167.995972,1652.289062 
	C1179.311401,1652.289062 1189.627808,1652.289062 1199.788574,1652.289062 
	C1202.124756,1659.480225 1202.581299,1679.412720 1200.737549,1693.915405 
	C1189.743164,1693.915405 1178.572754,1693.915405 1166.397583,1693.915405 
	C1165.018311,1706.890137 1166.056274,1718.976318 1165.656006,1732.090332 
	C1176.657837,1732.090332 1186.820679,1732.090332 1197.634766,1732.090332 
	C1197.634766,1745.569336 1197.634766,1758.016846 1197.634766,1771.492188 
	C1187.299438,1771.492188 1177.133301,1771.492188 1166.348022,1771.492188 
	C1166.348022,1786.330688 1166.348022,1800.174072 1166.348022,1815.056274 
	C1178.342163,1815.056274 1190.492432,1815.056274 1203.985229,1815.056274 
	C1204.673096,1829.471802 1204.172607,1842.916504 1204.284668,1857.037354 
	C1173.443726,1857.037354 1143.307495,1857.037354 1112.422363,1857.037354 
	C1112.422363,1789.195435 1112.422363,1721.425293 1112.422363,1652.288940 
	C1130.582397,1652.288940 1148.789551,1652.288940 1167.995972,1652.289062 
z"/>
<path fill="#F48222" opacity="1.000000" stroke="none" 
	d="
M1513.730469,1771.709229 
	C1506.167969,1771.709106 1499.569336,1771.709106 1492.346436,1771.709106 
	C1492.346436,1786.567261 1492.346436,1800.630981 1492.346436,1815.720459 
	C1505.023193,1815.720459 1517.177124,1815.720459 1529.804688,1815.720459 
	C1529.804688,1829.922974 1529.804688,1843.107788 1529.804688,1857.003906 
	C1499.543335,1857.003906 1469.426025,1857.003906 1439.284790,1857.003906 
	C1437.229492,1849.841797 1436.315430,1675.591309 1438.237671,1653.928345 
	C1445.110718,1651.876831 1514.372681,1651.453247 1525.795654,1653.489624 
	C1525.795654,1666.561646 1525.795654,1679.734253 1525.795654,1693.956421 
	C1514.865967,1693.956421 1504.062256,1693.956421 1491.849365,1693.956421 
	C1491.571289,1707.027466 1491.738037,1719.086182 1491.750366,1732.184204 
	C1502.764160,1732.184204 1512.924805,1732.184204 1523.681519,1732.184204 
	C1523.681519,1745.645264 1523.681519,1758.085938 1523.681519,1771.170288 
	C1520.499146,1771.361206 1517.596802,1771.535156 1513.730469,1771.709229 
z"/>
<path fill="#F48323" opacity="1.000000" stroke="none" 
	d="
M1844.336670,1720.198975 
	C1846.904663,1711.520386 1849.274170,1703.618164 1851.963745,1694.648438 
	C1840.035278,1694.648438 1828.911011,1694.648438 1817.045898,1694.648438 
	C1817.045898,1680.329468 1817.045898,1666.918579 1817.045898,1652.893066 
	C1847.754883,1652.893066 1878.220581,1652.893066 1909.897217,1652.893066 
	C1910.037476,1656.669556 1909.996216,1660.525391 1910.353027,1664.343994 
	C1912.313354,1685.321045 1907.606934,1705.058594 1900.756226,1724.768188 
	C1891.053467,1752.683105 1882.567627,1781.021362 1873.598877,1809.190552 
	C1873.020874,1811.006104 1872.761597,1812.923218 1872.131104,1815.815552 
	C1884.996826,1815.815552 1897.155273,1815.815552 1909.798706,1815.815552 
	C1909.798706,1829.904297 1909.798706,1843.088989 1909.798706,1856.996094 
	C1877.575806,1856.996094 1845.463501,1856.996094 1812.099121,1856.996094 
	C1811.697021,1845.714600 1809.734131,1834.020386 1812.971069,1822.912598 
	C1822.911255,1788.802734 1833.687256,1754.936401 1844.336670,1720.198975 
z"/>
<path fill="#F48223" opacity="1.000000" stroke="none" 
	d="
M483.678101,1677.935791 
	C483.678009,1669.060669 483.678009,1661.167847 483.678009,1652.806396 
	C514.949158,1652.806396 545.066956,1652.806396 575.772949,1652.806396 
	C576.838074,1675.825806 577.255676,1697.910767 569.218384,1719.878662 
	C558.724487,1748.561279 550.192322,1777.962036 540.849243,1807.064331 
	C540.152893,1809.233398 539.723267,1811.488037 538.873352,1814.888428 
	C551.125671,1816.640259 562.995911,1814.956787 576.055115,1816.087769 
	C576.600220,1829.510620 576.231873,1842.943115 576.286194,1857.046753 
	C543.733093,1857.046753 511.906158,1857.046753 480.008942,1857.046753 
	C477.453094,1849.277832 477.668457,1828.862061 480.322876,1820.185669 
	C492.469910,1780.481201 504.578766,1740.765015 516.673950,1701.044800 
	C517.227966,1699.225342 517.517029,1697.325195 518.158936,1694.426270 
	C506.580719,1694.426270 495.754730,1694.426270 483.678162,1694.426270 
	C483.678162,1688.673340 483.678162,1683.795654 483.678101,1677.935791 
z"/>
<path fill="#F48223" opacity="1.000000" stroke="none" 
	d="
M1308.122559,1694.044556 
	C1296.520142,1694.044556 1284.917725,1694.044556 1272.324951,1694.044556 
	C1271.157349,1706.976440 1271.790405,1719.042114 1271.904175,1732.138672 
	C1282.716675,1732.138672 1292.873535,1732.138672 1303.656128,1732.138672 
	C1303.656128,1745.595093 1303.656128,1758.036011 1303.656128,1771.490967 
	C1293.297607,1771.490967 1283.138550,1771.490967 1272.125000,1771.490967 
	C1272.125000,1800.291870 1272.125000,1828.114258 1272.125000,1855.636963 
	C1264.604736,1858.117065 1233.960205,1858.698975 1218.395874,1856.831177 
	C1218.395874,1789.197510 1218.395874,1721.472046 1218.395874,1652.272583 
	C1247.430542,1652.272583 1276.588989,1652.272583 1306.863159,1653.133545 
	C1308.026733,1667.344482 1308.074707,1680.694458 1308.122559,1694.044556 
z"/>
<path fill="#F48323" opacity="1.000000" stroke="none" 
	d="
M1310.774536,1652.322144 
	C1349.347168,1652.322144 1387.919678,1652.322144 1427.095581,1652.322144 
	C1427.095581,1666.422241 1427.095581,1679.583984 1427.095581,1694.059082 
	C1416.981079,1694.059082 1406.887085,1694.059082 1396.039795,1694.059082 
	C1396.039795,1748.889038 1396.039795,1802.424927 1396.039795,1855.698730 
	C1388.535889,1858.122681 1357.161133,1858.671875 1341.829102,1856.713989 
	C1341.829102,1803.130249 1341.829102,1749.369995 1341.829102,1694.134644 
	C1331.094727,1694.134644 1321.546509,1694.134644 1311.052734,1693.102295 
	C1310.329590,1678.820679 1310.552002,1665.571411 1310.774536,1652.322144 
z"/>
<path fill="#FEF6F0" opacity="1.000000" stroke="none" 
	d="
M1309.974121,1652.245605 
	C1310.552002,1665.571411 1310.329590,1678.820679 1310.134033,1693.001709 
	C1309.821899,1693.963135 1309.482788,1693.992920 1308.633057,1694.033569 
	C1308.074707,1680.694458 1308.026733,1667.344482 1307.772339,1653.089233 
	C1308.101685,1652.179077 1308.637695,1652.174194 1309.974121,1652.245605 
z"/>
<path fill="#FFFFFF" opacity="1.000000" stroke="none" 
	d="
M1164.026123,750.032104 
	C1163.704834,750.716675 1163.073120,751.082520 1162.441406,751.448364 
	C1162.386597,750.930176 1162.331787,750.412048 1162.677979,749.492676 
	C1163.078857,749.091553 1163.715576,749.713379 1164.026123,750.032104 
z"/>
<path fill="#FEF9F5" opacity="1.000000" stroke="none" 
	d="
M648.786377,1820.980469 
	C646.427734,1821.265991 644.834961,1821.265991 642.762329,1821.265991 
	C642.762329,1802.785400 642.762329,1784.695068 642.762329,1766.651367 
	C655.351746,1765.480347 658.106262,1767.550781 658.304077,1778.568848 
	C658.488464,1788.838013 658.335388,1799.113281 658.320496,1809.385864 
	C658.311768,1815.407227 655.964539,1819.630981 648.786377,1820.980469 
z"/>
<path fill="#FEF9F5" opacity="1.000000" stroke="none" 
	d="
M642.263916,1711.971436 
	C642.263977,1703.762329 642.263977,1696.526733 642.263977,1689.413818 
	C654.038330,1688.232300 657.917847,1691.311890 658.302185,1701.718018 
	C658.521973,1707.670410 658.500916,1713.643188 658.299927,1719.597046 
	C657.915955,1730.972778 655.352783,1732.952759 642.263794,1731.415161 
	C642.263794,1725.359741 642.263794,1719.152466 642.263916,1711.971436 
z"/>
<path fill="#FEF6F0" opacity="1.000000" stroke="none" 
	d="
M1746.335693,1771.425537 
	C1746.725952,1775.556641 1747.087891,1778.800049 1747.547119,1782.913818 
	C1742.207764,1782.913818 1737.152100,1782.913818 1730.714600,1782.913818 
	C1733.264404,1759.866333 1735.824829,1736.722168 1738.414673,1713.313232 
	C1741.460693,1716.774170 1741.390747,1716.779175 1742.404785,1731.114746 
	C1742.870361,1737.698730 1743.666504,1744.259521 1744.322266,1750.829956 
	C1744.978027,1757.399780 1745.645386,1763.968506 1746.335693,1771.425537 
z"/>
</svg>