<svg width="64" height="64" viewBox="0 0 64 64" fill="none" xmlns="http://www.w3.org/2000/svg">
<g clip-path="url(#clip0_22_114)">
<path d="M0 25.6C0 16.64 0 12.159 1.744 8.736C3.27795 5.72554 5.72554 3.27795 8.736 1.744C12.16 0 16.64 0 25.6 0H38.4C47.36 0 51.841 0 55.264 1.744C58.2745 3.27795 60.722 5.72554 62.256 8.736C64 12.16 64 16.64 64 25.6V38.4C64 47.36 64 51.841 62.256 55.264C60.722 58.2745 58.2745 60.722 55.264 62.256C51.84 64 47.36 64 38.4 64H25.6C16.64 64 12.159 64 8.736 62.256C5.72554 60.722 3.27795 58.2745 1.744 55.264C0 51.84 0 47.36 0 38.4V25.6Z" fill="url(#paint0_linear_22_114)"/>
<mask id="mask0_22_114" style="mask-type:luminance" maskUnits="userSpaceOnUse" x="15" y="14" width="36" height="36">
<path d="M15 14H51V50H15V14Z" fill="white"/>
</mask>
<g mask="url(#mask0_22_114)">
<path d="M49.5 32C49.5064 30.6825 49.2436 29.3776 48.7277 28.1653C48.2118 26.9531 47.4538 25.8589 46.5 24.95V19.25C46.5 18.8522 46.342 18.4706 46.0607 18.1893C45.7794 17.908 45.3978 17.75 45 17.75H18C17.6022 17.75 17.2206 17.908 16.9393 18.1893C16.658 18.4706 16.5 18.8522 16.5 19.25V44.75C16.5 45.1478 16.658 45.5294 16.9393 45.8107C17.2206 46.092 17.6022 46.25 18 46.25H34.5V47.45C34.5 48.95 36 49.775 36.975 48.8L39.75 46.25L42.525 48.8C43.5 49.775 45 48.95 45 47.45V40.175C46.3785 39.3023 47.514 38.0952 48.3007 36.6659C49.0875 35.2366 49.5001 33.6315 49.5 32ZM39.75 25.25C41.5402 25.25 43.2571 25.9612 44.523 27.227C45.7888 28.4929 46.5 30.2098 46.5 32C46.5 33.7902 45.7888 35.5071 44.523 36.773C43.2571 38.0388 41.5402 38.75 39.75 38.75C37.9598 38.75 36.2429 38.0388 34.977 36.773C33.7112 35.5071 33 33.7902 33 32C33 30.2098 33.7112 28.4929 34.977 27.227C36.2429 25.9612 37.9598 25.25 39.75 25.25ZM24 24.5H33.525L32.25 25.775C31.8069 26.3026 31.4291 26.8818 31.125 27.5H24C23.6022 27.5 23.2206 27.342 22.9393 27.0607C22.658 26.7794 22.5 26.3978 22.5 26C22.5 25.6022 22.658 25.2206 22.9393 24.9393C23.2206 24.658 23.6022 24.5 24 24.5ZM24 30.5H30.15C30.023 30.99 29.972 31.495 30 32C29.9754 32.5047 30.026 33.0102 30.15 33.5H24C23.6022 33.5 23.2206 33.342 22.9393 33.0607C22.658 32.7794 22.5 32.3978 22.5 32C22.5 31.6022 22.658 31.2206 22.9393 30.9393C23.2206 30.658 23.6022 30.5 24 30.5ZM24 39.5C23.6022 39.5 23.2206 39.342 22.9393 39.0607C22.658 38.7794 22.5 38.3978 22.5 38C22.5 37.6022 22.658 37.2206 22.9393 36.9393C23.2206 36.658 23.6022 36.5 24 36.5H31.125C31.4291 37.1182 31.8069 37.6974 32.25 38.225C32.637 38.687 33.063 39.113 33.525 39.5H24Z" fill="url(#paint1_linear_22_114)"/>
<path d="M39.75 35.75C40.7446 35.75 41.6984 35.3549 42.4016 34.6516C43.1049 33.9484 43.5 32.9946 43.5 32C43.5 31.0054 43.1049 30.0516 42.4016 29.3483C41.6984 28.6451 40.7446 28.25 39.75 28.25C38.7554 28.25 37.8016 28.6451 37.0984 29.3483C36.3951 30.0516 36 31.0054 36 32C36 32.9946 36.3951 33.9484 37.0984 34.6516C37.8016 35.3549 38.7554 35.75 39.75 35.75Z" fill="url(#paint2_linear_22_114)"/>
</g>
</g>
<defs>
<linearGradient id="paint0_linear_22_114" x1="32" y1="0" x2="32" y2="64" gradientUnits="userSpaceOnUse">
<stop stop-color="#6199FF"/>
<stop offset="1" stop-color="#045CFB"/>
</linearGradient>
<linearGradient id="paint1_linear_22_114" x1="33" y1="17.75" x2="33" y2="49.222" gradientUnits="userSpaceOnUse">
<stop stop-color="white"/>
<stop offset="1" stop-color="white" stop-opacity="0.7"/>
</linearGradient>
<linearGradient id="paint2_linear_22_114" x1="39.75" y1="28.25" x2="39.75" y2="35.75" gradientUnits="userSpaceOnUse">
<stop stop-color="white"/>
<stop offset="1" stop-color="white" stop-opacity="0.7"/>
</linearGradient>
<clipPath id="clip0_22_114">
<rect width="64" height="64" fill="white"/>
</clipPath>
</defs>
</svg>
