<svg width="64" height="64" viewBox="0 0 64 64" fill="none" xmlns="http://www.w3.org/2000/svg">
<g clip-path="url(#clip0_22_102)">
<path d="M0 25.6C0 16.64 0 12.159 1.744 8.736C3.27795 5.72554 5.72554 3.27795 8.736 1.744C12.16 0 16.64 0 25.6 0H38.4C47.36 0 51.841 0 55.264 1.744C58.2745 3.27795 60.722 5.72554 62.256 8.736C64 12.16 64 16.64 64 25.6V38.4C64 47.36 64 51.841 62.256 55.264C60.722 58.2745 58.2745 60.722 55.264 62.256C51.84 64 47.36 64 38.4 64H25.6C16.64 64 12.159 64 8.736 62.256C5.72554 60.722 3.27795 58.2745 1.744 55.264C0 51.84 0 47.36 0 38.4V25.6Z" fill="url(#paint0_linear_22_102)"/>
<mask id="mask0_22_102" style="mask-type:luminance" maskUnits="userSpaceOnUse" x="13" y="13" width="38" height="38">
<path d="M13 13H51V51H13V13Z" fill="white"/>
</mask>
<g mask="url(#mask0_22_102)">
<g filter="url(#filter0_d_22_102)">
<path d="M29.583 22.749L24.819 17.985C24.7101 17.876 24.5807 17.7896 24.4384 17.7307C24.2961 17.6717 24.1435 17.6414 23.9895 17.6414C23.8354 17.6414 23.6829 17.6717 23.5406 17.7307C23.3982 17.7896 23.2689 17.876 23.16 17.985L13.344 27.8C13.2351 27.9089 13.1486 28.0382 13.0897 28.1806C13.0307 28.3229 13.0004 28.4754 13.0004 28.6295C13.0004 28.7835 13.0307 28.9361 13.0897 29.0784C13.1486 29.2207 13.2351 29.3501 13.344 29.459L18.108 34.223C18.565 34.681 19.308 34.681 19.766 34.223L29.583 24.406C30.041 23.948 30.041 23.206 29.583 22.748V22.749Z" fill="url(#paint1_linear_22_102)"/>
</g>
<g filter="url(#filter1_d_22_102)">
<path d="M50.657 27.801L40.84 17.985C40.6201 17.7653 40.3219 17.6418 40.011 17.6418C39.7001 17.6418 39.402 17.7653 39.182 17.985L34.418 22.749C34.1983 22.9689 34.0749 23.2671 34.0749 23.578C34.0749 23.8889 34.1983 24.187 34.418 24.407L44.234 34.224C44.3429 34.3329 44.4723 34.4193 44.6146 34.4783C44.7569 34.5373 44.9095 34.5676 45.0635 34.5676C45.2176 34.5676 45.3701 34.5373 45.5124 34.4783C45.6548 34.4193 45.7841 34.3329 45.893 34.224L50.657 29.46C51.115 29.002 51.115 28.26 50.657 27.801Z" fill="url(#paint2_linear_22_102)"/>
</g>
<g filter="url(#filter2_d_22_102)">
<path d="M40.688 33.853L33.375 26.541C32.8985 26.0653 32.2958 25.7359 31.638 25.592C31.305 26.068 21.288 36.019 21.123 36.152C21.27 36.792 21.595 37.384 22.064 37.852L29.128 44.916C31.667 47.456 34.191 46.214 35.077 44.469L30.59 39.983C30.3699 39.763 30.2461 39.4646 30.246 39.1534C30.2459 38.8422 30.3695 38.5437 30.5895 38.3235C30.8095 38.1034 31.1079 37.9797 31.4191 37.9796C31.7303 37.9795 32.0289 38.103 32.249 38.323L36.722 42.797C37.2092 42.5603 37.6338 42.2121 37.9615 41.7808C38.2892 41.3494 38.5106 40.8469 38.608 40.314L34.433 36.139C34.3203 36.031 34.2303 35.9015 34.1683 35.7582C34.1063 35.6149 34.0736 35.4607 34.072 35.3045C34.0704 35.1484 34.0999 34.9935 34.159 34.849C34.218 34.7045 34.3053 34.5731 34.4157 34.4628C34.5262 34.3524 34.6575 34.2652 34.8021 34.2063C34.9467 34.1473 35.1016 34.1178 35.2577 34.1195C35.4138 34.1212 35.568 34.1541 35.7113 34.2162C35.8546 34.2782 35.984 34.3683 36.092 34.481L40.692 39.081C42.153 37.809 42.395 35.561 40.688 33.853Z" fill="url(#paint3_linear_22_102)"/>
</g>
</g>
</g>
<defs>
<filter id="filter0_d_22_102" x="11.0004" y="16.6414" width="20.9261" height="20.9252" filterUnits="userSpaceOnUse" color-interpolation-filters="sRGB">
<feFlood flood-opacity="0" result="BackgroundImageFix"/>
<feColorMatrix in="SourceAlpha" type="matrix" values="0 0 0 0 0 0 0 0 0 0 0 0 0 0 0 0 0 0 127 0" result="hardAlpha"/>
<feOffset dy="1"/>
<feGaussianBlur stdDeviation="1"/>
<feComposite in2="hardAlpha" operator="out"/>
<feColorMatrix type="matrix" values="0 0 0 0 0.0784314 0 0 0 0 0.0823529 0 0 0 0 0.101961 0 0 0 0.05 0"/>
<feBlend mode="normal" in2="BackgroundImageFix" result="effect1_dropShadow_22_102"/>
<feBlend mode="normal" in="SourceGraphic" in2="effect1_dropShadow_22_102" result="shape"/>
</filter>
<filter id="filter1_d_22_102" x="32.0749" y="16.6418" width="20.9257" height="20.9258" filterUnits="userSpaceOnUse" color-interpolation-filters="sRGB">
<feFlood flood-opacity="0" result="BackgroundImageFix"/>
<feColorMatrix in="SourceAlpha" type="matrix" values="0 0 0 0 0 0 0 0 0 0 0 0 0 0 0 0 0 0 127 0" result="hardAlpha"/>
<feOffset dy="1"/>
<feGaussianBlur stdDeviation="1"/>
<feComposite in2="hardAlpha" operator="out"/>
<feColorMatrix type="matrix" values="0 0 0 0 0.0784314 0 0 0 0 0.0823529 0 0 0 0 0.101961 0 0 0 0.05 0"/>
<feBlend mode="normal" in2="BackgroundImageFix" result="effect1_dropShadow_22_102"/>
<feBlend mode="normal" in="SourceGraphic" in2="effect1_dropShadow_22_102" result="shape"/>
</filter>
<filter id="filter2_d_22_102" x="19.123" y="24.592" width="24.7567" height="24.767" filterUnits="userSpaceOnUse" color-interpolation-filters="sRGB">
<feFlood flood-opacity="0" result="BackgroundImageFix"/>
<feColorMatrix in="SourceAlpha" type="matrix" values="0 0 0 0 0 0 0 0 0 0 0 0 0 0 0 0 0 0 127 0" result="hardAlpha"/>
<feOffset dy="1"/>
<feGaussianBlur stdDeviation="1"/>
<feComposite in2="hardAlpha" operator="out"/>
<feColorMatrix type="matrix" values="0 0 0 0 0.0784314 0 0 0 0 0.0823529 0 0 0 0 0.101961 0 0 0 0.05 0"/>
<feBlend mode="normal" in2="BackgroundImageFix" result="effect1_dropShadow_22_102"/>
<feBlend mode="normal" in="SourceGraphic" in2="effect1_dropShadow_22_102" result="shape"/>
</filter>
<linearGradient id="paint0_linear_22_102" x1="32" y1="0" x2="32" y2="64" gradientUnits="userSpaceOnUse">
<stop stop-color="#6199FF"/>
<stop offset="1" stop-color="#045CFB"/>
</linearGradient>
<linearGradient id="paint1_linear_22_102" x1="21.463" y1="17.641" x2="21.463" y2="34.567" gradientUnits="userSpaceOnUse">
<stop stop-color="white"/>
<stop offset="1" stop-color="white" stop-opacity="0.7"/>
</linearGradient>
<linearGradient id="paint2_linear_22_102" x1="42.537" y1="17.641" x2="42.537" y2="34.567" gradientUnits="userSpaceOnUse">
<stop stop-color="white"/>
<stop offset="1" stop-color="white" stop-opacity="0.7"/>
</linearGradient>
<linearGradient id="paint3_linear_22_102" x1="31.501" y1="25.592" x2="31.501" y2="46.359" gradientUnits="userSpaceOnUse">
<stop stop-color="white"/>
<stop offset="1" stop-color="white" stop-opacity="0.7"/>
</linearGradient>
<clipPath id="clip0_22_102">
<rect width="64" height="64" fill="white"/>
</clipPath>
</defs>
</svg>
