<svg width="24" height="24" viewBox="0 0 24 24" fill="none" xmlns="http://www.w3.org/2000/svg">
<path d="M21.75 12C21.75 12.0478 21.75 12.0937 21.75 12.1425C21.7181 13.4793 21.2222 15 19.125 15C16.9556 15 16.5 13.3687 16.5 12V8.24996C16.5002 8.14714 16.4793 8.04538 16.4385 7.95099C16.3978 7.8566 16.3381 7.77159 16.2631 7.70126C16.1881 7.63092 16.0994 7.57676 16.0026 7.54213C15.9058 7.5075 15.8029 7.49315 15.7003 7.49996C15.5071 7.51655 15.3274 7.60579 15.1974 7.74968C15.0675 7.89357 14.9969 8.0814 15 8.27527V8.65027C14.3229 8.04345 13.4779 7.65596 12.5763 7.53884C11.6747 7.42171 10.7587 7.58045 9.94911 7.99413C9.13947 8.40782 8.47414 9.05705 8.04075 9.85631C7.60736 10.6556 7.42624 11.5674 7.52125 12.4716C7.61626 13.3758 7.98294 14.23 8.573 14.9218C9.16305 15.6135 9.9488 16.1102 10.8267 16.3466C11.7047 16.583 12.6336 16.5479 13.4912 16.2459C14.3488 15.9439 15.0948 15.3893 15.6309 14.655C15.7247 14.8189 15.8306 14.9756 15.9478 15.1237C16.4513 15.75 17.4103 16.5 19.125 16.5C19.4146 16.5009 19.7037 16.4774 19.9894 16.4296C20.06 16.4179 20.1325 16.4266 20.1983 16.4547C20.2642 16.4828 20.3206 16.5292 20.3609 16.5883C20.4012 16.6475 20.4238 16.7169 20.4259 16.7885C20.428 16.8601 20.4096 16.9307 20.3728 16.9921C19.4914 18.4707 18.2343 19.6897 16.7294 20.5254C15.2244 21.361 13.5251 21.7835 11.8041 21.75C6.66844 21.6468 2.45625 17.5181 2.2575 12.3853C2.20666 11.0899 2.41466 9.79742 2.86932 8.58341C3.32397 7.3694 4.01616 6.25825 4.90539 5.31495C5.79462 4.37166 6.86304 3.61516 8.04813 3.08972C9.23323 2.56429 10.5112 2.28045 11.8073 2.25483C13.1034 2.22921 14.3916 2.46232 15.5965 2.94051C16.8015 3.41871 17.899 4.13239 18.8248 5.0398C19.7506 5.94722 20.4861 7.03015 20.9884 8.22525C21.4907 9.42034 21.7496 10.7036 21.75 12ZM9 12C9 12.5933 9.17595 13.1733 9.50559 13.6667C9.83524 14.16 10.3038 14.5445 10.8519 14.7716C11.4001 14.9987 12.0033 15.0581 12.5853 14.9423C13.1672 14.8266 13.7018 14.5408 14.1213 14.1213C14.5409 13.7017 14.8266 13.1672 14.9424 12.5852C15.0581 12.0033 14.9987 11.4001 14.7716 10.8519C14.5446 10.3037 14.1601 9.83519 13.6667 9.50555C13.1734 9.17591 12.5933 8.99996 12 8.99996C11.2044 8.99996 10.4413 9.31603 9.87868 9.87864C9.31607 10.4412 9 11.2043 9 12Z" fill="#784FFF"/>
</svg>
