<svg width="23" height="17" viewBox="0 0 23 17" fill="none" xmlns="http://www.w3.org/2000/svg">
<path d="M22.4934 7.92375C22.3228 3.51937 18.6628 0 14.2556 0C12.7225 0.000239929 11.2197 0.427182 9.91552 1.23303C8.61129 2.03888 7.55709 3.19183 6.87094 4.56281C6.30066 5.69941 6.00249 6.95305 6 8.22469C6.00294 8.41791 5.93282 8.60511 5.80367 8.74886C5.67453 8.89261 5.49587 8.9823 5.30344 9C5.20055 9.00735 5.09724 8.9934 4.99999 8.95901C4.90273 8.92462 4.81362 8.87055 4.73821 8.80015C4.66281 8.72976 4.60273 8.64458 4.56175 8.54992C4.52076 8.45525 4.49974 8.35315 4.5 8.25C4.49921 7.20097 4.66827 6.15874 5.00063 5.16375C5.02252 5.09995 5.02681 5.03143 5.01303 4.9654C4.99925 4.89937 4.96791 4.83828 4.92232 4.78856C4.87674 4.73885 4.81858 4.70235 4.75399 4.68292C4.6894 4.66348 4.62077 4.66182 4.55531 4.67813C3.25577 5.00203 2.1017 5.75083 1.27639 6.80562C0.451072 7.86041 0.00182763 9.1607 0 10.5C0 13.7991 2.78906 16.5 6.09375 16.5H14.25C15.3605 16.4988 16.4594 16.2736 17.4809 15.838C18.5024 15.4023 19.4255 14.7651 20.1951 13.9645C20.9647 13.1639 21.5649 12.2162 21.9598 11.1783C22.3547 10.1404 22.5362 9.03345 22.4934 7.92375ZM13.5 4.5C13.5 4.30109 13.579 4.11032 13.7197 3.96967C13.8603 3.82902 14.0511 3.75 14.25 3.75C14.4489 3.75 14.6397 3.82902 14.7803 3.96967C14.921 4.11032 15 4.30109 15 4.5V8.25C15 8.44891 14.921 8.63968 14.7803 8.78033C14.6397 8.92098 14.4489 9 14.25 9C14.0511 9 13.8603 8.92098 13.7197 8.78033C13.579 8.63968 13.5 8.44891 13.5 8.25V4.5ZM14.25 12.75C14.0275 12.75 13.81 12.684 13.625 12.5604C13.44 12.4368 13.2958 12.2611 13.2106 12.0555C13.1255 11.85 13.1032 11.6238 13.1466 11.4055C13.19 11.1873 13.2972 10.9868 13.4545 10.8295C13.6118 10.6722 13.8123 10.565 14.0305 10.5216C14.2488 10.4782 14.475 10.5005 14.6805 10.5856C14.8861 10.6708 15.0618 10.815 15.1854 11C15.309 11.185 15.375 11.4025 15.375 11.625C15.375 11.9234 15.2565 12.2095 15.0455 12.4205C14.8345 12.6315 14.5484 12.75 14.25 12.75Z" fill="#784FFF"/>
</svg>
