<svg width="24" height="24" viewBox="0 0 24 24" fill="none" xmlns="http://www.w3.org/2000/svg">
<path d="M22.5 11.25C22.5 11.4489 22.421 11.6397 22.2803 11.7803C22.1397 11.921 21.9489 12 21.75 12H18.75V15H19.5C19.8978 15 20.2794 15.158 20.5607 15.4393C20.842 15.7206 21 16.1022 21 16.5V19.5C21 19.8978 20.842 20.2794 20.5607 20.5607C20.2794 20.842 19.8978 21 19.5 21H16.5C16.1022 21 15.7206 20.842 15.4393 20.5607C15.158 20.2794 15 19.8978 15 19.5V16.5C15 16.1022 15.158 15.7206 15.4393 15.4393C15.7206 15.158 16.1022 15 16.5 15H17.25V12H6.75V15H7.5C7.89782 15 8.27936 15.158 8.56066 15.4393C8.84196 15.7206 9 16.1022 9 16.5V19.5C9 19.8978 8.84196 20.2794 8.56066 20.5607C8.27936 20.842 7.89782 21 7.5 21H4.5C4.10218 21 3.72064 20.842 3.43934 20.5607C3.15804 20.2794 3 19.8978 3 19.5V16.5C3 16.1022 3.15804 15.7206 3.43934 15.4393C3.72064 15.158 4.10218 15 4.5 15H5.25V12H2.25C2.05109 12 1.86032 11.921 1.71967 11.7803C1.57902 11.6397 1.5 11.4489 1.5 11.25C1.5 11.0511 1.57902 10.8603 1.71967 10.7197C1.86032 10.579 2.05109 10.5 2.25 10.5H11.25V8.25H10.5C10.1022 8.25 9.72064 8.09196 9.43934 7.81066C9.15804 7.52936 9 7.14782 9 6.75V3.75C9 3.35218 9.15804 2.97064 9.43934 2.68934C9.72064 2.40804 10.1022 2.25 10.5 2.25H13.5C13.8978 2.25 14.2794 2.40804 14.5607 2.68934C14.842 2.97064 15 3.35218 15 3.75V6.75C15 7.14782 14.842 7.52936 14.5607 7.81066C14.2794 8.09196 13.8978 8.25 13.5 8.25H12.75V10.5H21.75C21.9489 10.5 22.1397 10.579 22.2803 10.7197C22.421 10.8603 22.5 11.0511 22.5 11.25Z" fill="#784FFF"/>
</svg>
