<svg width="24" height="24" viewBox="0 0 24 24" fill="none" xmlns="http://www.w3.org/2000/svg">
<path d="M20.25 3.75H3.75C3.35218 3.75 2.97064 3.90804 2.68934 4.18934C2.40804 4.47064 2.25 4.85218 2.25 5.25V18.75C2.25 19.1478 2.40804 19.5294 2.68934 19.8107C2.97064 20.092 3.35218 20.25 3.75 20.25H20.25C20.6478 20.25 21.0294 20.092 21.3107 19.8107C21.592 19.5294 21.75 19.1478 21.75 18.75V5.25C21.75 4.85218 21.592 4.47064 21.3107 4.18934C21.0294 3.90804 20.6478 3.75 20.25 3.75ZM19.5 12.75H17.685L14.9062 17.625C14.8403 17.7393 14.7453 17.8342 14.6308 17.9C14.5164 17.9659 14.3867 18.0004 14.2547 18H14.2116C14.0724 17.9919 13.9382 17.9451 13.8241 17.865C13.71 17.7848 13.6205 17.6745 13.5656 17.5463L9.65625 8.43L7.40625 12.375C7.33986 12.49 7.24412 12.5853 7.12882 12.6512C7.01352 12.7171 6.88279 12.7512 6.75 12.75H4.5C4.30109 12.75 4.11032 12.671 3.96967 12.5303C3.82902 12.3897 3.75 12.1989 3.75 12C3.75 11.8011 3.82902 11.6103 3.96967 11.4697C4.11032 11.329 4.30109 11.25 4.5 11.25H6.315L9.09844 6.375C9.16765 6.25387 9.26928 6.15445 9.3919 6.08791C9.51452 6.02137 9.65327 5.99035 9.79255 5.99834C9.93183 6.00633 10.0661 6.053 10.1803 6.13312C10.2945 6.21324 10.3841 6.32363 10.4391 6.45187L14.3438 15.57L16.5938 11.6278C16.6597 11.5135 16.7547 11.4186 16.8692 11.3528C16.9836 11.2869 17.1133 11.2525 17.2453 11.2528H19.4953C19.6942 11.2528 19.885 11.3318 20.0256 11.4725C20.1663 11.6131 20.2453 11.8039 20.2453 12.0028C20.2453 12.2017 20.1663 12.3925 20.0256 12.5331C19.885 12.6738 19.6942 12.7528 19.4953 12.7528L19.5 12.75Z" fill="#784FFF"/>
</svg>
