<svg width="24" height="24" viewBox="0 0 24 24" fill="none" xmlns="http://www.w3.org/2000/svg">
<path d="M22.0622 10.9425L13.0575 1.93692C12.7764 1.65755 12.3963 1.50073 12 1.50073C11.6037 1.50073 11.2235 1.65755 10.9425 1.93692L1.94248 10.9425C1.6631 11.2236 1.50629 11.6038 1.50629 12C1.50629 12.3963 1.6631 12.7765 1.94248 13.0575L10.9472 22.0632C11.2282 22.3425 11.6084 22.4994 12.0047 22.4994C12.4009 22.4994 12.7811 22.3425 13.0622 22.0632L22.0669 13.0575C22.3462 12.7765 22.503 12.3963 22.503 12C22.503 11.6038 22.3462 11.2236 22.0669 10.9425H22.0622ZM11.25 7.50005C11.25 7.30113 11.329 7.11037 11.4696 6.96972C11.6103 6.82906 11.8011 6.75005 12 6.75005C12.1989 6.75005 12.3897 6.82906 12.5303 6.96972C12.671 7.11037 12.75 7.30113 12.75 7.50005V12.75C12.75 12.949 12.671 13.1397 12.5303 13.2804C12.3897 13.421 12.1989 13.5 12 13.5C11.8011 13.5 11.6103 13.421 11.4696 13.2804C11.329 13.1397 11.25 12.949 11.25 12.75V7.50005ZM12 17.25C11.7775 17.25 11.56 17.1841 11.375 17.0604C11.19 16.9368 11.0458 16.7611 10.9606 16.5556C10.8755 16.35 10.8532 16.1238 10.8966 15.9056C10.94 15.6873 11.0471 15.4869 11.2045 15.3296C11.3618 15.1722 11.5623 15.0651 11.7805 15.0217C11.9987 14.9783 12.2249 15.0005 12.4305 15.0857C12.6361 15.1708 12.8118 15.315 12.9354 15.5C13.059 15.685 13.125 15.9025 13.125 16.125C13.125 16.4234 13.0064 16.7096 12.7955 16.9205C12.5845 17.1315 12.2983 17.25 12 17.25Z" fill="#784FFF"/>
</svg>
