<svg width="24" height="24" viewBox="0 0 24 24" fill="none" xmlns="http://www.w3.org/2000/svg">
<path d="M19.2806 20.7807L17.0306 23.0307C16.9257 23.1357 16.792 23.2073 16.6465 23.2363C16.5009 23.2652 16.35 23.2504 16.2129 23.1936C16.0758 23.1368 15.9586 23.0405 15.8762 22.9171C15.7938 22.7936 15.7499 22.6485 15.75 22.5001V21.0001H7.49998C6.90324 21.0001 6.33095 20.7631 5.90899 20.3411C5.48703 19.9191 5.24998 19.3468 5.24998 18.7501V9.7501C5.24998 9.55119 5.329 9.36043 5.46965 9.21977C5.6103 9.07912 5.80107 9.0001 5.99998 9.0001C6.19889 9.0001 6.38966 9.07912 6.53031 9.21977C6.67096 9.36043 6.74998 9.55119 6.74998 9.7501V18.7501C6.74998 18.949 6.829 19.1398 6.96965 19.2804C7.1103 19.4211 7.30107 19.5001 7.49998 19.5001H15.75V18.0001C15.7499 17.8517 15.7938 17.7066 15.8762 17.5831C15.9586 17.4597 16.0758 17.3635 16.2129 17.3066C16.35 17.2498 16.5009 17.235 16.6465 17.264C16.792 17.2929 16.9257 17.3645 17.0306 17.4695L19.2806 19.7195C19.3503 19.7891 19.4057 19.8719 19.4434 19.9629C19.4811 20.0539 19.5006 20.1515 19.5006 20.2501C19.5006 20.3487 19.4811 20.4463 19.4434 20.5373C19.4057 20.6284 19.3503 20.7111 19.2806 20.7807ZM7.49998 6.7501C7.69889 6.7501 7.88966 6.67108 8.03031 6.53043C8.17096 6.38978 8.24998 6.19902 8.24998 6.0001V4.5001H16.5C16.6989 4.5001 16.8897 4.57912 17.0303 4.71977C17.171 4.86042 17.25 5.05119 17.25 5.2501V14.2501C17.25 14.449 17.329 14.6398 17.4696 14.7804C17.6103 14.9211 17.8011 15.0001 18 15.0001C18.1989 15.0001 18.3897 14.9211 18.5303 14.7804C18.671 14.6398 18.75 14.449 18.75 14.2501V5.2501C18.75 4.65337 18.5129 4.08107 18.091 3.65911C17.669 3.23716 17.0967 3.0001 16.5 3.0001H8.24998V1.5001C8.2501 1.35168 8.20617 1.20656 8.12377 1.08312C8.04137 0.95967 7.92419 0.86345 7.78707 0.806635C7.64996 0.749821 7.49906 0.734968 7.3535 0.763955C7.20794 0.792943 7.07425 0.864469 6.96935 0.969477L4.71935 3.21948C4.64962 3.28913 4.5943 3.37185 4.55656 3.4629C4.51882 3.55395 4.49939 3.65154 4.49939 3.7501C4.49939 3.84866 4.51882 3.94626 4.55656 4.03731C4.5943 4.12836 4.64962 4.21107 4.71935 4.28073L6.96935 6.53073C7.03906 6.60035 7.1218 6.65556 7.21284 6.6932C7.30389 6.73085 7.40146 6.75018 7.49998 6.7501Z" fill="#784FFF"/>
</svg>
