<svg width="24" height="24" viewBox="0 0 24 24" fill="none" xmlns="http://www.w3.org/2000/svg">
<g clip-path="url(#clip0_215_1392)">
<path d="M23.7806 12.5306L20.7806 15.5306C20.711 15.6003 20.6283 15.6556 20.5372 15.6934C20.4462 15.7311 20.3486 15.7506 20.25 15.7506C20.1514 15.7506 20.0538 15.7311 19.9628 15.6934C19.8717 15.6556 19.789 15.6003 19.7194 15.5306L18.2194 14.0306C18.0786 13.8899 17.9996 13.699 17.9996 13.5C17.9996 13.3009 18.0786 13.1101 18.2194 12.9693C18.3601 12.8286 18.551 12.7495 18.75 12.7495C18.949 12.7495 19.1399 12.8286 19.2806 12.9693L20.25 13.9397L22.7194 11.4693C22.8601 11.3286 23.051 11.2495 23.25 11.2495C23.449 11.2495 23.6399 11.3286 23.7806 11.4693C23.9214 11.6101 24.0004 11.8009 24.0004 12C24.0004 12.199 23.9214 12.3899 23.7806 12.5306ZM13.5 14.7825C14.6757 14.0502 15.5809 12.9549 16.0788 11.6623C16.5766 10.3698 16.6398 8.95025 16.259 7.61852C15.8782 6.28678 15.074 5.11531 13.9681 4.28132C12.8622 3.44733 11.5148 2.99622 10.1297 2.99622C8.74458 2.99622 7.39715 3.44733 6.29125 4.28132C5.18536 5.11531 4.38117 6.28678 4.00036 7.61852C3.61955 8.95025 3.68283 10.3698 4.18063 11.6623C4.67843 12.9549 5.58366 14.0502 6.75938 14.7825C4.82344 15.4162 3.08156 16.6003 1.68094 18.2672C1.58924 18.3761 1.53048 18.509 1.51152 18.6502C1.49257 18.7913 1.5142 18.935 1.5739 19.0643C1.63359 19.1936 1.72888 19.3033 1.84861 19.3804C1.96834 19.4576 2.10757 19.499 2.25 19.5H18C18.1429 19.5001 18.2829 19.4594 18.4035 19.3827C18.524 19.306 18.6201 19.1964 18.6805 19.0668C18.7409 18.9373 18.763 18.7932 18.7443 18.6516C18.7255 18.5099 18.6667 18.3765 18.5747 18.2672C17.1731 16.6003 15.4313 15.4162 13.5 14.7825Z" fill="#FFC318"/>
</g>
<defs>
<clipPath id="clip0_215_1392">
<rect width="24" height="24" fill="white"/>
</clipPath>
</defs>
</svg>
