<svg width="24" height="24" viewBox="0 0 24 24" fill="none" xmlns="http://www.w3.org/2000/svg">
<path d="M18.75 12C18.7508 13.531 18.2289 15.0163 17.2706 16.2103L7.78969 6.72937C8.78207 5.93509 9.97868 5.43737 11.2416 5.29358C12.5046 5.14978 13.7824 5.36576 14.928 5.91663C16.0735 6.46749 17.0401 7.33083 17.7163 8.40713C18.3925 9.48343 18.7508 10.7289 18.75 12ZM5.25 12C5.24917 13.2711 5.60751 14.5166 6.28373 15.5929C6.95995 16.6692 7.92652 17.5325 9.07205 18.0834C10.2176 18.6342 11.4954 18.8502 12.7584 18.7064C14.0213 18.5626 15.2179 18.0649 16.2103 17.2706L6.72938 7.78969C5.77111 8.98367 5.2492 10.469 5.25 12ZM22.125 12C22.125 14.0025 21.5312 15.9601 20.4186 17.6251C19.3061 19.2902 17.7248 20.5879 15.8747 21.3543C14.0246 22.1206 11.9888 22.3211 10.0247 21.9305C8.06066 21.5398 6.25656 20.5755 4.84055 19.1595C3.42454 17.7435 2.46023 15.9393 2.06955 13.9753C1.67888 12.0112 1.87939 9.97543 2.64572 8.12533C3.41206 6.27523 4.70981 4.69392 6.37486 3.58137C8.0399 2.46882 9.99747 1.875 12 1.875C14.6844 1.87798 17.258 2.94567 19.1562 4.84383C21.0543 6.74199 22.122 9.3156 22.125 12ZM20.25 12C20.25 10.3683 19.7661 8.77325 18.8596 7.41655C17.9531 6.05984 16.6646 5.00242 15.1571 4.37799C13.6497 3.75357 11.9909 3.59019 10.3905 3.90852C8.79017 4.22685 7.32016 5.01259 6.16637 6.16637C5.01259 7.32015 4.22685 8.79016 3.90853 10.3905C3.5902 11.9908 3.75358 13.6496 4.378 15.1571C5.00242 16.6646 6.05984 17.9531 7.41655 18.8596C8.77326 19.7661 10.3683 20.25 12 20.25C14.1873 20.2475 16.2843 19.3775 17.8309 17.8309C19.3775 16.2843 20.2475 14.1873 20.25 12Z" fill="#FFC318"/>
</svg>
