<svg width="21" height="20" viewBox="0 0 21 20" fill="none" xmlns="http://www.w3.org/2000/svg">
<path d="M20.25 18H18V1.5C18 1.10218 17.842 0.720644 17.5607 0.43934C17.2794 0.158035 16.8978 0 16.5 0H4.5C4.10218 0 3.72064 0.158035 3.43934 0.43934C3.15804 0.720644 3 1.10218 3 1.5V18H0.75C0.551088 18 0.360322 18.079 0.21967 18.2197C0.0790176 18.3603 0 18.5511 0 18.75C0 18.9489 0.0790176 19.1397 0.21967 19.2803C0.360322 19.421 0.551088 19.5 0.75 19.5H20.25C20.4489 19.5 20.6397 19.421 20.7803 19.2803C20.921 19.1397 21 18.9489 21 18.75C21 18.5511 20.921 18.3603 20.7803 18.2197C20.6397 18.079 20.4489 18 20.25 18ZM14.25 18H4.5V1.5H14.25V18ZM10.5 10.125C10.5 9.9025 10.566 9.68499 10.6896 9.49998C10.8132 9.31498 10.9889 9.17078 11.1945 9.08564C11.4 9.00049 11.6262 8.97821 11.8445 9.02162C12.0627 9.06502 12.2632 9.17217 12.4205 9.3295C12.5778 9.48684 12.685 9.68729 12.7284 9.90552C12.7718 10.1238 12.7495 10.35 12.6644 10.5555C12.5792 10.7611 12.435 10.9368 12.25 11.0604C12.065 11.184 11.8475 11.25 11.625 11.25C11.3266 11.25 11.0405 11.1315 10.8295 10.9205C10.6185 10.7095 10.5 10.4234 10.5 10.125Z" fill="#FFC318"/>
</svg>
