<svg width="24" height="24" viewBox="0 0 24 24" fill="none" xmlns="http://www.w3.org/2000/svg">
<path d="M21.75 12.0001C21.75 10.0717 21.1782 8.18656 20.1069 6.58315C19.0355 4.97974 17.5128 3.73003 15.7312 2.99207C13.9496 2.2541 11.9891 2.06102 10.0978 2.43724C8.20648 2.81345 6.46918 3.74208 5.10561 5.10567C3.74202 6.46924 2.81339 8.20654 2.43717 10.0979C2.06095 11.9892 2.25404 13.9496 2.99201 15.7312C3.72997 17.5128 4.97968 19.0356 6.58309 20.1069C8.1865 21.1783 10.0716 21.7501 12 21.75H12.0084C14.5928 21.7478 17.0706 20.7196 18.8973 18.8914C20.7239 17.0631 21.75 14.5844 21.75 12.0001ZM4.61061 8.3363L9.41155 9.21286L4.37343 15.1435C3.92839 14.0568 3.71939 12.888 3.76028 11.7144C3.80117 10.5408 4.09102 9.38936 4.61061 8.3363ZM19.6266 8.85568C20.0716 9.94251 20.2806 11.1115 20.2397 12.2852C20.1988 13.4589 19.909 14.6106 19.3894 15.6638L14.5884 14.7872L19.6266 8.85568ZM18.8691 7.43068L15.7078 11.1563L13.0903 3.82317C14.8873 4.05819 16.5556 4.88246 17.8341 6.16692C18.2197 6.5532 18.5663 6.97649 18.8691 7.43068ZM11.4778 3.76786L13.1194 8.36161L5.46561 6.96755C5.68181 6.68578 5.91572 6.41805 6.16593 6.16599C7.58266 4.74241 9.47305 3.88897 11.4778 3.76786ZM5.13093 16.5694L8.29218 12.8438L10.9097 20.1732C9.74513 20.018 8.62715 19.6159 7.63056 18.9937C6.63397 18.3716 5.78175 17.5438 5.13093 16.5657V16.5694ZM12.5222 20.2313L10.8806 15.6376L13.0444 16.0313L18.5306 17.0335C17.816 17.9661 16.9094 18.7344 15.8721 19.2862C14.8349 19.8381 13.6912 20.1607 12.5184 20.2322L12.5222 20.2313Z" fill="#FFC318"/>
</svg>
