<svg width="24" height="24" viewBox="0 0 24 24" fill="none" xmlns="http://www.w3.org/2000/svg">
<path d="M6.01126 13.8561C6.0138 13.9069 6.00599 13.9577 5.98828 14.0054C5.97058 14.0531 5.94336 14.0967 5.90828 14.1335C5.8732 14.1704 5.831 14.1997 5.78423 14.2197C5.73747 14.2397 5.68712 14.25 5.63626 14.2499H1.50001C1.33073 14.2502 1.16634 14.1931 1.03358 14.0881C0.900815 13.9831 0.807483 13.8363 0.76876 13.6715C0.744649 13.5587 0.74576 13.4419 0.772015 13.3296C0.79827 13.2173 0.84902 13.1122 0.920635 13.0218C1.58233 12.1443 2.46028 11.4533 3.46876 11.0165C3.026 10.6128 2.68642 10.1089 2.47846 9.54696C2.27049 8.98505 2.2002 8.38149 2.27346 7.78682C2.34672 7.19216 2.56141 6.6237 2.89955 6.12907C3.23768 5.63444 3.68941 5.22803 4.21691 4.94388C4.74441 4.65973 5.33232 4.50612 5.93139 4.49591C6.53047 4.48569 7.12327 4.61918 7.66015 4.88518C8.19703 5.15118 8.66235 5.54195 9.01715 6.02477C9.37195 6.50758 9.60589 7.06839 9.69938 7.66021C9.71146 7.7398 9.6972 7.82115 9.65879 7.89189C9.62037 7.96262 9.5599 8.01888 9.48657 8.05209C8.44631 8.533 7.56532 9.30144 6.94755 10.2667C6.32977 11.232 6.00099 12.3539 6.00001 13.4999C6.00001 13.6199 6.00001 13.738 6.01126 13.8561ZM23.0738 13.0208C22.4136 12.1443 21.5376 11.4538 20.5313 11.0165C20.974 10.6128 21.3136 10.1089 21.5216 9.54696C21.7295 8.98505 21.7998 8.38149 21.7266 7.78682C21.6533 7.19216 21.4386 6.6237 21.1005 6.12907C20.7623 5.63444 20.3106 5.22803 19.7831 4.94388C19.2556 4.65973 18.6677 4.50612 18.0686 4.49591C17.4696 4.48569 16.8768 4.61918 16.3399 4.88518C15.803 5.15118 15.3377 5.54195 14.9829 6.02477C14.6281 6.50758 14.3941 7.06839 14.3006 7.66021C14.2886 7.7398 14.3028 7.82115 14.3412 7.89189C14.3796 7.96262 14.4401 8.01888 14.5134 8.05209C15.5537 8.533 16.4347 9.30144 17.0525 10.2667C17.6702 11.232 17.999 12.3539 18 13.4999C18 13.6199 18 13.738 17.9888 13.8561C17.9862 13.9069 17.994 13.9577 18.0117 14.0054C18.0294 14.0531 18.0567 14.0967 18.0917 14.1335C18.1268 14.1704 18.169 14.1997 18.2158 14.2197C18.2626 14.2397 18.3129 14.25 18.3638 14.2499H22.5C22.6693 14.2502 22.8337 14.1931 22.9664 14.0881C23.0992 13.9831 23.1925 13.8363 23.2313 13.6715C23.2555 13.5585 23.2544 13.4415 23.228 13.329C23.2015 13.2165 23.1505 13.1112 23.0784 13.0208H23.0738ZM14.73 17.069C15.4768 16.4971 16.0256 15.7055 16.2992 14.8056C16.5729 13.9057 16.5577 12.9427 16.2558 12.0518C15.9538 11.161 15.3804 10.3872 14.6159 9.83912C13.8515 9.29106 12.9345 8.99632 11.9939 8.99632C11.0533 8.99632 10.1364 9.29106 9.37191 9.83912C8.60747 10.3872 8.03399 11.161 7.73206 12.0518C7.43012 12.9427 7.41493 13.9057 7.6886 14.8056C7.96227 15.7055 8.51106 16.4971 9.25782 17.069C7.9327 17.6431 6.8262 18.6264 6.10032 19.8749C6.03449 19.9889 5.99983 20.1183 5.99984 20.2499C5.99985 20.3816 6.03452 20.511 6.10036 20.625C6.16621 20.739 6.26091 20.8337 6.37495 20.8995C6.48899 20.9653 6.61834 20.9999 6.75001 20.9999H17.25C17.3817 20.9999 17.511 20.9653 17.6251 20.8995C17.7391 20.8337 17.8338 20.739 17.8997 20.625C17.9655 20.511 18.0002 20.3816 18.0002 20.2499C18.0002 20.1183 17.9655 19.9889 17.8997 19.8749C17.1723 18.6256 16.0637 17.6422 14.7366 17.069H14.73Z" fill="#FFC318"/>
</svg>
