<svg width="65" height="40" viewBox="0 0 65 40" fill="none" xmlns="http://www.w3.org/2000/svg">
<g clip-path="url(#clip0_262_1632)">
<path d="M62.2795 0L59.5589 4.38301L56.8384 8.76031L43.4006 30.4097L40.6815 26.0266L37.9359 21.6093L45.915 8.76031H51.4017L54.1208 4.38301H43.1959L40.4769 8.76031L35.2169 17.2278L32.4978 12.849L29.9628 8.76031L27.2437 4.38301L24.5246 0L21.8041 4.38301L24.5246 8.76031L29.7773 17.232L32.4978 21.6093L29.7787 25.9924L27.0376 30.4097L24.3185 26.0281L13.5983 8.76031H8.16016L21.598 30.4097L24.3185 34.7912L27.0376 39.1685L29.7566 34.7912L32.4978 30.3697L35.2169 25.9924L37.9624 30.4097L40.6815 34.7912L43.402 39.1685L46.1211 34.7912L62.2809 8.76031L65 4.38301L62.2795 0Z" fill="#107C41"/>
<path d="M40.6815 34.7913L37.9624 30.4097L35.2169 25.9924L32.4978 30.3697L35.2434 34.7927L37.9624 39.17H43.402L40.6815 34.7913ZM24.5231 8.76175L21.8041 4.38303H0L2.71907 8.76175L18.8774 34.7898L21.598 39.1686H27.0361L24.317 34.7898L21.598 30.4082L8.15868 8.76175H19.0835L27.0582 21.6094H32.4963L29.7773 17.2321L24.5231 8.76175Z" fill="#21A366"/>
<path d="M56.8398 0H40.4754L37.7563 4.38301L35.0373 8.76031L32.4978 12.849L35.2169 17.2278L40.4754 8.76031L43.1959 4.38301H54.1208L51.4017 8.76031L40.6815 26.0281L43.402 30.4097L56.8384 8.76031L59.5589 4.38301L62.2809 0H56.8398ZM24.317 26.0266L27.0361 30.4097L29.7772 25.9924L32.4963 21.6093H27.0582L24.317 26.0266ZM19.0835 0H2.71907L0 4.38301H21.8041L24.5231 0H19.0835Z" fill="#33C481"/>
</g>
<defs>
<clipPath id="clip0_262_1632">
<rect width="65" height="40" fill="white"/>
</clipPath>
</defs>
</svg>
