<svg width="54" height="46" viewBox="0 0 54 46" fill="none" xmlns="http://www.w3.org/2000/svg">
<mask id="mask0_295_3307" style="mask-type:luminance" maskUnits="userSpaceOnUse" x="0" y="0" width="54" height="47">
<path d="M0 0H53.406V46.008H0V0Z" fill="white"/>
</mask>
<g mask="url(#mask0_295_3307)">
<path d="M29.696 10.319L26.705 5.15902L23.71 -0.000976562L20.714 5.15902L2.991 35.693L0 40.848L2.995 46.008L5.987 40.848L8.98199 35.693L23.71 10.319L26.705 15.473L38.438 35.693H44.424L29.696 10.319Z" fill="#41A5EE"/>
<path d="M50.414 35.693L32.691 5.15902L29.696 -0.000976562H23.709L26.705 5.15902L29.696 10.319L44.424 35.693H14.968L11.977 40.848H53.406L50.414 35.693Z" fill="#2B7CD3"/>
<path d="M47.42 40.849H11.977L14.969 35.694L26.705 15.474L23.71 10.319L8.98201 35.694L5.98701 40.849L2.996 46.009H50.415L53.406 40.849H47.42Z" fill="#103F91"/>
</g>
</svg>
