<svg width="34" height="58" viewBox="0 0 34 58" fill="none" xmlns="http://www.w3.org/2000/svg">
<path d="M28.251 37.96L23.389 40.856L9.723 49.003L4.862 51.9L0 54.796L4.862 57.692L9.724 54.796L23.39 46.653L28.252 43.756L33.114 40.86L28.251 37.96ZM23.389 21.906L28.251 19.732L23.389 16.836L9.724 8.69299V13.763L23.389 21.906Z" fill="#1153E3"/>
<path d="M28.251 13.94L23.389 11.039L9.723 2.896L4.862 0V46.829L9.724 43.933V8.69299L23.39 16.836L28.252 19.732V37.96L33.114 40.86V16.836L28.251 13.94Z" fill="#2563EB"/>
<path d="M23.389 21.906V35.786L9.723 43.933L4.862 46.829V0L0 2.896V54.796L4.862 51.899L9.724 49.003L23.39 40.856L28.252 37.96V19.732L23.389 21.906Z" fill="#7BA4FF"/>
</svg>
