<svg width="65" height="64" viewBox="0 0 65 64" fill="none" xmlns="http://www.w3.org/2000/svg">
<mask id="mask0_295_3324" style="mask-type:luminance" maskUnits="userSpaceOnUse" x="0" y="0" width="65" height="64">
<path d="M0 0H64.345V64H0V0Z" fill="white"/>
</mask>
<g mask="url(#mask0_295_3324)">
<path d="M36.626 0.305006C49.317 2.41601 58.992 13.394 58.992 26.618C58.9923 28.4155 58.8124 30.2084 58.455 31.97C56.2 42.985 47.118 51.529 35.798 53.051C33.3976 53.451 30.9475 53.451 28.547 53.051C18.417 51.338 10.706 42.565 10.706 31.998C10.706 20.322 20.128 10.829 31.827 10.643C19.015 10.808 8.364 19.908 5.896 31.965C5.53526 33.7257 5.355 35.5187 5.35801 37.316C5.35801 51.933 17.178 63.804 31.832 63.989H32.523C50.129 63.804 64.345 49.548 64.345 31.991C64.345 15.821 52.29 2.45501 36.626 0.294006V0.305006Z" fill="#D35230"/>
<path d="M36.626 0.305008C35.1505 0.100881 33.6626 -0.00102853 32.173 7.82477e-06C30.659 7.82477e-06 29.173 0.103008 27.719 0.305008C12.061 2.46001 0 15.832 0 32.002C0 49.56 14.216 63.814 31.822 64C17.172 63.814 5.34799 51.943 5.34799 37.327C5.34799 35.495 5.53401 33.706 5.88501 31.975C8.35901 19.918 19.004 10.818 31.816 10.655H32.518C44.217 10.84 53.639 20.328 53.639 32.009C53.639 42.569 45.928 51.348 35.793 53.061C47.113 51.54 56.19 42.996 58.449 31.981C58.806 30.251 58.987 28.461 58.987 26.629C58.987 13.405 49.312 2.42701 36.621 0.317007L36.626 0.305008Z" fill="#FF8F6B"/>
</g>
</svg>
