<svg width="57" height="64" viewBox="0 0 57 64" fill="none" xmlns="http://www.w3.org/2000/svg">
<mask id="mask0_295_3334" style="mask-type:luminance" maskUnits="userSpaceOnUse" x="0" y="0" width="57" height="64">
<path d="M0 0H56.337V64H0V0Z" fill="white"/>
</mask>
<g mask="url(#mask0_295_3334)">
<path d="M52.339 24.041L36.172 7.96001L33.801 5.601L32.169 3.98199L28.171 0L28.143 0.029007V7.931L28.171 7.96001L28.143 7.98801V15.891L28.171 15.919L28.143 15.947V48.063L28.171 48.091L28.143 48.118V48.067L22.484 42.438L12 32.009L8.00101 35.987L22.484 50.393L24.168 52.068L28.143 56.022L28.171 56.049L32.169 52.073L33.801 50.449L48.34 35.987L52.339 32.009L56.337 28.032L52.339 24.05V24.041ZM44.338 32.001L33.801 42.481V13.556L48.341 28.018L44.342 31.995L44.338 32.001Z" fill="#9332BF"/>
<path d="M52.339 31.999L48.336 35.981L33.802 50.44L32.17 52.063L28.166 56.04L28.143 56.069V56.018L24.168 52.063L22.485 50.389L8.00201 35.982L12 32L22.485 21.571V13.616L8.00201 28.023L3.99899 31.999L0 35.977V35.981L3.99899 39.959L20.17 56.04L22.485 58.348L24.168 60.022L28.143 63.976L28.167 64L32.17 60.022L33.802 58.399L36.168 56.04L52.339 39.959L56.338 35.981V28.022L52.339 31.999Z" fill="#7719AA"/>
<path d="M48.336 28.023L33.801 13.56V21.52L44.337 32.001L48.336 28.023Z" fill="#7719AA"/>
<path d="M24.168 3.97702L22.484 5.65602L20.17 7.95901L3.99799 24.041L0 28.023V35.977L3.99799 31.999L8.00101 28.023L22.484 13.615V42.429L28.143 48.058V0.0280151L24.168 3.97702Z" fill="#CA64EA"/>
</g>
</svg>
