<svg width="42" height="42" viewBox="0 0 42 42" fill="none" xmlns="http://www.w3.org/2000/svg">
<mask id="mask0_295_3316" style="mask-type:luminance" maskUnits="userSpaceOnUse" x="0" y="0" width="42" height="42">
<path d="M0 0H41.267V41.267H0V0Z" fill="white"/>
</mask>
<g mask="url(#mask0_295_3316)">
<path d="M37.249 4.01801H20.632V16.617H24.65V8.03601H37.249V20.635H4.01501V41.267H24.647V24.65H41.264V4.01801H37.246H37.249ZM20.636 33.235V37.253H8.03302V24.65H20.632V33.231L20.636 33.235Z" fill="#474FBA"/>
<path d="M16.617 33.235H8.03302V37.253L16.617 37.249H20.636V24.65H16.617V33.235ZM37.249 0H16.617V16.617H20.635V4.01801H41.267L37.249 0Z" fill="#9DA3F0"/>
<path d="M33.235 8.03601V16.617H0V37.249L0.0359955 37.253V37.288L4.01801 41.267V20.635H37.249V8.03601H33.235Z" fill="#7B83EB"/>
</g>
</svg>
