<svg width="55" height="36" viewBox="0 0 55 36" fill="none" xmlns="http://www.w3.org/2000/svg">
<mask id="mask0_295_3293" style="mask-type:luminance" maskUnits="userSpaceOnUse" x="0" y="0" width="55" height="36">
<path d="M0 0H54.689V35.251H0V0Z" fill="white"/>
</mask>
<g mask="url(#mask0_295_3293)">
<path d="M52.4 0L50.112 3.944L47.824 7.884L36.517 27.368L34.228 23.423L31.918 19.448L38.632 7.884H43.247L45.535 3.944H36.343L34.055 7.884L29.631 15.504L27.342 11.564L25.21 7.884L22.922 3.944L20.632 0L18.344 3.944L20.632 7.884L25.053 15.508L27.341 19.448L25.053 23.392L22.747 27.368L20.459 23.424L11.44 7.884H6.864L18.171 27.368L20.459 31.311L22.747 35.251L25.035 31.311L27.341 27.332L29.63 23.392L31.94 27.368L34.227 31.311L36.516 35.251L38.804 31.311L52.4 7.884L54.688 3.944L52.4 0Z" fill="#107C41"/>
<path d="M34.229 31.311L31.941 27.368L29.631 23.392L27.343 27.332L29.653 31.311L31.941 35.251H36.517L34.229 31.311ZM20.633 7.88397L18.345 3.94397H0L2.288 7.88397L15.884 31.311L18.172 35.251H22.748L20.46 31.311L18.172 27.368L6.865 7.88397H16.057L22.766 19.448H27.342L25.054 15.508L20.633 7.88397Z" fill="#21A366"/>
<path d="M47.824 0H34.055L31.767 3.944L29.479 7.884L27.343 11.564L29.631 15.504L34.055 7.884L36.344 3.944H45.536L43.248 7.884L34.228 23.424L36.518 27.367L47.824 7.884L50.112 3.944L52.401 0H47.824ZM20.46 23.423L22.748 27.368L25.054 23.392L27.342 19.448H22.766L20.46 23.423ZM16.057 0H2.288L0 3.944H18.345L20.633 0H16.057Z" fill="#33C481"/>
</g>
</svg>
