<svg width="45" height="28" viewBox="0 0 45 28" fill="none" xmlns="http://www.w3.org/2000/svg">
<g clip-path="url(#clip0_22_139)">
<path d="M42.305 0L40.457 3.068L38.609 6.132L29.481 21.286L27.634 18.218L25.769 15.126L31.189 6.132H34.916L36.763 3.068H29.342L27.495 6.132L23.922 12.059L22.075 8.994L20.353 6.132L18.506 3.068L16.659 0L14.811 3.068L16.659 6.132L20.227 12.062L22.075 15.126L20.228 18.194L18.366 21.286L16.519 18.219L9.23703 6.132H5.54303L14.671 21.286L16.519 24.353L18.366 27.417L20.213 24.353L22.075 21.258L23.922 18.194L25.787 21.286L27.634 24.353L29.482 27.417L31.329 24.353L42.306 6.132L44.153 3.068L42.305 0Z" fill="#107C41"/>
<path d="M27.634 24.3531L25.787 21.2861L23.922 18.1941L22.075 21.2581L23.94 24.3541L25.787 27.4181H29.482L27.634 24.3531ZM16.658 6.13312L14.811 3.06812H0L1.847 6.13312L12.823 24.3521L14.671 27.4171H18.365L16.518 24.3521L14.671 21.2851L5.542 6.13312H12.963L18.38 15.1261H22.074L20.227 12.0621L16.658 6.13312Z" fill="#21A366"/>
<path d="M38.61 0H27.494L25.647 3.068L23.8 6.132L22.075 8.994L23.922 12.059L27.494 6.132L29.342 3.068H36.763L34.916 6.132L27.634 18.219L29.482 21.286L38.609 6.132L40.457 3.068L42.306 0H38.61ZM16.518 18.218L18.365 21.286L20.227 18.194L22.074 15.126H18.38L16.518 18.218ZM12.963 0H1.847L0 3.068H14.811L16.658 0H12.963Z" fill="#33C481"/>
</g>
<defs>
<clipPath id="clip0_22_139">
<rect width="44.153" height="27.999" fill="white"/>
</clipPath>
</defs>
</svg>
