<svg width="30" height="30" viewBox="0 0 30 30" fill="none" xmlns="http://www.w3.org/2000/svg">
<mask id="mask0_22_138" style="mask-type:luminance" maskUnits="userSpaceOnUse" x="0" y="0" width="30" height="30">
<path d="M0 0H30V30H0V0Z" fill="white"/>
</mask>
<g mask="url(#mask0_22_138)">
<path d="M27.078 2.92092H14.998V12.0809H17.919V5.84092H27.079V15.0009H2.91699V29.9999H17.916V17.9199H29.996V2.91992H27.075H27.077L27.078 2.92092ZM15.001 24.1609V27.0809H5.83899V17.9199H14.999V24.1579L15.001 24.1609Z" fill="#474FBA"/>
<path d="M12.08 24.16H5.84003V27.082L12.08 27.079H15.002V17.919H12.08V24.16ZM27.079 0H12.08V12.08H15.001V2.921H30L27.079 0Z" fill="#9DA3F0"/>
<path d="M24.16 5.84204V12.08H0V27.08L0.026 27.083V27.109L2.921 30V15.001H27.079V5.84204H24.16Z" fill="#7B83EB"/>
</g>
</svg>
