<svg xmlns="http://www.w3.org/2000/svg" width="96" height="96" fill="none"><g filter="url(#a)"><rect width="92" height="92" x="2" y="1" fill="url(#b)" rx="24"/><g clip-path="url(#c)"><path fill="#fff" d="M66.521 28.479H47.998v14.044h4.479v-9.565H66.52v14.044H29.475V70h22.998V51.477h18.523V28.48h-4.479.004ZM48.002 61.046v4.48H33.954v-14.05h14.044v9.565l.004.004Z"/><path fill="#D2D5FE" d="M43.523 61.046h-9.57v4.48l9.57-.005h4.479V51.477h-4.479v9.57ZM66.521 24H43.523v18.523h4.479V28.479H71L66.52 24Z"/><path fill="#B8BDFD" d="M62.046 32.958v9.565H25V65.52l.04.004v.04L29.479 70V47.002H66.52V32.958h-4.475Z"/></g></g><defs><linearGradient id="b" x1="48" x2="48" y1="1" y2="93" gradientUnits="userSpaceOnUse"><stop stop-color="#828AEC"/><stop offset="1" stop-color="#474FBA"/></linearGradient><clipPath id="c"><path fill="#fff" d="M25 24h46v46H25z"/></clipPath><filter id="a" width="96" height="96" x="0" y="0" color-interpolation-filters="sRGB" filterUnits="userSpaceOnUse"><feFlood flood-opacity="0" result="BackgroundImageFix"/><feColorMatrix in="SourceAlpha" result="hardAlpha" values="0 0 0 0 0 0 0 0 0 0 0 0 0 0 0 0 0 0 127 0"/><feOffset dy="1"/><feGaussianBlur stdDeviation="1"/><feComposite in2="hardAlpha" operator="out"/><feColorMatrix values="0 0 0 0 0.0784314 0 0 0 0 0.0823529 0 0 0 0 0.101961 0 0 0 0.05 0"/><feBlend in2="BackgroundImageFix" result="effect1_dropShadow_4537_12531"/><feBlend in="SourceGraphic" in2="effect1_dropShadow_4537_12531" result="shape"/></filter></defs></svg>