<svg xmlns="http://www.w3.org/2000/svg" width="96" height="97" fill="none"><g filter="url(#a)"><rect width="92" height="92" x="2" y="1.5" fill="url(#b)" rx="24"/><path fill="#6CC1FF" d="m50.96 34.958-2.958-5.102-2.962-5.102-2.962 5.102-17.523 30.191-2.958 5.097 2.962 5.101 2.957-5.101 2.962-5.097 14.562-25.09 2.962 5.097 11.6 19.993h5.92l-14.563-25.09Z"/><path fill="#D1E7FF" d="M71.445 60.047 53.921 29.856l-2.962-5.102H45.04l2.962 5.102 2.957 5.102 14.563 25.089H36.397l-2.957 5.097h40.963l-2.958-5.097Z"/><path fill="#fff" d="M68.484 65.144H33.44l2.957-5.097 11.605-19.992-2.962-5.097-14.562 25.09-2.962 5.096-2.957 5.102h46.886l2.958-5.102h-5.92Z"/></g><defs><linearGradient id="b" x1="48" x2="48" y1="1.5" y2="93.5" gradientUnits="userSpaceOnUse"><stop stop-color="#41A5EE"/><stop offset="1" stop-color="#2B7CD3"/></linearGradient><filter id="a" width="96" height="96" x="0" y=".5" color-interpolation-filters="sRGB" filterUnits="userSpaceOnUse"><feFlood flood-opacity="0" result="BackgroundImageFix"/><feColorMatrix in="SourceAlpha" result="hardAlpha" values="0 0 0 0 0 0 0 0 0 0 0 0 0 0 0 0 0 0 127 0"/><feOffset dy="1"/><feGaussianBlur stdDeviation="1"/><feComposite in2="hardAlpha" operator="out"/><feColorMatrix values="0 0 0 0 0.0784314 0 0 0 0 0.0823529 0 0 0 0 0.101961 0 0 0 0.05 0"/><feBlend in2="BackgroundImageFix" result="effect1_dropShadow_4537_12525"/><feBlend in="SourceGraphic" in2="effect1_dropShadow_4537_12525" result="shape"/></filter></defs></svg>