<svg width="21" height="20" viewBox="0 0 21 20" fill="none" xmlns="http://www.w3.org/2000/svg">
<path d="M14.7919 19.5H18.75C19.1478 19.5 19.5294 19.342 19.8107 19.0607C20.092 18.7794 20.25 18.3978 20.25 18V14.4703C20.2494 14.3473 20.2185 14.2264 20.1601 14.1181C20.1017 14.0099 20.0176 13.9176 19.9151 13.8496C19.8127 13.7815 19.6951 13.7397 19.5727 13.7277C19.4502 13.7158 19.3268 13.7342 19.2131 13.7812C18.9473 13.891 18.6626 13.9474 18.375 13.9472C17.1347 13.9472 16.125 12.9066 16.125 11.6287C16.125 10.3509 17.1347 9.31031 18.375 9.31031C18.6626 9.31009 18.9473 9.36647 19.2131 9.47625C19.3274 9.52354 19.4515 9.54186 19.5745 9.52958C19.6975 9.51729 19.8156 9.47479 19.9182 9.40585C20.0209 9.33691 20.1049 9.24367 20.1627 9.13442C20.2206 9.02518 20.2506 8.90332 20.25 8.77969V5.25C20.25 4.85218 20.092 4.47064 19.8107 4.18934C19.5294 3.90804 19.1478 3.75 18.75 3.75H15.3544C15.3683 3.62549 15.3752 3.50029 15.375 3.375C15.375 2.47989 15.0194 1.62145 14.3865 0.988515C13.7535 0.355579 12.8951 0 12 0C11.1049 0 10.2464 0.355579 9.61351 0.988515C8.98058 1.62145 8.625 2.47989 8.625 3.375C8.62478 3.50029 8.63167 3.62549 8.64562 3.75H5.25C4.85217 3.75 4.47064 3.90804 4.18934 4.18934C3.90803 4.47064 3.75 4.85218 3.75 5.25V8.27063C3.62549 8.25667 3.50029 8.24978 3.375 8.25C2.47989 8.25 1.62145 8.60558 0.988515 9.23851C0.355579 9.87145 0 10.7299 0 11.625C0 12.5201 0.355579 13.3785 0.988515 14.0115C1.62145 14.6444 2.47989 15 3.375 15C3.50029 15.0002 3.62549 14.9933 3.75 14.9794V18C3.75 18.3978 3.90803 18.7794 4.18934 19.0607C4.47064 19.342 4.85217 19.5 5.25 19.5H9.20812" fill="#2663EB"/>
</svg>
