<svg width="17" height="21" viewBox="0 0 17 21" fill="none" xmlns="http://www.w3.org/2000/svg">
<path d="M15 1.49986H11.6006C11.1792 1.02804 10.6629 0.650543 10.0855 0.392075C9.5081 0.133607 8.88262 0 8.25 0C7.61738 0 6.9919 0.133607 6.4145 0.392075C5.83709 0.650543 5.32079 1.02804 4.89937 1.49986H1.5C1.10218 1.49986 0.720644 1.6579 0.43934 1.9392C0.158035 2.22051 0 2.60204 0 2.99986V18.7499C0 19.1477 0.158035 19.5292 0.43934 19.8105C0.720644 20.0918 1.10218 20.2499 1.5 20.2499H15C15.3978 20.2499 15.7794 20.0918 16.0607 19.8105C16.342 19.5292 16.5 19.1477 16.5 18.7499V2.99986C16.5 2.60204 16.342 2.22051 16.0607 1.9392C15.7794 1.6579 15.3978 1.49986 15 1.49986ZM8.25 1.49986C9.04565 1.49986 9.80871 1.81593 10.3713 2.37854C10.9339 2.94115 11.25 3.70421 11.25 4.49986H5.25C5.25 3.70421 5.56607 2.94115 6.12868 2.37854C6.69129 1.81593 7.45435 1.49986 8.25 1.49986ZM11.25 13.4999H5.25C5.05109 13.4999 4.86032 13.4208 4.71967 13.2802C4.57902 13.1395 4.5 12.9488 4.5 12.7499C4.5 12.551 4.57902 12.3602 4.71967 12.2195C4.86032 12.0789 5.05109 11.9999 5.25 11.9999H11.25C11.4489 11.9999 11.6397 12.0789 11.7803 12.2195C11.921 12.3602 12 12.551 12 12.7499C12 12.9488 11.921 13.1395 11.7803 13.2802C11.6397 13.4208 11.4489 13.4999 11.25 13.4999ZM11.25 10.4999H5.25C5.05109 10.4999 4.86032 10.4208 4.71967 10.2802C4.57902 10.1395 4.5 9.94878 4.5 9.74986C4.5 9.55095 4.57902 9.36019 4.71967 9.21953C4.86032 9.07888 5.05109 8.99986 5.25 8.99986H11.25C11.4489 8.99986 11.6397 9.07888 11.7803 9.21953C11.921 9.36019 12 9.55095 12 9.74986C12 9.94878 11.921 10.1395 11.7803 10.2802C11.6397 10.4208 11.4489 10.4999 11.25 10.4999Z" fill="#2663EB"/>
</svg>
