<svg width="24" height="24" viewBox="0 0 24 24" fill="none" xmlns="http://www.w3.org/2000/svg">
<g clip-path="url(#clip0_124_294)">
<g clip-path="url(#clip1_124_294)">
<path d="M9.25 14.75C9.25 14.9489 9.17098 15.1397 9.03033 15.2803C8.88968 15.421 8.69891 15.5 8.5 15.5H4.75C4.55109 15.5 4.36032 15.421 4.21967 15.2803C4.07902 15.1397 4 14.9489 4 14.75C4 14.5511 4.07902 14.3603 4.21967 14.2197C4.36032 14.079 4.55109 14 4.75 14H8.5C8.69891 14 8.88968 14.079 9.03033 14.2197C9.17098 14.3603 9.25 14.5511 9.25 14.75ZM15.25 3.5H17.5C17.6989 3.5 17.8897 3.42098 18.0303 3.28033C18.171 3.13968 18.25 2.94891 18.25 2.75C18.25 2.55109 18.171 2.36032 18.0303 2.21967C17.8897 2.07902 17.6989 2 17.5 2H14.5C14.3011 2 14.1103 2.07902 13.9697 2.21967C13.829 2.36032 13.75 2.55109 13.75 2.75V5.75H15.25V3.5ZM22 11.375V17C22 17.3978 21.842 17.7794 21.5607 18.0607C21.2794 18.342 20.8978 18.5 20.5 18.5H12.25V21.5C12.25 21.6989 12.171 21.8897 12.0303 22.0303C11.8897 22.171 11.6989 22.25 11.5 22.25C11.3011 22.25 11.1103 22.171 10.9697 22.0303C10.829 21.8897 10.75 21.6989 10.75 21.5V18.5H2.5C2.10218 18.5 1.72064 18.342 1.43934 18.0607C1.15804 17.7794 1 17.3978 1 17V11.375C1.00174 9.88369 1.59493 8.45396 2.64944 7.39944C3.70396 6.34493 5.13369 5.75174 6.625 5.75H13.75V14C13.75 14.1989 13.829 14.3897 13.9697 14.5303C14.1103 14.671 14.3011 14.75 14.5 14.75C14.6989 14.75 14.8897 14.671 15.0303 14.5303C15.171 14.3897 15.25 14.1989 15.25 14V5.75H16.375C17.8663 5.75174 19.296 6.34493 20.3506 7.39944C21.4051 8.45396 21.9983 9.88369 22 11.375ZM10.75 11.375C10.75 10.281 10.3154 9.23177 9.54182 8.45818C8.76823 7.6846 7.71902 7.25 6.625 7.25C5.53098 7.25 4.48177 7.6846 3.70818 8.45818C2.9346 9.23177 2.5 10.281 2.5 11.375V17H10.75V11.375Z" fill="#2663EB"/>
</g>
</g>
<defs>
<clipPath id="clip0_124_294">
<rect width="24" height="24" fill="white"/>
</clipPath>
<clipPath id="clip1_124_294">
<rect width="24" height="24" fill="white" transform="translate(1 -2)"/>
</clipPath>
</defs>
</svg>
