<svg width="24" height="24" viewBox="0 0 24 24" fill="none" xmlns="http://www.w3.org/2000/svg">
<path d="M18.75 2.25H5.25C4.85218 2.25 4.47064 2.40804 4.18934 2.68934C3.90804 2.97064 3.75 3.35218 3.75 3.75V20.25C3.75 20.6478 3.90804 21.0294 4.18934 21.3107C4.47064 21.592 4.85218 21.75 5.25 21.75H18.75C19.1478 21.75 19.5294 21.592 19.8107 21.3107C20.092 21.0294 20.25 20.6478 20.25 20.25V3.75C20.25 3.35218 20.092 2.97064 19.8107 2.68934C19.5294 2.40804 19.1478 2.25 18.75 2.25ZM12 15C12.2225 15 12.44 15.066 12.625 15.1896C12.81 15.3132 12.9542 15.4889 13.0394 15.6945C13.1245 15.9 13.1468 16.1262 13.1034 16.3445C13.06 16.5627 12.9528 16.7632 12.7955 16.9205C12.6382 17.0778 12.4377 17.185 12.2195 17.2284C12.0012 17.2718 11.775 17.2495 11.5695 17.1644C11.3639 17.0792 11.1882 16.935 11.0646 16.75C10.941 16.565 10.875 16.3475 10.875 16.125C10.875 15.8266 10.9935 15.5405 11.2045 15.3295C11.4155 15.1185 11.7016 15 12 15ZM11.25 12.75V7.5C11.25 7.30109 11.329 7.11032 11.4697 6.96967C11.6103 6.82902 11.8011 6.75 12 6.75C12.1989 6.75 12.3897 6.82902 12.5303 6.96967C12.671 7.11032 12.75 7.30109 12.75 7.5V12.75C12.75 12.9489 12.671 13.1397 12.5303 13.2803C12.3897 13.421 12.1989 13.5 12 13.5C11.8011 13.5 11.6103 13.421 11.4697 13.2803C11.329 13.1397 11.25 12.9489 11.25 12.75Z" fill="#2663EB"/>
</svg>
