<svg width="21" height="15" viewBox="0 0 21 15" fill="none" xmlns="http://www.w3.org/2000/svg">
<path d="M19.5 0H1.5C1.10218 0 0.720644 0.158035 0.43934 0.43934C0.158035 0.720644 0 1.10218 0 1.5V13.5C0 13.8978 0.158035 14.2794 0.43934 14.5607C0.720644 14.842 1.10218 15 1.5 15H19.5C19.8978 15 20.2794 14.842 20.5607 14.5607C20.842 14.2794 21 13.8978 21 13.5V1.5C21 1.10218 20.842 0.720644 20.5607 0.43934C20.2794 0.158035 19.8978 0 19.5 0ZM17.6794 8.87906C17.7373 8.95909 17.7789 9.04974 17.8018 9.14584C17.8247 9.24194 17.8284 9.3416 17.8128 9.43915C17.7972 9.53669 17.7625 9.63021 17.7107 9.71435C17.6589 9.79849 17.5911 9.8716 17.5111 9.92953C17.4311 9.98746 17.3404 10.0291 17.2443 10.0519C17.1482 10.0748 17.0486 10.0786 16.951 10.063C16.8535 10.0473 16.76 10.0126 16.6758 9.96087C16.5917 9.90911 16.5186 9.84127 16.4606 9.76125L15.75 8.77594L15.0347 9.76125C14.9177 9.92287 14.7413 10.0314 14.5443 10.063C14.3473 10.0945 14.1458 10.0465 13.9842 9.92953C13.8226 9.81254 13.7141 9.63615 13.6825 9.43915C13.651 9.24215 13.699 9.04068 13.8159 8.87906L14.5322 7.89469L13.3734 7.51969C13.2798 7.48891 13.1932 7.43999 13.1184 7.37572C13.0437 7.31146 12.9824 7.2331 12.9379 7.14514C12.8482 6.96747 12.8327 6.76144 12.8948 6.57234C12.9256 6.47872 12.9745 6.39207 13.0388 6.31734C13.1031 6.24262 13.1814 6.18129 13.2694 6.13685C13.4471 6.04709 13.6531 6.03159 13.8422 6.09375L15 6.46875V5.25C15 5.05109 15.079 4.86032 15.2197 4.71967C15.3603 4.57902 15.5511 4.5 15.75 4.5C15.9489 4.5 16.1397 4.57902 16.2803 4.71967C16.421 4.86032 16.5 5.05109 16.5 5.25V6.46875L17.6578 6.09375C17.7514 6.06297 17.8502 6.05094 17.9485 6.05833C18.0468 6.06572 18.1426 6.0924 18.2306 6.13685C18.3186 6.18129 18.3969 6.24262 18.4612 6.31734C18.5255 6.39207 18.5744 6.47872 18.6052 6.57234C18.6359 6.66597 18.648 6.76475 18.6406 6.86303C18.6332 6.96131 18.6065 7.05717 18.5621 7.14514C18.5176 7.2331 18.4563 7.31146 18.3816 7.37572C18.3068 7.43999 18.2202 7.48891 18.1266 7.51969L16.9678 7.89469L17.6794 8.87906ZM10.9294 8.87906C10.9873 8.95909 11.0289 9.04974 11.0518 9.14584C11.0747 9.24194 11.0784 9.3416 11.0628 9.43915C11.0472 9.53669 11.0125 9.63021 10.9607 9.71435C10.9089 9.79849 10.8411 9.8716 10.7611 9.92953C10.6811 9.98746 10.5904 10.0291 10.4943 10.0519C10.3982 10.0748 10.2986 10.0786 10.201 10.063C10.1035 10.0473 10.0099 10.0126 9.92581 9.96087C9.84167 9.90911 9.76855 9.84127 9.71062 9.76125L9 8.77594L8.28469 9.76125C8.1677 9.92287 7.99131 10.0314 7.79431 10.063C7.5973 10.0945 7.39583 10.0465 7.23422 9.92953C7.0726 9.81254 6.96408 9.63615 6.93252 9.43915C6.90096 9.24215 6.94895 9.04068 7.06594 8.87906L7.78219 7.89469L6.62344 7.51969C6.52981 7.48891 6.44316 7.43999 6.36844 7.37572C6.29371 7.31146 6.23238 7.2331 6.18794 7.14514C6.09819 6.96747 6.08268 6.76144 6.14484 6.57234C6.17562 6.47872 6.22454 6.39207 6.28881 6.31734C6.35307 6.24262 6.43143 6.18129 6.5194 6.13685C6.69706 6.04709 6.9031 6.03159 7.09219 6.09375L8.25 6.46875V5.25C8.25 5.05109 8.32902 4.86032 8.46967 4.71967C8.61032 4.57902 8.80109 4.5 9 4.5C9.19891 4.5 9.38968 4.57902 9.53033 4.71967C9.67098 4.86032 9.75 5.05109 9.75 5.25V6.46875L10.9078 6.09375C11.0014 6.06297 11.1002 6.05094 11.1985 6.05833C11.2968 6.06572 11.3926 6.0924 11.4806 6.13685C11.5686 6.18129 11.6469 6.24262 11.7112 6.31734C11.7755 6.39207 11.8244 6.47872 11.8552 6.57234C11.8859 6.66597 11.898 6.76475 11.8906 6.86303C11.8832 6.96131 11.8565 7.05717 11.8121 7.14514C11.7676 7.2331 11.7063 7.31146 11.6316 7.37572C11.5568 7.43999 11.4702 7.48891 11.3766 7.51969L10.2178 7.89469L10.9294 8.87906ZM4.5 3.75V11.25C4.5 11.4489 4.42098 11.6397 4.28033 11.7803C4.13968 11.921 3.94891 12 3.75 12C3.55109 12 3.36032 11.921 3.21967 11.7803C3.07902 11.6397 3 11.4489 3 11.25V3.75C3 3.55109 3.07902 3.36032 3.21967 3.21967C3.36032 3.07902 3.55109 3 3.75 3C3.94891 3 4.13968 3.07902 4.28033 3.21967C4.42098 3.36032 4.5 3.55109 4.5 3.75Z" fill="#2663EB"/>
</svg>
