<svg width="24" height="24" viewBox="0 0 24 24" fill="none" xmlns="http://www.w3.org/2000/svg">
<path d="M21 4.5H3C2.60218 4.5 2.22064 4.65804 1.93934 4.93934C1.65804 5.22064 1.5 5.60218 1.5 6V18C1.5 18.3978 1.65804 18.7794 1.93934 19.0607C2.22064 19.342 2.60218 19.5 3 19.5H21C21.3978 19.5 21.7794 19.342 22.0607 19.0607C22.342 18.7794 22.5 18.3978 22.5 18V6C22.5 5.60218 22.342 5.22064 22.0607 4.93934C21.7794 4.65804 21.3978 4.5 21 4.5ZM6 15.75H4.5C4.30109 15.75 4.11032 15.671 3.96967 15.5303C3.82902 15.3897 3.75 15.1989 3.75 15C3.75 14.8011 3.82902 14.6103 3.96967 14.4697C4.11032 14.329 4.30109 14.25 4.5 14.25H6C6.19891 14.25 6.38968 14.329 6.53033 14.4697C6.67098 14.6103 6.75 14.8011 6.75 15C6.75 15.1989 6.67098 15.3897 6.53033 15.5303C6.38968 15.671 6.19891 15.75 6 15.75ZM15 15.75H9C8.80109 15.75 8.61032 15.671 8.46967 15.5303C8.32902 15.3897 8.25 15.1989 8.25 15C8.25 14.8011 8.32902 14.6103 8.46967 14.4697C8.61032 14.329 8.80109 14.25 9 14.25H15C15.1989 14.25 15.3897 14.329 15.5303 14.4697C15.671 14.6103 15.75 14.8011 15.75 15C15.75 15.1989 15.671 15.3897 15.5303 15.5303C15.3897 15.671 15.1989 15.75 15 15.75ZM19.5 15.75H18C17.8011 15.75 17.6103 15.671 17.4697 15.5303C17.329 15.3897 17.25 15.1989 17.25 15C17.25 14.8011 17.329 14.6103 17.4697 14.4697C17.6103 14.329 17.8011 14.25 18 14.25H19.5C19.6989 14.25 19.8897 14.329 20.0303 14.4697C20.171 14.6103 20.25 14.8011 20.25 15C20.25 15.1989 20.171 15.3897 20.0303 15.5303C19.8897 15.671 19.6989 15.75 19.5 15.75ZM19.5 12.75H4.5C4.30109 12.75 4.11032 12.671 3.96967 12.5303C3.82902 12.3897 3.75 12.1989 3.75 12C3.75 11.8011 3.82902 11.6103 3.96967 11.4697C4.11032 11.329 4.30109 11.25 4.5 11.25H19.5C19.6989 11.25 19.8897 11.329 20.0303 11.4697C20.171 11.6103 20.25 11.8011 20.25 12C20.25 12.1989 20.171 12.3897 20.0303 12.5303C19.8897 12.671 19.6989 12.75 19.5 12.75ZM19.5 9.75H4.5C4.30109 9.75 4.11032 9.67098 3.96967 9.53033C3.82902 9.38968 3.75 9.19891 3.75 9C3.75 8.80109 3.82902 8.61032 3.96967 8.46967C4.11032 8.32902 4.30109 8.25 4.5 8.25H19.5C19.6989 8.25 19.8897 8.32902 20.0303 8.46967C20.171 8.61032 20.25 8.80109 20.25 9C20.25 9.19891 20.171 9.38968 20.0303 9.53033C19.8897 9.67098 19.6989 9.75 19.5 9.75Z" fill="#2663EB"/>
</svg>
