<svg width="24" height="24" viewBox="0 0 24 24" fill="none" xmlns="http://www.w3.org/2000/svg">
<path d="M21.75 6V16.5C21.75 17.0967 21.5129 17.669 21.091 18.091C20.669 18.5129 20.0967 18.75 19.5 18.75H4.5C3.90326 18.75 3.33097 18.5129 2.90901 18.091C2.48705 17.669 2.25 17.0967 2.25 16.5V6C2.25 5.40326 2.48705 4.83097 2.90901 4.40901C3.33097 3.98705 3.90326 3.75 4.5 3.75H19.5C20.0967 3.75 20.669 3.98705 21.091 4.40901C21.5129 4.83097 21.75 5.40326 21.75 6ZM15 20.25H9C8.80109 20.25 8.61032 20.329 8.46967 20.4697C8.32902 20.6103 8.25 20.8011 8.25 21C8.25 21.1989 8.32902 21.3897 8.46967 21.5303C8.61032 21.671 8.80109 21.75 9 21.75H15C15.1989 21.75 15.3897 21.671 15.5303 21.5303C15.671 21.3897 15.75 21.1989 15.75 21C15.75 20.8011 15.671 20.6103 15.5303 20.4697C15.3897 20.329 15.1989 20.25 15 20.25Z" fill="#2663EB"/>
</svg>
