<svg width="17" height="17" viewBox="0 0 17 17" fill="none" xmlns="http://www.w3.org/2000/svg">
<path d="M5.03063 15.2194C5.13563 15.3243 5.20716 15.458 5.23615 15.6035C5.26514 15.7491 5.25028 15.9 5.19347 16.0371C5.13665 16.1742 5.04043 16.2914 4.91699 16.3738C4.79354 16.4562 4.64842 16.5001 4.5 16.5H0.75C0.551088 16.5 0.360323 16.421 0.21967 16.2803C0.079018 16.1397 2.3235e-07 15.9489 2.3235e-07 15.75V12C-0.000116571 11.8516 0.0438069 11.7065 0.12621 11.583C0.208613 11.4596 0.32579 11.3633 0.462908 11.3065C0.600025 11.2497 0.750917 11.2349 0.89648 11.2639C1.04204 11.2928 1.17573 11.3644 1.28063 11.4694L5.03063 15.2194ZM4.5 2.3235e-07H0.75C0.551088 2.3235e-07 0.360323 0.079018 0.21967 0.21967C0.079018 0.360323 2.3235e-07 0.551088 2.3235e-07 0.75V4.5C-0.000116571 4.64842 0.0438069 4.79354 0.12621 4.91699C0.208613 5.04043 0.32579 5.13665 0.462908 5.19347C0.600025 5.25028 0.750917 5.26514 0.89648 5.23615C1.04204 5.20716 1.17573 5.13563 1.28063 5.03063L5.03063 1.28063C5.13563 1.17573 5.20716 1.04204 5.23615 0.89648C5.26514 0.750917 5.25028 0.600025 5.19347 0.462908C5.13665 0.32579 5.04043 0.208613 4.91699 0.12621C4.79354 0.0438069 4.64842 -0.000116571 4.5 2.3235e-07ZM16.0369 11.3072C15.8998 11.2503 15.749 11.2354 15.6035 11.2643C15.458 11.2931 15.3243 11.3645 15.2194 11.4694L11.4694 15.2194C11.3644 15.3243 11.2928 15.458 11.2639 15.6035C11.2349 15.7491 11.2497 15.9 11.3065 16.0371C11.3633 16.1742 11.4596 16.2914 11.583 16.3738C11.7065 16.4562 11.8516 16.5001 12 16.5H15.75C15.9489 16.5 16.1397 16.421 16.2803 16.2803C16.421 16.1397 16.5 15.9489 16.5 15.75V12C16.5 11.8517 16.456 11.7067 16.3735 11.5834C16.2911 11.46 16.1739 11.3639 16.0369 11.3072ZM15.75 2.3235e-07H12C11.8516 -0.000116571 11.7065 0.0438069 11.583 0.12621C11.4596 0.208613 11.3633 0.32579 11.3065 0.462908C11.2497 0.600025 11.2349 0.750917 11.2639 0.89648C11.2928 1.04204 11.3644 1.17573 11.4694 1.28063L15.2194 5.03063C15.3243 5.13563 15.458 5.20716 15.6035 5.23615C15.7491 5.26514 15.9 5.25028 16.0371 5.19347C16.1742 5.13665 16.2914 5.04043 16.3738 4.91699C16.4562 4.79354 16.5001 4.64842 16.5 4.5V0.75C16.5 0.551088 16.421 0.360323 16.2803 0.21967C16.1397 0.079018 15.9489 2.3235e-07 15.75 2.3235e-07Z" fill="#2663EB"/>
</svg>
