<svg width="24" height="24" viewBox="0 0 24 24" fill="none" xmlns="http://www.w3.org/2000/svg">
<path d="M15 16.9688C14.974 18.2449 14.4491 19.4601 13.5378 20.3538C12.6266 21.2476 11.4014 21.7488 10.125 21.75H5.6925C3.83156 21.75 2.25 20.2284 2.25 18.3675C2.25157 17.7533 2.42072 17.1511 2.73923 16.6259C3.05775 16.1008 3.51354 15.6725 4.0575 15.3872C4.12021 15.3545 4.19088 15.3403 4.26134 15.3461C4.33181 15.3518 4.39921 15.3774 4.45576 15.4199C4.51231 15.4623 4.55571 15.5199 4.58096 15.5859C4.6062 15.652 4.61226 15.7238 4.59844 15.7931C4.53649 16.1381 4.50512 16.4879 4.50469 16.8384C4.49989 17.0344 4.56992 17.2248 4.70055 17.3709C4.83117 17.517 5.01256 17.6079 5.20781 17.625C5.30979 17.6307 5.41188 17.6156 5.5078 17.5805C5.60372 17.5454 5.69146 17.491 5.76563 17.4208C5.83981 17.3506 5.89885 17.266 5.93916 17.1721C5.97946 17.0782 6.00016 16.9771 6 16.875C5.99881 16.2277 6.13861 15.5878 6.40969 15C6.84068 14.059 7.5829 13.2953 8.51126 12.8376C9.43963 12.3799 10.4974 12.2563 11.5063 12.4875C12.5151 12.7187 13.4135 13.2907 14.0499 14.107C14.6863 14.9232 15.0218 15.9339 15 16.9688ZM20.25 8.25V20.25C20.25 20.6478 20.092 21.0294 19.8107 21.3107C19.5294 21.592 19.1478 21.75 18.75 21.75H16.5C16.3011 21.75 16.1103 21.671 15.9697 21.5303C15.829 21.3897 15.75 21.1989 15.75 21C15.75 20.8011 15.829 20.6103 15.9697 20.4697C16.1103 20.329 16.3011 20.25 16.5 20.25H18.75V9H14.25C14.0511 9 13.8603 8.92098 13.7197 8.78033C13.579 8.63968 13.5 8.44891 13.5 8.25V3.75H5.25V12C5.25 12.1989 5.17098 12.3897 5.03033 12.5303C4.88968 12.671 4.69891 12.75 4.5 12.75C4.30109 12.75 4.11032 12.671 3.96967 12.5303C3.82902 12.3897 3.75 12.1989 3.75 12V3.75C3.75 3.35218 3.90804 2.97064 4.18934 2.68934C4.47064 2.40804 4.85218 2.25 5.25 2.25H14.25C14.3485 2.24992 14.4461 2.26926 14.5371 2.3069C14.6282 2.34454 14.7109 2.39975 14.7806 2.46938L20.0306 7.71938C20.1003 7.78908 20.1555 7.87182 20.1931 7.96286C20.2307 8.05391 20.2501 8.15148 20.25 8.25ZM17.6897 7.5L15 4.81031V7.5H17.6897Z" fill="#2663EB"/>
</svg>
