<svg width="20" height="20" viewBox="0 0 20 20" fill="none" xmlns="http://www.w3.org/2000/svg">
<path d="M20 10C20 15.522 15.523 20 10 20C4.477 20 0 15.522 0 10C0 4.477 4.477 0 10 0C15.523 0 20 4.477 20 10ZM3.2 8.664C2.463 8.664 1.865 9.262 1.865 9.999C1.865 10.736 2.463 11.334 3.2 11.334C3.937 11.334 4.535 10.736 4.535 9.999C4.535 9.262 3.937 8.664 3.2 8.664ZM12.733 14.733C12.308 14.959 12.037 15.397 12.025 15.879C12.014 16.36 12.263 16.811 12.676 17.057C13.09 17.304 13.605 17.308 14.023 17.068C14.655 16.705 14.879 15.903 14.527 15.266C14.174 14.629 13.376 14.391 12.733 14.733ZM6.1 10C6.1 8.68 6.756 7.515 7.759 6.81L6.783 5.174C5.597 5.965 4.743 7.165 4.384 8.545C4.822 8.901 5.076 9.436 5.076 10C5.076 10.564 4.822 11.099 4.384 11.455C4.743 12.835 5.596 14.034 6.782 14.826L7.759 13.19C6.719 12.461 6.099 11.27 6.1 10ZM10 6.1C12.02 6.1 13.705 7.642 13.884 9.654L15.787 9.626C15.696 8.202 15.083 6.862 14.064 5.864C13.538 6.065 12.949 6.018 12.461 5.736C11.973 5.454 11.638 4.967 11.55 4.41C10.175 4.032 8.709 4.171 7.43 4.8L8.357 6.463C8.872 6.223 9.432 6.099 10 6.1ZM10 13.9C9.413 13.9 8.857 13.77 8.357 13.537L7.43 15.199C8.708 15.834 10.176 15.973 11.55 15.589C11.638 15.032 11.973 14.545 12.461 14.263C12.949 13.981 13.538 13.934 14.064 14.135C15.083 13.136 15.696 11.797 15.787 10.373L13.884 10.346C13.706 12.358 12.02 13.901 10 13.9ZM12.732 5.267C13.365 5.644 14.185 5.437 14.562 4.804C14.94 4.17 14.732 3.35 14.099 2.973C13.466 2.596 12.646 2.803 12.268 3.437C11.891 4.07 12.099 4.89 12.732 5.267Z" fill="#14151A"/>
</svg>
