<svg width="24" height="24" viewBox="0 0 24 24" fill="none" xmlns="http://www.w3.org/2000/svg">
<path d="M21.4575 2.45514C21.3413 2.3548 21.1999 2.28806 21.0486 2.26213C20.8973 2.23619 20.7417 2.25203 20.5987 2.30795L1.59937 9.74327C1.3301 9.84797 1.10214 10.0373 0.949797 10.2828C0.797454 10.5283 0.728977 10.8166 0.754676 11.1043C0.780374 11.3921 0.898857 11.6637 1.09229 11.8783C1.28572 12.0929 1.54362 12.2389 1.82718 12.2942L6.74999 13.2608V18.7498C6.74902 19.0488 6.83787 19.3412 7.00503 19.5891C7.17219 19.837 7.40995 20.029 7.68749 20.1401C7.96461 20.2533 8.26936 20.2805 8.56213 20.2181C8.85489 20.1557 9.12211 20.0067 9.32906 19.7905L11.7028 17.3286L15.4687 20.6248C15.7404 20.8658 16.0909 20.9992 16.4541 20.9998C16.6132 20.9997 16.7714 20.9747 16.9228 20.9258C17.1703 20.8472 17.3928 20.7053 17.5683 20.514C17.7438 20.3227 17.8662 20.0887 17.9231 19.8355L21.7284 3.28108C21.7625 3.13178 21.7552 2.97603 21.7075 2.83053C21.6598 2.68503 21.5734 2.55527 21.4575 2.45514ZM16.4559 19.4998L8.70468 12.703L19.8609 4.70702L16.4559 19.4998Z" fill="#2663EB"/>
</svg>
