<svg width="24" height="24" viewBox="0 0 24 24" fill="none" xmlns="http://www.w3.org/2000/svg">
<path d="M23.625 12C23.625 12.0618 23.6098 12.1226 23.5807 12.177C23.5516 12.2315 23.5095 12.2779 23.4581 12.3122L18.9581 15.3122C18.9016 15.3499 18.836 15.3715 18.7681 15.3748C18.7003 15.3781 18.6329 15.3629 18.573 15.3309C18.5131 15.2988 18.4631 15.2511 18.4282 15.1928C18.3934 15.1346 18.375 15.0679 18.375 15V12.75H6.75V17.25H10.125V16.5C10.125 16.2016 10.2435 15.9155 10.4545 15.7045C10.6655 15.4935 10.9516 15.375 11.25 15.375H14.25C14.5484 15.375 14.8345 15.4935 15.0455 15.7045C15.2565 15.9155 15.375 16.2016 15.375 16.5V19.5C15.375 19.7984 15.2565 20.0845 15.0455 20.2955C14.8345 20.5065 14.5484 20.625 14.25 20.625H11.25C10.9516 20.625 10.6655 20.5065 10.4545 20.2955C10.2435 20.0845 10.125 19.7984 10.125 19.5V18.75H6.75C6.35218 18.75 5.97064 18.592 5.68934 18.3107C5.40804 18.0294 5.25 17.6478 5.25 17.25V12.75H0.75C0.551088 12.75 0.360322 12.671 0.21967 12.5303C0.0790176 12.3897 0 12.1989 0 12C0 11.8011 0.0790176 11.6103 0.21967 11.4697C0.360322 11.329 0.551088 11.25 0.75 11.25H5.25V6.75001C5.25 6.35218 5.40804 5.97065 5.68934 5.68935C5.97064 5.40804 6.35218 5.25001 6.75 5.25001H10.2347C10.4148 4.64576 10.8065 4.12654 11.338 3.78731C11.8695 3.44807 12.5053 3.31148 13.1292 3.40251C13.7532 3.49354 14.3235 3.8061 14.7359 4.28306C15.1483 4.76001 15.3753 5.36947 15.3753 6.00001C15.3753 6.63054 15.1483 7.24 14.7359 7.71696C14.3235 8.19391 13.7532 8.50648 13.1292 8.59751C12.5053 8.68854 11.8695 8.55194 11.338 8.21271C10.8065 7.87347 10.4148 7.35425 10.2347 6.75001H6.75V11.25H18.375V9.00001C18.375 8.9321 18.3934 8.86546 18.4282 8.80719C18.4631 8.74892 18.5131 8.70121 18.573 8.66916C18.6329 8.63711 18.7003 8.62192 18.7681 8.6252C18.836 8.62849 18.9016 8.65013 18.9581 8.68782L23.4581 11.6878C23.5095 11.7221 23.5516 11.7685 23.5807 11.823C23.6098 11.8774 23.625 11.9383 23.625 12Z" fill="#2663EB"/>
</svg>
