<svg width="17" height="20" viewBox="0 0 17 20" fill="none" xmlns="http://www.w3.org/2000/svg">
<path d="M14.25 0H2.25C1.65326 0 1.08097 0.237053 0.65901 0.65901C0.237053 1.08097 0 1.65326 0 2.25V17.25C0 17.8467 0.237053 18.419 0.65901 18.841C1.08097 19.2629 1.65326 19.5 2.25 19.5H14.25C14.8467 19.5 15.419 19.2629 15.841 18.841C16.2629 18.419 16.5 17.8467 16.5 17.25V2.25C16.5 1.65326 16.2629 1.08097 15.841 0.65901C15.419 0.237053 14.8467 0 14.25 0ZM11.25 4.5H5.25C5.05109 4.5 4.86032 4.42098 4.71967 4.28033C4.57902 4.13968 4.5 3.94891 4.5 3.75C4.5 3.55109 4.57902 3.36032 4.71967 3.21967C4.86032 3.07902 5.05109 3 5.25 3H11.25C11.4489 3 11.6397 3.07902 11.7803 3.21967C11.921 3.36032 12 3.55109 12 3.75C12 3.94891 11.921 4.13968 11.7803 4.28033C11.6397 4.42098 11.4489 4.5 11.25 4.5Z" fill="#2663EB"/>
</svg>
