<svg width="24" height="24" viewBox="0 0 24 24" fill="none" xmlns="http://www.w3.org/2000/svg">
<path d="M21.75 19.5C21.75 19.6989 21.671 19.8897 21.5303 20.0303C21.3897 20.171 21.1989 20.25 21 20.25H3C2.80109 20.25 2.61032 20.171 2.46967 20.0303C2.32902 19.8897 2.25 19.6989 2.25 19.5C2.25 19.3011 2.32902 19.1103 2.46967 18.9697C2.61032 18.829 2.80109 18.75 3 18.75H21C21.1989 18.75 21.3897 18.829 21.5303 18.9697C21.671 19.1103 21.75 19.3011 21.75 19.5ZM21.75 5.25V15.75C21.75 16.1478 21.592 16.5294 21.3107 16.8107C21.0294 17.092 20.6478 17.25 20.25 17.25H3.75C3.35218 17.25 2.97064 17.092 2.68934 16.8107C2.40804 16.5294 2.25 16.1478 2.25 15.75V5.25C2.25 4.85218 2.40804 4.47064 2.68934 4.18934C2.97064 3.90804 3.35218 3.75 3.75 3.75H20.25C20.6478 3.75 21.0294 3.90804 21.3107 4.18934C21.592 4.47064 21.75 4.85218 21.75 5.25ZM15.375 10.5C15.375 10.3795 15.3459 10.2608 15.2902 10.1539C15.2346 10.047 15.154 9.95508 15.0553 9.88594L11.3053 7.26094C11.1929 7.18222 11.0611 7.13583 10.9242 7.12683C10.7873 7.11782 10.6506 7.14654 10.5289 7.20987C10.4071 7.27319 10.3051 7.36869 10.2339 7.48596C10.1627 7.60324 10.125 7.7378 10.125 7.875V13.125C10.125 13.2622 10.1627 13.3968 10.2339 13.514C10.3051 13.6313 10.4071 13.7268 10.5289 13.7901C10.6506 13.8535 10.7873 13.8822 10.9242 13.8732C11.0611 13.8642 11.1929 13.8178 11.3053 13.7391L15.0553 11.1141C15.154 11.0449 15.2346 10.953 15.2902 10.8461C15.3459 10.7392 15.375 10.6205 15.375 10.5Z" fill="#2663EB"/>
</svg>
