<svg width="21" height="21" viewBox="0 0 21 21" fill="none" xmlns="http://www.w3.org/2000/svg">
<path d="M19.6744 8.13937C19.3209 7.77 18.9553 7.38938 18.8175 7.05469C18.69 6.74813 18.6825 6.24 18.675 5.74781C18.6609 4.83281 18.6459 3.79594 17.925 3.075C17.2041 2.35406 16.1672 2.33906 15.2522 2.325C14.76 2.3175 14.2519 2.31 13.9453 2.1825C13.6116 2.04469 13.23 1.67906 12.8606 1.32562C12.2137 0.704062 11.4788 0 10.5 0C9.52125 0 8.78719 0.704062 8.13937 1.32562C7.77 1.67906 7.38938 2.04469 7.05469 2.1825C6.75 2.31 6.24 2.3175 5.74781 2.325C4.83281 2.33906 3.79594 2.35406 3.075 3.075C2.35406 3.79594 2.34375 4.83281 2.325 5.74781C2.3175 6.24 2.31 6.74813 2.1825 7.05469C2.04469 7.38844 1.67906 7.77 1.32562 8.13937C0.704062 8.78625 0 9.52125 0 10.5C0 11.4788 0.704062 12.2128 1.32562 12.8606C1.67906 13.23 2.04469 13.6106 2.1825 13.9453C2.31 14.2519 2.3175 14.76 2.325 15.2522C2.33906 16.1672 2.35406 17.2041 3.075 17.925C3.79594 18.6459 4.83281 18.6609 5.74781 18.675C6.24 18.6825 6.74813 18.69 7.05469 18.8175C7.38844 18.9553 7.77 19.3209 8.13937 19.6744C8.78625 20.2959 9.52125 21 10.5 21C11.4788 21 12.2128 20.2959 12.8606 19.6744C13.23 19.3209 13.6106 18.9553 13.9453 18.8175C14.2519 18.69 14.76 18.6825 15.2522 18.675C16.1672 18.6609 17.2041 18.6459 17.925 17.925C18.6459 17.2041 18.6609 16.1672 18.675 15.2522C18.6825 14.76 18.69 14.2519 18.8175 13.9453C18.9553 13.6116 19.3209 13.23 19.6744 12.8606C20.2959 12.2137 21 11.4788 21 10.5C21 9.52125 20.2959 8.78719 19.6744 8.13937ZM9.75 6C9.75 5.80109 9.82902 5.61032 9.96967 5.46967C10.1103 5.32902 10.3011 5.25 10.5 5.25C10.6989 5.25 10.8897 5.32902 11.0303 5.46967C11.171 5.61032 11.25 5.80109 11.25 6V11.25C11.25 11.4489 11.171 11.6397 11.0303 11.7803C10.8897 11.921 10.6989 12 10.5 12C10.3011 12 10.1103 11.921 9.96967 11.7803C9.82902 11.6397 9.75 11.4489 9.75 11.25V6ZM10.5 15.75C10.2775 15.75 10.06 15.684 9.87498 15.5604C9.68998 15.4368 9.54578 15.2611 9.46064 15.0555C9.37549 14.85 9.35321 14.6238 9.39662 14.4055C9.44002 14.1873 9.54717 13.9868 9.7045 13.8295C9.86184 13.6722 10.0623 13.565 10.2805 13.5216C10.4988 13.4782 10.725 13.5005 10.9305 13.5856C11.1361 13.6708 11.3118 13.815 11.4354 14C11.559 14.185 11.625 14.4025 11.625 14.625C11.625 14.9234 11.5065 15.2095 11.2955 15.4205C11.0845 15.6315 10.7984 15.75 10.5 15.75Z" fill="#2663EB"/>
</svg>
