<svg width="28" height="28" viewBox="0 0 28 28" fill="none" xmlns="http://www.w3.org/2000/svg">
<path d="M11.7861 1.41089C12.366 -0.470238 15.0288 -0.470236 15.6086 1.41089L17.416 7.27402C17.6745 8.11271 18.4496 8.68486 19.3272 8.68486H25.3909C27.3028 8.68486 28.1248 11.1103 26.6069 12.2727L21.5233 16.1658C20.8589 16.6746 20.5815 17.5432 20.828 18.3429L22.7266 24.5018C23.3003 26.3631 21.1457 27.863 19.5993 26.6788L14.9134 23.0903C14.1958 22.5408 13.1989 22.5408 12.4814 23.0903L7.79546 26.6788C6.24909 27.863 4.09444 26.3631 4.6682 24.5018L6.56673 18.3429C6.81323 17.5432 6.53585 16.6746 5.87149 16.1658L0.78787 12.2727C-0.730023 11.1103 0.0920143 8.68486 2.00388 8.68486H8.06753C8.94516 8.68486 9.72025 8.11271 9.97878 7.27402L11.7861 1.41089Z" fill="black"/>
</svg>
