<svg width="26" height="26" viewBox="0 0 26 26" fill="none" xmlns="http://www.w3.org/2000/svg">
<path d="M11.9108 21.8533V25.3208C11.9113 25.3916 11.8967 25.4617 11.8681 25.5264C11.8394 25.5912 11.7974 25.6491 11.7447 25.6964C11.692 25.7436 11.6298 25.7792 11.5624 25.8006C11.4949 25.8221 11.4236 25.829 11.3533 25.8208C8.46585 25.4677 5.77963 24.1584 3.72267 22.1015C1.66572 20.0445 0.356389 17.3583 0.00331858 14.4708C-0.00482428 14.4005 0.00205936 14.3292 0.0235141 14.2618C0.0449688 14.1943 0.0805054 14.1322 0.127773 14.0795C0.17504 14.0268 0.23296 13.9847 0.2977 13.9561C0.362441 13.9274 0.432526 13.9128 0.503319 13.9133H3.96832C4.19838 15.9403 5.10919 17.8292 6.55188 19.2714C7.99457 20.7137 9.88381 21.6239 11.9108 21.8533ZM19.8383 13.9108H13.9108V19.8383C15.4053 19.6202 16.7896 18.9255 17.8575 17.8575C18.9255 16.7896 19.6202 15.4053 19.8383 13.9108ZM13.9108 5.98332V11.9108H19.8383C19.6202 10.4163 18.9255 9.03208 17.8575 7.9641C16.7896 6.89611 15.4053 6.20141 13.9108 5.98332ZM25.3208 13.9108H21.8533C21.6238 15.9382 20.7132 17.8277 19.2705 19.2705C17.8277 20.7132 15.9382 21.6238 13.9108 21.8533V25.3208C13.9103 25.3916 13.9249 25.4617 13.9536 25.5264C13.9822 25.5912 14.0243 25.6491 14.077 25.6964C14.1297 25.7436 14.1918 25.7792 14.2593 25.8006C14.3267 25.8221 14.398 25.829 14.4683 25.8208C17.3558 25.4677 20.042 24.1584 22.099 22.1015C24.1559 20.0445 25.4652 17.3583 25.8183 14.4708C25.8268 14.4005 25.8203 14.3292 25.7991 14.2616C25.778 14.194 25.7428 14.1317 25.6957 14.0787C25.6487 14.0258 25.5909 13.9834 25.5263 13.9545C25.4617 13.9256 25.3916 13.9107 25.3208 13.9108ZM21.8533 11.9108H25.3208C25.3916 11.9113 25.4617 11.8967 25.5264 11.8681C25.5912 11.8394 25.6491 11.7974 25.6964 11.7447C25.7436 11.692 25.7792 11.6298 25.8006 11.5624C25.8221 11.4949 25.829 11.4236 25.8208 11.3533C25.4677 8.46585 24.1584 5.77963 22.1015 3.72267C20.0445 1.66572 17.3583 0.356389 14.4708 0.00331858C14.4005 -0.00482428 14.3292 0.00205936 14.2618 0.0235141C14.1943 0.0449688 14.1322 0.0805054 14.0795 0.127773C14.0268 0.17504 13.9847 0.23296 13.9561 0.2977C13.9274 0.362441 13.9128 0.432526 13.9133 0.503319V3.96832C15.9403 4.19838 17.8292 5.10919 19.2714 6.55188C20.7137 7.99457 21.6239 9.88381 21.8533 11.9108ZM11.3533 0.00331858C8.46585 0.356389 5.77963 1.66572 3.72267 3.72267C1.66572 5.77963 0.356389 8.46585 0.00331858 11.3533C-0.00482428 11.4236 0.00205936 11.4949 0.0235141 11.5624C0.0449688 11.6298 0.0805054 11.692 0.127773 11.7447C0.17504 11.7974 0.23296 11.8394 0.2977 11.8681C0.362441 11.8967 0.432526 11.9113 0.503319 11.9108H3.96832C4.19785 9.88343 5.10843 7.9939 6.55117 6.55117C7.9939 5.10843 9.88343 4.19785 11.9108 3.96832V0.500818C11.9109 0.430236 11.8961 0.36043 11.8673 0.29599C11.8385 0.23155 11.7964 0.173938 11.7437 0.126943C11.6911 0.0799486 11.629 0.044636 11.5618 0.0233286C11.4945 0.0020211 11.4234 -0.00479848 11.3533 0.00331858ZM5.98332 11.9108H11.9108V5.98332C10.4163 6.20141 9.03208 6.89611 7.9641 7.9641C6.89611 9.03208 6.20141 10.4163 5.98332 11.9108ZM11.9108 19.8383V13.9108H5.98332C6.20141 15.4053 6.89611 16.7896 7.9641 17.8575C9.03208 18.9255 10.4163 19.6202 11.9108 19.8383Z" fill="#1153E3"/>
</svg>
