<svg width="24" height="25" viewBox="0 0 24 25" fill="none" xmlns="http://www.w3.org/2000/svg">
<path d="M24 2V9C24 15.59 20.81 19.5837 18.1338 21.7738C15.2513 24.1313 12.3838 24.9325 12.2588 24.965C12.0869 25.0118 11.9056 25.0118 11.7338 24.965C11.6088 24.9325 8.745 24.1313 5.85875 21.7738C3.19 19.5837 0 15.59 0 9V2C0 1.46957 0.210714 0.960859 0.585786 0.585786C0.960859 0.210714 1.46957 0 2 0H22C22.5304 0 23.0391 0.210714 23.4142 0.585786C23.7893 0.960859 24 1.46957 24 2Z" fill="#1153E3"/>
</svg>
