<svg width="30" height="26" viewBox="0 0 30 26" fill="none" xmlns="http://www.w3.org/2000/svg">
<path d="M20 8.50195C20 8.79862 19.912 9.08863 19.7472 9.3353C19.5824 9.58198 19.3481 9.77424 19.074 9.88777C18.7999 10.0013 18.4983 10.031 18.2074 9.97313C17.9164 9.91525 17.6491 9.77239 17.4393 9.56261C17.2296 9.35283 17.0867 9.08556 17.0288 8.79458C16.9709 8.50361 17.0007 8.20201 17.1142 7.92792C17.2277 7.65383 17.42 7.41957 17.6666 7.25474C17.9133 7.08992 18.2033 7.00195 18.5 7.00195C18.8978 7.00195 19.2794 7.15998 19.5607 7.44129C19.842 7.72259 20 8.10412 20 8.50195ZM11.5 7.00195C11.2033 7.00195 10.9133 7.08992 10.6666 7.25474C10.42 7.41957 10.2277 7.65383 10.1142 7.92792C10.0006 8.20201 9.97094 8.50361 10.0288 8.79458C10.0867 9.08556 10.2296 9.35283 10.4393 9.56261C10.6491 9.77239 10.9164 9.91525 11.2074 9.97313C11.4983 10.031 11.7999 10.0013 12.074 9.88777C12.3481 9.77424 12.5824 9.58198 12.7472 9.3353C12.912 9.08863 13 8.79862 13 8.50195C13 8.10412 12.842 7.72259 12.5607 7.44129C12.2794 7.15998 11.8978 7.00195 11.5 7.00195ZM26 15.0019C26.0028 15.9727 25.8766 16.9394 25.625 17.8769L28.405 19.0919C28.6121 19.1863 28.7808 19.3484 28.8833 19.5516C28.9858 19.7548 29.0159 19.9868 28.9687 20.2094C28.9215 20.432 28.7998 20.6319 28.6237 20.776C28.4476 20.9201 28.2276 20.9998 28 21.0019C27.8623 21.0023 27.726 20.9737 27.6 20.9182L24.9225 19.7519C24.0267 21.6239 22.6197 23.2043 20.8639 24.3106C19.1082 25.4169 17.0752 26.0039 15 26.0039C12.9248 26.0039 10.8918 25.4169 9.13607 24.3106C7.38028 23.2043 5.97326 21.6239 5.0775 19.7519L2.4 20.9182C2.27398 20.9737 2.13772 21.0023 2 21.0019C1.77037 21.0018 1.54778 20.9226 1.36963 20.7778C1.19148 20.6329 1.06863 20.4311 1.02171 20.2063C0.974784 19.9815 1.00665 19.7474 1.11196 19.5434C1.21727 19.3393 1.3896 19.1777 1.6 19.0857L4.375 17.8769C4.12335 16.9394 3.99725 15.9727 4 15.0019V14.0019H1C0.734784 14.0019 0.48043 13.8966 0.292893 13.7091C0.105357 13.5215 0 13.2672 0 13.0019C0 12.7367 0.105357 12.4824 0.292893 12.2948C0.48043 12.1073 0.734784 12.0019 1 12.0019H4V11.0019C3.99725 10.0312 4.12335 9.06447 4.375 8.12695L1.6 6.9182C1.4768 6.86762 1.36495 6.79294 1.271 6.69854C1.17706 6.60415 1.10291 6.49194 1.05292 6.3685C1.00293 6.24506 0.978101 6.11288 0.979887 5.97972C0.981673 5.84655 1.01004 5.71508 1.06332 5.59303C1.11661 5.47098 1.19374 5.3608 1.29018 5.26896C1.38662 5.17711 1.50044 5.10546 1.62495 5.0582C1.74946 5.01095 1.88215 4.98904 2.01525 4.99376C2.14834 4.99848 2.27915 5.02974 2.4 5.0857L5.0775 6.25195C5.97326 4.37999 7.38028 2.7996 9.13607 1.69332C10.8918 0.587041 12.9248 0 15 0C17.0752 0 19.1082 0.587041 20.8639 1.69332C22.6197 2.7996 24.0267 4.37999 24.9225 6.25195L27.6 5.08195C27.8418 4.98267 28.1129 4.98202 28.3552 5.08014C28.5975 5.17827 28.7917 5.36736 28.8963 5.60692C29.0009 5.84649 29.0075 6.11748 28.9147 6.36187C28.822 6.60626 28.6372 6.80461 28.4 6.91445L25.625 8.1332C25.8766 9.07072 26.0028 10.0375 26 11.0082V12.0082H29C29.2652 12.0082 29.5196 12.1136 29.7071 12.3011C29.8946 12.4886 30 12.743 30 13.0082C30 13.2734 29.8946 13.5278 29.7071 13.7153C29.5196 13.9028 29.2652 14.0082 29 14.0082H26V15.0019ZM16 15.0019C16 14.7367 15.8946 14.4824 15.7071 14.2948C15.5196 14.1073 15.2652 14.0019 15 14.0019C14.7348 14.0019 14.4804 14.1073 14.2929 14.2948C14.1054 14.4824 14 14.7367 14 15.0019V23.0019C14 23.2672 14.1054 23.5215 14.2929 23.7091C14.4804 23.8966 14.7348 24.0019 15 24.0019C15.2652 24.0019 15.5196 23.8966 15.7071 23.7091C15.8946 23.5215 16 23.2672 16 23.0019V15.0019ZM24 11.0019C24 8.615 23.0518 6.32581 21.364 4.63799C19.6761 2.95016 17.3869 2.00195 15 2.00195C12.6131 2.00195 10.3239 2.95016 8.63604 4.63799C6.94821 6.32581 6 8.615 6 11.0019V12.0019H24V11.0019Z" fill="#1153E3"/>
</svg>
