<svg width="24" height="27" viewBox="0 0 24 27" fill="none" xmlns="http://www.w3.org/2000/svg">
<path d="M22 9H8V6C8 4.93913 8.42143 3.92172 9.17157 3.17157C9.92172 2.42143 10.9391 2 12 2C13.9213 2 15.65 3.375 16.02 5.19875C16.0749 5.45646 16.2294 5.68207 16.4497 5.82655C16.6701 5.97103 16.9385 6.0227 17.1968 5.97032C17.455 5.91795 17.6822 5.76577 17.8288 5.54686C17.9755 5.32795 18.0298 5.06 17.98 4.80125C17.415 2.01875 14.9 0 12 0C10.4092 0.00165449 8.88405 0.634327 7.75919 1.75919C6.63433 2.88405 6.00165 4.40921 6 6V9H2C1.46957 9 0.960859 9.21071 0.585786 9.58579C0.210714 9.96086 0 10.4696 0 11V25C0 25.5304 0.210714 26.0391 0.585786 26.4142C0.960859 26.7893 1.46957 27 2 27H22C22.5304 27 23.0391 26.7893 23.4142 26.4142C23.7893 26.0391 24 25.5304 24 25V11C24 10.4696 23.7893 9.96086 23.4142 9.58579C23.0391 9.21071 22.5304 9 22 9ZM19 23H5C4.73478 23 4.48043 22.8946 4.29289 22.7071C4.10536 22.5196 4 22.2652 4 22C4 21.7348 4.10536 21.4804 4.29289 21.2929C4.48043 21.1054 4.73478 21 5 21H19C19.2652 21 19.5196 21.1054 19.7071 21.2929C19.8946 21.4804 20 21.7348 20 22C20 22.2652 19.8946 22.5196 19.7071 22.7071C19.5196 22.8946 19.2652 23 19 23ZM19 19H5C4.73478 19 4.48043 18.8946 4.29289 18.7071C4.10536 18.5196 4 18.2652 4 18C4 17.7348 4.10536 17.4804 4.29289 17.2929C4.48043 17.1054 4.73478 17 5 17H19C19.2652 17 19.5196 17.1054 19.7071 17.2929C19.8946 17.4804 20 17.7348 20 18C20 18.2652 19.8946 18.5196 19.7071 18.7071C19.5196 18.8946 19.2652 19 19 19ZM19 15H5C4.73478 15 4.48043 14.8946 4.29289 14.7071C4.10536 14.5196 4 14.2652 4 14C4 13.7348 4.10536 13.4804 4.29289 13.2929C4.48043 13.1054 4.73478 13 5 13H19C19.2652 13 19.5196 13.1054 19.7071 13.2929C19.8946 13.4804 20 13.7348 20 14C20 14.2652 19.8946 14.5196 19.7071 14.7071C19.5196 14.8946 19.2652 15 19 15Z" fill="#1153E3"/>
</svg>
