<svg width="27" height="26" viewBox="0 0 27 26" fill="none" xmlns="http://www.w3.org/2000/svg">
<path d="M14 0C12.0244 0.00258562 10.0751 0.454005 8.29948 1.32017C6.52383 2.18634 4.96818 3.44462 3.75 5H2C1.46957 5 0.960859 5.21071 0.585786 5.58579C0.210714 5.96086 0 6.46957 0 7V19C0 19.5304 0.210714 20.0391 0.585786 20.4142C0.960859 20.7893 1.46957 21 2 21H3.75C5.10701 22.7382 6.88386 24.1026 8.91342 24.9649C10.943 25.8272 13.1585 26.159 15.3517 25.9292C17.5448 25.6994 19.6434 24.9155 21.4502 23.6513C23.2569 22.387 24.7124 20.6839 25.6796 18.7022C26.6469 16.7206 27.0941 14.5254 26.9793 12.3232C26.8645 10.1211 26.1914 7.98433 25.0234 6.11396C23.8553 4.24358 22.2307 2.70107 20.3023 1.63151C18.3739 0.561959 16.2051 0.000517278 14 0ZM6 16V10C6 9.73478 6.10536 9.48043 6.29289 9.29289C6.48043 9.10536 6.73478 9 7 9H9C9.79565 9 10.5587 9.31607 11.1213 9.87868C11.6839 10.4413 12 11.2044 12 12C12 12.7956 11.6839 13.5587 11.1213 14.1213C10.5587 14.6839 9.79565 15 9 15H8V16C8 16.2652 7.89464 16.5196 7.70711 16.7071C7.51957 16.8946 7.26522 17 7 17C6.73478 17 6.48043 16.8946 6.29289 16.7071C6.10536 16.5196 6 16.2652 6 16ZM13 23.9538C10.5498 23.7259 8.24587 22.6863 6.45375 21H13V23.9538ZM13 5H6.45375C8.24587 3.31367 10.5498 2.27411 13 2.04625V5ZM15 2.04625C17.5599 2.28325 19.9562 3.40808 21.7741 5.22592C23.5919 7.04376 24.7167 9.44013 24.9538 12H17V7C17 6.46957 16.7893 5.96086 16.4142 5.58579C16.0391 5.21071 15.5304 5 15 5V2.04625ZM15 23.9538V21C15.5304 21 16.0391 20.7893 16.4142 20.4142C16.7893 20.0391 17 19.5304 17 19V14H24.9538C24.7167 16.5599 23.5919 18.9562 21.7741 20.7741C19.9562 22.5919 17.5599 23.7167 15 23.9538ZM9 13H8V11H9C9.26522 11 9.51957 11.1054 9.70711 11.2929C9.89464 11.4804 10 11.7348 10 12C10 12.2652 9.89464 12.5196 9.70711 12.7071C9.51957 12.8946 9.26522 13 9 13Z" fill="#1153E3"/>
</svg>
