<svg width="32" height="28" viewBox="0 0 32 28" fill="none" xmlns="http://www.w3.org/2000/svg">
<path d="M21.9997 22.9048C22.6895 22.633 23.358 22.3101 23.9997 21.9386V26.9998C23.9997 27.2651 23.8943 27.5194 23.7068 27.7069C23.5193 27.8945 23.2649 27.9998 22.9997 27.9998C22.7345 27.9998 22.4801 27.8945 22.2926 27.7069C22.105 27.5194 21.9997 27.2651 21.9997 26.9998V22.9048ZM23.4697 11.8511L16.4697 8.11733C16.2361 7.99804 15.9651 7.97527 15.7149 8.05392C15.4647 8.13257 15.2555 8.30635 15.1322 8.53782C15.0089 8.76929 14.9815 9.03992 15.0558 9.29141C15.1302 9.54289 15.3004 9.75511 15.5297 9.88233L21.3747 12.9998L23.4997 11.8673L23.4697 11.8511ZM31.4697 8.11733L16.4697 0.117334C16.325 0.0402935 16.1636 0 15.9997 0C15.8358 0 15.6744 0.0402935 15.5297 0.117334L0.529688 8.11733C0.369693 8.2026 0.235888 8.32976 0.142587 8.4852C0.0492867 8.64065 0 8.81854 0 8.99983C0 9.18113 0.0492867 9.35902 0.142587 9.51446C0.235888 9.66991 0.369693 9.79707 0.529688 9.88233L3.99969 11.7336V17.7861C3.99865 18.2773 4.17942 18.7515 4.50719 19.1173C6.14469 20.9411 9.81344 23.9998 15.9997 23.9998C18.0509 24.0168 20.0867 23.6453 21.9997 22.9048V13.3336L21.3747 12.9998L15.9997 15.8661L5.47844 10.2498L3.12469 8.99983L15.9997 2.13358L28.8747 8.99983L26.5272 10.2498H26.5197L23.4997 11.8673C23.6517 11.9551 23.778 12.0814 23.8658 12.2335C23.9535 12.3855 23.9997 12.558 23.9997 12.7336V21.9386C25.3037 21.1858 26.4821 20.2339 27.4922 19.1173C27.82 18.7515 28.0007 18.2773 27.9997 17.7861V11.7336L31.4697 9.88233C31.6297 9.79707 31.7635 9.66991 31.8568 9.51446C31.9501 9.35902 31.9994 9.18113 31.9994 8.99983C31.9994 8.81854 31.9501 8.64065 31.8568 8.4852C31.7635 8.32976 31.6297 8.2026 31.4697 8.11733Z" fill="#1153E3"/>
</svg>
